<?xml version="1.0" encoding="UTF-8"?><svg id="a" xmlns="http://www.w3.org/2000/svg" viewBox="0 0 3661.74 1111.3"><defs><style>.b,.c,.d{fill:#fff;}.e{fill:#c18b2a;}.f{stroke-dasharray:0 0 12.19 12.19;}.f,.g,.h,.i,.j,.k,.l,.m{stroke:#000;}.f,.g,.k,.l{fill:none;stroke-miterlimit:8;stroke-width:5px;}.n{fill:#107c10;}.c,.o,.p,.q,.r,.d{font-family:ArialMT, Arial;}.c,.r{font-size:57px;}.g{stroke-dasharray:0 0 12.74 12.74;}.o{font-size:32px;}.h{fill:#a3a3a3;stroke-width:2px;}.h,.i{stroke-linejoin:round;}.s{fill:#d83b01;}.i{fill:#c5c5c5;stroke-width:1.55px;}.j{fill:#8faad9;}.j,.m{stroke-miterlimit:10;stroke-width:3px;}.p{font-size:38px;}.t{fill:#ffb900;}.u{fill:#ed7d31;}.q{font-size:50px;}.k{stroke-dasharray:0 0 11.84 11.84;}.m{fill:#4472c4;}.d{font-size:67px;}.v{letter-spacing:-.06em;}</style></defs><ellipse class="i" cx="2491.2" cy="636.1" rx="216" ry="43.2"/><path class="h" d="M2707.2,636.1c0,23.86-96.71,43.2-216,43.2s-216-19.34-216-43.2v144c0,23.86,96.71,43.2,216,43.2s216-19.34,216-43.2v-144Z"/><ellipse class="j" cx="1209.6" cy="837.7" rx="216" ry="43.2"/><path class="m" d="M1425.6,837.7c0,23.86-96.71,43.2-216,43.2s-216-19.34-216-43.2v144c0,23.86,96.71,43.2,216,43.2s216-19.34,216-43.2v-144Z"/><g><polygon class="t" points="1558.16 561.14 1558.16 77.46 2905.86 77.46 2909.95 561.14 1558.16 561.14"/><path d="M2902.93,80.42l4.04,477.75H1561.12V80.42h1341.8m5.87-5.92H1555.2v489.6h1357.74l-4.14-489.6h0Z"/></g><g><rect class="n" x="3055.8" y="91.9" width="602.94" height="210"/><path d="M3655.74,94.9v204h-596.94V94.9h596.94m6-6h-608.94v216h608.94V88.9h0Z"/></g><ellipse class="j" cx="954.54" cy="549.7" rx="72" ry="144"/><path class="m" d="M1343.34,693.7c39.76,0,72-64.47,72-144s-32.24-144-72-144h-388.8c39.76,0,72,64.47,72,144s-32.24,144-72,144h388.8Z"/><path class="j" d="M1400.94,693.7c39.76,0,72-64.47,72-144s-32.24-144-72-144h-57.6c39.76,0,72,64.47,72,144s-32.24,144-72,144h57.6Z"/><g><rect class="e" x="2407.8" y="135.1" width="426" height="138"/><path d="M2830.8,138.1v132h-420V138.1h420m6-6h-432v144h432V132.1h0Z"/></g><g><rect class="e" x="2407.8" y="351.1" width="426" height="138"/><path d="M2830.8,354.1v132h-420v-132h420m6-6h-432v144h432v-144h0Z"/></g><g><rect class="e" x="1947" y="207.1" width="314.94" height="224.4"/><path d="M2258.94,210.1v218.4h-308.94V210.1h308.94m6-6h-320.94v230.4h320.94V204.1h0Z"/></g><g><polyline class="l" points="2264.94 304.9 2332.8 304.9 2332.8 204.1 2379.68 204.1"/><polygon points="2374.58 221.55 2404.8 204.1 2374.58 186.65 2374.58 221.55"/></g><g><polyline class="l" points="2260.8 333.7 2332.8 333.7 2332.8 420.1 2379.68 420.1"/><polygon points="2374.58 437.55 2404.8 420.1 2374.58 402.65 2374.58 437.55"/></g><g><rect class="e" x="1615.8" y="207.1" width="253.2" height="224.4"/><path d="M1866,210.1v218.4h-247.2V210.1h247.2m6-6h-259.2v230.4h259.2V204.1h0Z"/></g><g><line class="l" x1="1867.86" y1="319.3" x2="1918.88" y2="319.3"/><polygon points="1913.78 336.75 1944 319.3 1913.78 301.85 1913.78 336.75"/></g><g><line class="l" x1="2836.8" y1="204.1" x2="3027.68" y2="204.1"/><polygon points="3022.58 221.55 3052.8 204.1 3022.58 186.65 3022.58 221.55"/></g><g><polyline class="l" points="1296 405.7 1296 319.3 1587.68 319.3"/><polygon points="1582.58 336.75 1612.8 319.3 1582.58 301.85 1582.58 336.75"/></g><g><rect class="s" x="3" y="466.3" width="714" height="238.8"/><path d="M714,469.3v232.8H6v-232.8H714m6-6H0v244.8H720v-244.8h0Z"/></g><g><g><rect class="u" x="463.8" y="509.5" width="210" height="138"/><path d="M670.8,512.5v132h-204v-132h204m6-6h-216v144h216v-144h0Z"/></g><text class="d" transform="translate(499.56 607.3)"><tspan x="0" y="0">SDK</tspan></text></g><g><polyline class="l" points="2793.6 492.1 2793.6 679.3 2732.32 679.3"/><polygon points="2737.42 661.85 2707.2 679.3 2737.42 696.75 2737.42 661.85"/></g><g><polyline class="l" points="2275.2 679.3 2188.8 679.3 2188.8 459.62"/><polygon points="2206.25 464.72 2188.8 434.5 2171.35 464.72 2206.25 464.72"/></g><g><line class="l" x1="1425.6" y1="909.7" x2="1431.6" y2="909.7"/><line class="f" x1="1443.79" y1="909.7" x2="2047.11" y2="909.7"/><polyline class="l" points="2053.2 909.7 2059.2 909.7 2059.2 903.7"/><line class="k" x1="2059.2" y1="891.86" x2="2059.2" y2="471.54"/><line class="l" x1="2059.2" y1="465.62" x2="2059.2" y2="459.62"/><polygon points="2076.65 464.72 2059.2 434.5 2041.75 464.72 2076.65 464.72"/></g><g><line class="l" x1="1209.6" y1="693.7" x2="1209.6" y2="699.7"/><line class="g" x1="1209.6" y1="712.44" x2="1209.6" y2="757.02"/><line class="l" x1="1209.6" y1="763.38" x2="1209.6" y2="769.38"/><polygon points="1192.15 764.28 1209.6 794.5 1227.05 764.28 1192.15 764.28"/></g><g><rect class="s" x="2.64" y="797.14" width="714.73" height="239.53"/><path d="M714.73,799.77v234.25H5.27v-234.25H714.73m5.27-5.27H0v244.8H720v-244.8h0Z"/></g><g><g><rect class="u" x="463.8" y="840.7" width="210" height="138"/><path d="M670.8,843.7v132h-204v-132h204m6-6h-216v144h216v-144h0Z"/></g><text class="d" transform="translate(499.56 938.5)"><tspan x="0" y="0">SDK</tspan></text></g><text class="q" transform="translate(1678.47 307.2)"><tspan x="0" y="0">Event</tspan><tspan x="-18.07" y="60">Reader</tspan></text><text class="r" transform="translate(1586.99 145.31)"><tspan x="0" y="0">Aggregator</tspan></text><text class="c" transform="translate(1108.21 973.31)"><tspan x="0" y="0">Capture</tspan></text><text class="q" transform="translate(2432.82 732)"><tspan x="0" y="0">State</tspan><tspan x="-59.77" y="60">Snapshots</tspan></text><text class="q" transform="translate(2000.96 307.2)"><tspan x="0" y="0">Business</tspan><tspan x="41.67" y="60">Logic</tspan></text><text class="q" transform="translate(2541.63 222)"><tspan x="0" y="0">Emitter</tspan></text><text class="q" transform="translate(2454.02 438)"><tspan x="0" y="0">Snapshot Gen.</tspan></text><text class="c" transform="translate(3117.6 183.11)"><tspan x="0" y="0">Azure Marketplace</tspan><tspan x="74.44" y="68.4">Metering</tspan><tspan class="v" x="296.2" y="68.4"> </tspan><tspan x="308.89" y="68.4">API</tspan></text><text class="c" transform="translate(39 571.91)"><tspan x="0" y="0">Sending</tspan><tspan x="0" y="68.4">application</tspan></text><text class="c" transform="translate(39 910.31)"><tspan x="0" y="0">Management</tspan><tspan x="0" y="68.4">application</tspan></text><text class="c" transform="translate(1115.12 535.91)"><tspan x="0" y="0">Event</tspan><tspan x="6.35" y="68.4">Hubs</tspan></text><g><polygon class="b" points="1152.24 275.1 951.4 275.1 951.4 205.1 1266.2 205.1 1266.2 275.1 1221.59 275.1 1290.94 344.45 1152.24 275.1"/><path d="M1265.2,206.1v68h-46.03l3.41,3.41,63.29,63.29-132.98-66.49-.42-.21h-200.07v-68h312.8m2-2h-316.8v72h201.6l144,72-72-72h43.2v-72h0Z"/></g><text class="p" transform="translate(993.7 253.7)"><tspan x="0" y="0">Event Stream</tspan></text><g><polygon class="b" points="691.88 347.1 461.8 347.1 461.8 277.1 776.6 277.1 776.6 347.1 733.18 347.1 774.48 553.62 691.88 347.1"/><path d="M775.6,278.1v68h-43.64l.48,2.39,38.93,194.64-78.31-195.77-.5-1.26h-229.75v-68h312.8m2-2H460.8v72h230.4l86.4,216-43.2-216h43.2v-72h0Z"/></g><text class="p" transform="translate(500.91 325.7)"><tspan x="0" y="0">Usage Events</tspan></text><g><polygon class="b" points="2823.4 851.1 2823.4 752.3 2868.01 752.3 2798.66 682.95 2937.36 752.3 3138.2 752.3 3138.2 851.1 2823.4 851.1"/><path d="M2803.73,686.6l132.98,66.49,.42,.21h200.07v96.8h-312.8v-96.8h46.03l-3.41-3.41-63.29-63.29m-10.13-7.3l72,72h-43.2v100.8h316.8v-100.8h-201.6l-144-72h0Z"/></g><text class="p" transform="translate(2855.15 792.5)"><tspan x="0" y="0">Regularly write </tspan><tspan x="39.04" y="45.6">snapshots</tspan></text><g><polygon class="b" points="778.6 1110.3 778.6 997.1 822.28 997.1 794.74 928.25 863.59 997.1 1035.8 997.1 1035.8 1110.3 778.6 1110.3"/><path d="M797.48,932.4l65.11,65.11,.59,.59h171.63v111.2h-255.2v-111.2h44.15l-1.1-2.74-25.18-62.95m-5.48-8.3l28.8,72h-43.2v115.2h259.2v-115.2h-172.8l-72-72h0Z"/></g><text class="p" transform="translate(802.64 1044.5)"><tspan x="0" y="0">Subscription</tspan><tspan x="46.47" y="45.6">Events</tspan></text><g><polygon class="b" points="3025 563.1 3025 464.3 3068.74 464.3 2959.14 217.7 3109.84 464.3 3339.8 464.3 3339.8 563.1 3025 563.1"/><path d="M2966.28,231.3l142.42,233.05,.58,.96h229.52v96.8h-312.8v-96.8h44.28l-1.25-2.81-102.75-231.19m-14.28-27.2l115.2,259.2h-43.2v100.8h316.8v-100.8h-230.4l-158.4-259.2h0Z"/></g><text class="p" transform="translate(3066.23 527.3)"><tspan x="0" y="0">API Requests</tspan></text><g><polyline class="l" points="2620.8 132.1 2620.8 2.5 806.4 2.5 806.4 506.5 860.72 506.5"/><polygon points="855.62 523.95 885.84 506.5 855.62 489.05 855.62 523.95"/></g><g><line class="l" x1="676.8" y1="578.5" x2="857.42" y2="578.5"/><polygon points="852.32 595.95 882.54 578.5 852.32 561.05 852.32 595.95"/></g><g><polyline class="l" points="676.8 909.7 806.4 909.7 806.4 636.1 871.82 636.1"/><polygon points="866.71 653.55 896.94 636.1 866.71 618.65 866.71 653.55"/></g><g><polygon class="b" points="2132.2 966.3 2132.2 867.5 2175.18 867.5 2215.58 705.91 2202.11 867.5 2447 867.5 2447 966.3 2132.2 966.3"/><path d="M2213.56,718.11l-12.35,148.22-.18,2.17h244.97v96.8h-312.8v-96.8h42.76l.38-1.51,37.22-148.87m4.04-24.41l-43.2,172.8h-43.2v100.8h316.8v-100.8h-244.8l14.4-172.8h0Z"/></g><text class="o" transform="translate(2139.28 909.16)"><tspan x="0" y="0">Read latest snapshot</tspan><tspan x="79.16" y="38.4">on startup</tspan></text><g><g><polygon class="b" points="951.57 159.73 951.57 90.07 1009.88 90.07 1063.49 21.49 1049.78 90.07 1381.23 90.07 1381.23 159.73 951.57 159.73"/><path d="M1061.38,26.09l-12.47,62.35-.56,2.79h331.71v67.33h-427.33V91.24h57.71l.7-.9,50.23-64.25m4.22-9.19l-56.29,72h-58.91v72h432V88.9h-331.2l14.4-72h0Z"/></g><text class="p" transform="translate(981.58 138.5)"><tspan x="0" y="0">API Response Events</tspan></text></g></svg>