<?xml version="1.0" encoding="utf-8"?>
<!-- Generator: Adobe Illustrator 16.0.0, SVG Export Plug-In . SVG Version: 6.00 Build 0)  -->
<!DOCTYPE svg PUBLIC "-//W3C//DTD SVG 1.1//EN" "http://www.w3.org/Graphics/SVG/1.1/DTD/svg11.dtd">
<svg version="1.1" id="Layer_1" xmlns="http://www.w3.org/2000/svg" xmlns:xlink="http://www.w3.org/1999/xlink" x="0px" y="0px"
	 width="3955px" height="1626px" viewBox="0 0 3955 1626" enable-background="new 0 0 3955 1626" xml:space="preserve">
<g>
	<rect x="1629.539" y="444.5" fill="#FFB900" width="1347.602" height="498"/>
	<g>
		<path d="M2974.141,447.5v492H1632.539v-492H2974.141 M2980.141,441.5H1626.539v504h1353.602V441.5L2980.141,441.5z"/>
	</g>
</g>
<g>
	<rect x="3127.141" y="473.299" fill="#107C10" width="598.8" height="210"/>
	<g>
		<path d="M3722.941,476.299v204h-592.8v-204H3722.941 M3728.941,470.299h-604.8v216h604.8V470.299L3728.941,470.299z"/>
	</g>
</g>
<ellipse fill="#8FAAD9" stroke="#000000" stroke-width="6" stroke-miterlimit="10" cx="1021.741" cy="931.1" rx="72" ry="144"/>
<path fill="#4472C4" stroke="#000000" stroke-width="6" stroke-miterlimit="10" d="M1410.541,1075.1c39.764,0,72-64.471,72-144
	c0-79.528-32.236-144-72-144h-388.8c39.764,0,72,64.471,72,144c0,79.529-32.236,144-72,144H1410.541z"/>
<path fill="#8FAAD9" stroke="#000000" stroke-width="6" stroke-miterlimit="10" d="M1468.141,1075.1c39.764,0,72-64.471,72-144
	c0-79.528-32.236-144-72-144h-57.6c39.764,0,72,64.471,72,144c0,79.529-32.236,144-72,144H1468.141z"/>
<g>
	<rect x="2479.141" y="516.5" fill="#C18B2A" width="426" height="138"/>
	<g>
		<path d="M2902.141,519.5v132h-420v-132H2902.141 M2908.141,513.5h-432v144h432V513.5L2908.141,513.5z"/>
	</g>
</g>
<text transform="matrix(1 0 0 1 2586.0471 614.2998)" font-family="'ArialMT'" font-size="67">Emitter</text>
<g>
	<rect x="2479.141" y="732.5" fill="#C18B2A" width="426" height="138"/>
	<g>
		<path d="M2902.141,735.5v132h-420v-132H2902.141 M2908.141,729.5h-432v144h432V729.5L2908.141,729.5z"/>
	</g>
</g>
<text transform="matrix(1 0 0 1 2487.2639 830.2998)" font-family="'ArialMT'" font-size="67">SnapshotGen</text>
<g>
	<rect x="2018.341" y="588.5" fill="#C18B2A" width="310.8" height="224.4"/>
	<g>
		<path d="M2326.141,591.5v218.4h-304.8V591.5H2326.141 M2332.141,585.5h-316.8V815.9h316.8V585.5L2332.141,585.5z"/>
	</g>
</g>
<text transform="matrix(1 0 0 1 2033.6702 671.8999)"><tspan x="0" y="0" font-family="'ArialMT'" font-size="67">Business</tspan><tspan x="55.844" y="80.4" font-family="'ArialMT'" font-size="67">Logic</tspan></text>
<g>
	<g>
		<polyline fill="none" stroke="#000000" stroke-width="5" stroke-miterlimit="8" points="2332.141,686.299 2404.141,686.299 
			2404.141,585.5 2451.024,585.5 		"/>
		<g>
			<polygon points="2445.917,602.952 2476.141,585.5 2445.917,568.047 			"/>
		</g>
	</g>
</g>
<g>
	<g>
		<polyline fill="none" stroke="#000000" stroke-width="5" stroke-miterlimit="8" points="2332.141,715.1 2404.141,715.1 
			2404.141,801.5 2451.024,801.5 		"/>
		<g>
			<polygon points="2445.917,818.952 2476.141,801.5 2445.917,784.048 			"/>
		</g>
	</g>
</g>
<g>
	<rect x="1683.001" y="588.5" fill="#C18B2A" width="253.199" height="224.4"/>
	<g>
		<path d="M1933.2,591.5v218.4h-247.199V591.5H1933.2 M1939.2,585.5h-259.199V815.9H1939.2V585.5L1939.2,585.5z"/>
	</g>
</g>
<text transform="matrix(1 0 0 1 1728.0764 671.8994)"><tspan x="0" y="0" font-family="'ArialMT'" font-size="67">Event</tspan><tspan x="-24.209" y="80.4" font-family="'ArialMT'" font-size="67">Reader</tspan></text>
<g>
	<g>
		<line fill="none" stroke="#000000" stroke-width="5" stroke-miterlimit="8" x1="1939.2" y1="700.7" x2="1990.224" y2="700.7"/>
		<g>
			<polygon points="1985.117,718.152 2015.341,700.7 1985.117,683.248 			"/>
		</g>
	</g>
</g>
<text transform="matrix(1 0 0 1 3147.2542 556.6992)"><tspan x="0" y="0" fill="#FFFFFF" font-family="'ArialMT'" font-size="67">Azure Marketplace</tspan><tspan x="85.648" y="80.4" fill="#FFFFFF" font-family="'ArialMT'" font-size="67">Metering API</tspan></text>
<g>
	<g>
		<line fill="none" stroke="#000000" stroke-width="5" stroke-miterlimit="8" x1="2908.141" y1="585.5" x2="3099.024" y2="585.5"/>
		<g>
			<polygon points="3093.917,602.952 3124.141,585.5 3093.917,568.048 			"/>
		</g>
	</g>
</g>
<image overflow="visible" width="632" height="632" xlink:href="4B5368CB.png"  transform="matrix(0.2441 0 0 0.2441 3613.7405 618.4409)">
</image>
<g>
	<g>
		<polyline fill="none" stroke="#000000" stroke-width="5" stroke-miterlimit="8" points="1363.2,787.1 1363.2,700.7 
			1654.884,700.7 		"/>
		<g>
			<polygon points="1649.778,718.152 1680.001,700.7 1649.778,683.248 			"/>
		</g>
	</g>
</g>
<g>
	<g>
		<polyline fill="none" stroke="#000000" stroke-width="5" stroke-miterlimit="8" points="2692.141,513.5 2692.141,369.5 
			877.741,369.5 877.741,887.9 920.484,887.9 		"/>
		<g>
			<polygon points="915.377,905.353 945.601,887.9 915.377,870.448 			"/>
		</g>
	</g>
</g>
<g>
	<rect x="70.2" y="804.499" fill="#D83B01" width="714.001" height="310.801"/>
	<g>
		<path d="M781.201,807.499V1112.3H73.2V807.499H781.201 M787.201,801.499H67.2V1118.3h720.001V801.499L787.201,801.499z"/>
	</g>
</g>
<g>
	<g>
		<rect x="531.001" y="890.898" fill="#ED7D31" width="210" height="138.001"/>
		<g>
			<path d="M738.001,893.898v132.001h-204V893.898H738.001 M744.001,887.898h-216v144.001h216V887.898L744.001,887.898z"/>
		</g>
	</g>
	<text transform="matrix(1 0 0 1 566.7639 988.6982)" fill="#FFFFFF" font-family="'ArialMT'" font-size="67">SDK</text>
</g>
<text transform="matrix(1 0 0 1 124.801 945.499)"><tspan x="0" y="0" fill="#FFFFFF" font-family="'ArialMT'" font-size="67">Sending</tspan><tspan x="0" y="80.399" fill="#FFFFFF" font-family="'ArialMT'" font-size="67">application</tspan></text>
<g>
	<g>
		<line fill="none" stroke="#000000" stroke-width="5" stroke-miterlimit="8" x1="744.001" y1="959.899" x2="920.484" y2="959.9"/>
		<g>
			<polygon points="915.377,977.353 945.601,959.9 915.378,942.448 			"/>
		</g>
	</g>
</g>
<g>
	<path fill="#FFFFFF" d="M1171.897,812.562h176.195c1.563,0,3.606-0.24,4.929,0.602c1.081,0.72,0.961,1.802,0.961,2.884v38.217
		c0,1.085-0.12,2.164-0.961,2.888c-0.962,0.961-2.044,0.961-3.366,0.961h-16.947c-1.441,0-2.883-0.119-3.845-1.2
		c-0.841-0.965-0.841-2.287-0.841-3.488v-15.021h-137.014v15.382c0,1.204-0.119,2.404-0.961,3.367
		c-0.962,0.961-2.165,0.961-3.364,0.961h-17.79c-1.201,0-2.402,0-3.364-0.961c-0.963-0.963-0.963-2.044-1.081-3.367V819.17
		c0-1.32-0.122-2.764,0.118-4.087c0.241-1.199,1.322-2.163,2.525-2.402C1168.773,812.44,1170.336,812.562,1171.897,812.562
		L1171.897,812.562z"/>
	<path fill="#FFFFFF" d="M1208.437,857.753h23.313c1.444,0,3.126,0.119,4.088,1.323c0.84,0.959,0.84,2.16,0.84,3.363v17.307
		c0,1.322,0,2.525-0.961,3.605c-0.959,0.961-2.282,0.961-3.605,0.961h-21.273c-1.563,0-3.245,0.121-4.687-0.238
		c-1.442-0.602-2.043-1.924-2.043-3.484v-18.15c0-1.322,0-2.523,0.841-3.485C1205.912,857.872,1207.234,857.753,1208.437,857.753
		L1208.437,857.753z M1254.345,878.423h23.799c1.201,0,2.283,0,3.244,0.844c0.962,0.843,1.081,1.924,1.081,3.124v17.789
		c0,1.44-0.48,2.643-1.803,3.363c-1.44,0.603-3.363,0.361-4.926,0.361h-20.914c-1.322,0-2.525,0-3.486-0.962
		c-0.962-0.96-0.962-2.283-0.962-3.485v-16.465c0-1.322,0.122-2.525,1.083-3.484
		C1252.182,878.545,1253.144,878.545,1254.345,878.423z M1210.96,897.654h21.271c1.203,0,2.285,0.122,3.126,0.962
		c0.961,0.962,0.961,2.284,0.961,3.487v16.944c0,1.203-0.122,2.165-0.961,3.006c-0.961,0.962-2.164,0.962-3.486,0.962h-23.316
		c-1.204,0-2.285,0-3.246-0.843c-0.961-0.839-1.081-1.922-1.201-3.125v-16.944c0-1.322,0-2.646,1.081-3.606
		C1206.512,897.296,1209.156,897.776,1210.96,897.654L1210.96,897.654z M1299.777,897.654h24.158c1.201,0,2.284,0.122,3.125,0.962
		c1.083,0.962,0.962,2.284,0.962,3.607v16.945c0,1.201-0.121,2.283-1.082,3.126c-0.962,0.961-2.163,0.961-3.486,0.961h-20.552
		c-1.681,0-3.484,0.121-5.047-0.24c-1.443-0.6-2.042-1.925-2.042-3.365v-17.308c0-1.321,0-2.403,0.96-3.485
		C1297.614,897.898,1298.696,897.654,1299.777,897.654L1299.777,897.654z M1254.345,917.367h23.799c1.201,0,2.283,0,3.244,0.841
		c0.962,0.84,1.081,2.043,1.081,3.244v17.786c0,1.324-0.48,2.406-1.562,3.127c-1.441,0.719-3.485,0.48-5.167,0.48h-20.914
		c-1.322,0-2.525,0-3.486-0.962c-0.962-0.963-0.962-2.164-1.082-3.485v-16.467c0-1.32,0-2.644,0.961-3.485
		C1252.063,917.486,1253.144,917.486,1254.345,917.367L1254.345,917.367z M1210.96,936.597h21.393c1.201,0,2.283,0.119,3.125,1.082
		c0.842,0.959,0.842,2.041,0.842,3.242v16.948c0,1.201,0,2.282-0.842,3.245c-0.842,0.961-2.043,1.081-3.246,1.081h-23.794
		c-1.324,0-2.646,0-3.487-1.201c-0.841-1.081-0.841-2.282-0.841-3.604v-16.948c0-1.562,0.601-2.884,2.043-3.485
		C1207.594,936.476,1209.395,936.716,1210.96,936.597L1210.96,936.597z M1169.493,962.557h17.309c1.321,0,2.644,0.121,3.605,1.202
		c0.842,0.96,0.721,2.044,0.842,3.245v15.264h137.492v-14.903c0-1.204,0-2.404,0.961-3.366c1.083-1.082,2.286-1.082,3.728-1.082
		h16.105c1.201,0,2.644,0,3.605,0.721c1.081,0.844,1.562,2.285,1.562,3.605v36.659c0,1.323-0.119,2.403-1.081,3.245
		c-1.203,1.203-3.366,0.72-4.928,0.842h-179.439c-1.082,0-2.044-0.122-2.764-0.842c-0.962-0.842-1.083-2.045-1.083-3.245v-37.017
		c0-1.445,0.241-2.768,1.322-3.728C1167.331,962.557,1168.411,962.678,1169.493,962.557L1169.493,962.557z"/>
</g>
<ellipse fill="#C5C5C5" stroke="#000000" stroke-width="6" stroke-miterlimit="10" cx="2572.802" cy="1089.5" rx="216" ry="72"/>
<path fill="#A3A3A3" stroke="#000000" stroke-width="6" stroke-miterlimit="10" d="M2356.802,1233.5c0,39.764,96.707,72,216,72
	s216-32.236,216-72v-144c0,39.764-96.707,72-216,72s-216-32.236-216-72V1233.5z"/>
<text transform="matrix(1 0 0 1 2401.4739 1247.8994)" fill="#010101" font-family="'ArialMT'" font-size="67">State Blobs</text>
<g>
	<g>
		<polyline fill="none" stroke="#000000" stroke-width="5" stroke-miterlimit="8" points="2860.8,873.5 2860.801,1175.9 
			2813.919,1175.9 		"/>
		<g>
			<polygon points="2819.026,1158.447 2788.802,1175.9 2819.026,1193.352 			"/>
		</g>
	</g>
</g>
<g>
	<g>
		<polyline fill="none" stroke="#000000" stroke-width="5" stroke-miterlimit="8" points="2356.801,1175.9 2256,1175.9 
			2255.999,841.018 		"/>
		<g>
			<polygon points="2273.451,846.124 2255.999,815.9 2238.547,846.124 			"/>
		</g>
	</g>
</g>
<g transform="translate(-1226 -598)">
	<path fill="#B3B3B3" d="M3895.46,1901.079h174.636l0,0v97.365c0,3.234-2.621,5.855-5.855,5.855h-162.926
		c-3.233,0-5.854-2.621-5.854-5.855V1901.079L3895.46,1901.079z"/>
	<path fill="#37C2B1" d="M3901.315,1863.781h162.926c3.234,0,5.855,2.63,5.855,5.873v31.425l0,0H3895.46l0,0v-31.528
		C3895.516,1866.349,3898.121,1863.781,3901.315,1863.781z"/>
	<path fill="#FFFFFF" d="M3919.236,1912.356h126.94c1.491,0.055,2.67,1.281,2.669,2.776v14.396c0.001,1.495-1.178,2.723-2.669,2.778
		h-126.94c-1.49-0.056-2.67-1.283-2.669-2.778v-14.396C3916.566,1913.638,3917.745,1912.411,3919.236,1912.356z"/>
	<path fill="#37C2B1" d="M3919.285,1940.979h127.033c1.492,0.056,2.672,1.275,2.671,2.764v14.424
		c0.001,1.488-1.179,2.708-2.671,2.763h-127.033c-1.491-0.055-2.671-1.274-2.669-2.763v-13.912c-0.285-1.5,0.704-2.946,2.21-3.227
		C3918.979,1940.998,3919.131,1940.982,3919.285,1940.979z"/>
	<path fill="#258277" d="M3919.24,1969.893h127.078c1.492,0.056,2.673,1.285,2.672,2.783v14.529c0.001,1.497-1.18,2.728-2.672,2.783
		H3919.24c-1.493-0.056-2.674-1.286-2.673-2.783v-14.529C3916.566,1971.178,3917.746,1969.948,3919.24,1969.893z"/>
</g>
<ellipse fill="#C5C5C5" stroke="#000000" stroke-width="6" stroke-miterlimit="10" cx="1840.707" cy="1089.5" rx="216" ry="72"/>
<path fill="#A3A3A3" stroke="#000000" stroke-width="6" stroke-miterlimit="10" d="M1624.707,1233.5c0,39.764,96.707,72,216,72
	s216-32.236,216-72v-144c0,39.764-96.708,72-216,72s-216-32.236-216-72V1233.5z"/>
<text transform="matrix(1 0 0 1 1704.8206 1247.9004)" fill="#010101" font-family="'ArialMT'" font-size="67">Capture</text>
<g>
	<g>
		
			<line fill="none" stroke="#000000" stroke-width="5" stroke-miterlimit="8" x1="2054.401" y1="1175.9" x2="2060.401" y2="1175.9"/>
		
			<line fill="none" stroke="#000000" stroke-width="5" stroke-miterlimit="8" stroke-dasharray="12,12" x1="2072.401" y1="1175.9" x2="2114.401" y2="1175.9"/>
		<polyline fill="none" stroke="#000000" stroke-width="5" stroke-miterlimit="8" points="2120.401,1175.9 2126.401,1175.9 
			2126.401,1169.9 		"/>
		
			<line fill="none" stroke="#000000" stroke-width="5" stroke-miterlimit="8" stroke-dasharray="11.9587,11.9587" x1="2126.401" y1="1157.941" x2="2126.4" y2="852.996"/>
		<line fill="none" stroke="#000000" stroke-width="5" stroke-miterlimit="8" x1="2126.4" y1="847.017" x2="2126.4" y2="841.017"/>
		<g>
			<polygon points="2143.852,846.123 2126.4,815.899 2108.948,846.123 			"/>
		</g>
	</g>
</g>
<g>
	<g>
		<line fill="none" stroke="#000000" stroke-width="5" stroke-miterlimit="8" x1="1276.8" y1="1075.1" x2="1276.8" y2="1081.1"/>
		
			<line fill="none" stroke="#000000" stroke-width="5" stroke-miterlimit="8" stroke-dasharray="12.6858,12.6858" x1="1276.8" y1="1093.785" x2="1276.8" y2="1163.558"/>
		<polyline fill="none" stroke="#000000" stroke-width="5" stroke-miterlimit="8" points="1276.8,1169.9 1276.8,1175.9 
			1282.8,1175.9 		"/>
		
			<line fill="none" stroke="#000000" stroke-width="5" stroke-miterlimit="8" stroke-dasharray="12.3393,12.3393" x1="1295.139" y1="1175.9" x2="1585.114" y2="1175.9"/>
		
			<line fill="none" stroke="#000000" stroke-width="5" stroke-miterlimit="8" x1="1591.283" y1="1175.9" x2="1597.283" y2="1175.9"/>
		<g>
			<polygon points="1592.177,1193.353 1622.4,1175.9 1592.177,1158.448 			"/>
		</g>
	</g>
</g>
<g transform="translate(-1226 -598)">
	<path fill="#B3B3B3" d="M3163.365,1901.079H3338l0,0v97.365c0,3.234-2.621,5.855-5.855,5.855h-162.925
		c-3.233,0-5.854-2.621-5.854-5.855V1901.079L3163.365,1901.079z"/>
	<path fill="#37C2B1" d="M3169.219,1863.781h162.925c3.234,0,5.855,2.63,5.855,5.873v31.425l0,0h-174.635l0,0v-31.528
		C3163.421,1866.349,3166.026,1863.781,3169.219,1863.781z"/>
	<path fill="#FFFFFF" d="M3187.14,1912.356h126.94c1.492,0.055,2.67,1.281,2.67,2.776v14.396c0,1.495-1.178,2.723-2.67,2.778
		h-126.94c-1.49-0.056-2.67-1.283-2.669-2.778v-14.396C3184.47,1913.638,3185.65,1912.411,3187.14,1912.356z"/>
	<path fill="#37C2B1" d="M3187.19,1940.979h127.033c1.492,0.056,2.672,1.275,2.672,2.764v14.424c0,1.488-1.18,2.708-2.672,2.763
		H3187.19c-1.491-0.055-2.671-1.274-2.669-2.763v-13.912c-0.285-1.5,0.704-2.946,2.21-3.227
		C3186.884,1940.998,3187.036,1940.982,3187.19,1940.979z"/>
	<path fill="#258277" d="M3187.144,1969.893h127.079c1.492,0.056,2.672,1.285,2.672,2.783v14.529c0,1.497-1.18,2.728-2.672,2.783
		h-127.079c-1.493-0.056-2.674-1.286-2.673-2.783v-14.529C3184.47,1971.178,3185.651,1969.948,3187.144,1969.893z"/>
</g>
<g>
	<rect x="69.759" y="1192.858" fill="#D83B01" width="714.884" height="225.283"/>
	<g>
		<path d="M782.085,1195.417v220.166H72.317v-220.166H782.085 M787.201,1190.3H67.2v230.4h720.001V1190.3L787.201,1190.3z"/>
	</g>
</g>
<g>
	<g>
		<rect x="531.001" y="1222.099" fill="#ED7D31" width="210" height="138.001"/>
		<g>
			<path d="M738.001,1225.099V1357.1h-204v-132.001H738.001 M744.001,1219.099h-216V1363.1h216V1219.099L744.001,1219.099z"/>
		</g>
	</g>
	<text transform="matrix(1 0 0 1 566.7639 1319.8984)" fill="#FFFFFF" font-family="'ArialMT'" font-size="67">SDK</text>
</g>
<text transform="matrix(1 0 0 1 124.801 1276.6992)"><tspan x="0" y="0" fill="#FFFFFF" font-family="'ArialMT'" font-size="67">Mgmg</tspan><tspan x="0" y="80.4" fill="#FFFFFF" font-family="'ArialMT'" font-size="67">application</tspan></text>
<g>
	<g>
		<polyline fill="none" stroke="#000000" stroke-width="5" stroke-miterlimit="8" points="744.001,1291.1 873.6,1291.1 
			873.6,1017.5 934.884,1017.5 		"/>
		<g>
			<polygon points="929.778,1034.952 960.001,1017.5 929.778,1000.048 			"/>
		</g>
	</g>
</g>
</svg>
