<?xml version="1.0" encoding="UTF-8"?><svg xmlns="http://www.w3.org/2000/svg" viewBox="0 0 1195.2 417.6"><defs><style>.c,.d{fill:#4472c4;}.e{fill:#fff;}.f{fill:#c18b2a;}.g{fill:#107c10;}.h,.i,.d{stroke:#000;}.h,.d{stroke-miterlimit:10;stroke-width:2px;}.h,.j{fill:#8faad9;}.i{fill:none;stroke-miterlimit:8;stroke-width:3px;}.k{fill:#d83b01;}.l{fill:#ffb900;}.m{fill:#ed7d31;}</style></defs><g id="a"><g><ellipse class="j" cx="253.44" cy="151.2" rx="25.2" ry="50.4"/><path class="c" d="M501.84,201.6c13.92,0,25.2-22.56,25.2-50.4s-11.28-50.4-25.2-50.4H253.44c13.92,0,25.2,22.57,25.2,50.4s-11.28,50.4-25.2,50.4h248.4Z"/><path class="j" d="M522,201.6c13.92,0,25.2-22.56,25.2-50.4s-11.28-50.4-25.2-50.4h-20.16c13.92,0,25.2,22.57,25.2,50.4s-11.28,50.4-25.2,50.4h20.16Z"/></g><g><ellipse class="j" cx="259.2" cy="295.2" rx="39.6" ry="79.2"/><path class="c" d="M475.92,374.4c21.87,0,39.6-35.46,39.6-79.2s-17.73-79.2-39.6-79.2h-216.72c21.87,0,39.6,35.46,39.6,79.2s-17.73,79.2-39.6,79.2h216.72Z"/><path class="j" d="M507.6,374.4c21.87,0,39.6-35.46,39.6-79.2s-17.73-79.2-39.6-79.2h-31.68c21.87,0,39.6,35.46,39.6,79.2s-17.73,79.2-39.6,79.2h31.68Z"/></g></g><g id="b"><g><rect class="l" x="721" y="116.2" width="142" height="84.4"/><path d="M862,117.2v82.4h-140V117.2h140m2-2h-144v86.4h144V115.2h0Z"/></g><g><rect class="g" x="980.2" y="202.6" width="214" height="70"/><path d="M1193.2,203.6v68h-212v-68h212m2-2h-216v72h216v-72h0Z"/></g><g><rect class="f" x="749.8" y="130.6" width="84.4" height="55.6"/><path d="M833.2,131.6v53.6h-82.4v-53.6h82.4m2-2h-86.4v57.6h86.4v-57.6h0Z"/></g><g><rect class="l" x="721" y="260.2" width="142" height="113.2"/><path d="M862,261.2v111.2h-140v-111.2h140m2-2h-144v115.2h144v-115.2h0Z"/></g><g><rect class="f" x="749.8" y="274.6" width="84.4" height="84.4"/><path d="M833.2,275.6v82.4h-82.4v-82.4h82.4m2-2h-86.4v86.4h86.4v-86.4h0Z"/></g><g><rect class="k" x="1" y="73" width="84.4" height="55.6"/><path d="M84.4,74v53.6H2v-53.6H84.4m2-2H0v57.6H86.4v-57.6h0Z"/></g><g><rect class="m" x="15.4" y="87.4" width="55.6" height="26.8"/><path d="M70,88.4v24.8H16.4v-24.8h53.6m2-2H14.4v28.8h57.6v-28.8h0Z"/></g><ellipse class="h" cx="252" cy="129.6" rx="7.2" ry="14.4"/><path class="d" d="M436.75,144c3.98,0,7.2-6.45,7.2-14.4s-3.22-14.4-7.2-14.4H252c3.98,0,7.2,6.45,7.2,14.4s-3.22,14.4-7.2,14.4h184.75Z"/><path class="h" d="M442.51,144c3.98,0,7.2-6.45,7.2-14.4s-3.22-14.4-7.2-14.4h-5.76c3.98,0,7.2,6.45,7.2,14.4s-3.22,14.4-7.2,14.4h5.76Z"/><g><path class="e" d="M277.75,134.07v-8.95h3.38c.59,0,1.05,.03,1.36,.08,.44,.07,.81,.21,1.1,.42,.3,.21,.54,.49,.72,.86s.27,.78,.27,1.22c0,.76-.24,1.4-.73,1.93s-1.36,.79-2.62,.79h-2.29v3.64h-1.18Zm1.18-4.69h2.31c.76,0,1.31-.14,1.63-.43,.32-.28,.48-.69,.48-1.2,0-.37-.09-.69-.28-.96-.19-.27-.44-.44-.75-.53-.2-.05-.57-.08-1.1-.08h-2.29v3.2Z"/><path class="e" d="M290.18,133.27c-.41,.35-.8,.59-1.17,.73-.38,.14-.78,.21-1.21,.21-.71,0-1.26-.17-1.64-.52s-.57-.79-.57-1.33c0-.32,.07-.61,.22-.87,.14-.26,.33-.47,.57-.63,.23-.16,.5-.28,.79-.36,.22-.06,.54-.11,.98-.17,.89-.11,1.54-.23,1.96-.38,0-.15,0-.25,0-.29,0-.45-.1-.76-.31-.95-.28-.25-.7-.37-1.25-.37-.52,0-.9,.09-1.14,.27-.25,.18-.43,.5-.55,.96l-1.07-.15c.1-.46,.26-.83,.48-1.11s.55-.5,.97-.65c.42-.15,.91-.23,1.47-.23s1,.06,1.35,.2c.35,.13,.6,.29,.76,.49s.28,.45,.34,.75c.04,.19,.06,.53,.06,1.01v1.46c0,1.02,.02,1.67,.07,1.94,.05,.27,.14,.53,.28,.78h-1.15c-.11-.23-.19-.49-.22-.8Zm-.09-2.45c-.4,.16-1,.3-1.79,.42-.45,.07-.77,.14-.96,.22s-.33,.2-.43,.36c-.1,.16-.15,.33-.15,.52,0,.29,.11,.54,.33,.73s.55,.29,.97,.29,.8-.09,1.13-.28c.33-.19,.57-.44,.73-.76,.12-.25,.18-.61,.18-1.1v-.4Z"/><path class="e" d="M292.89,134.07v-6.48h.99v.98c.25-.46,.48-.76,.7-.91,.21-.15,.45-.22,.7-.22,.37,0,.75,.12,1.13,.35l-.38,1.02c-.27-.16-.54-.24-.81-.24-.24,0-.46,.07-.65,.22s-.33,.34-.41,.6c-.12,.39-.18,.82-.18,1.28v3.39h-1.1Z"/><path class="e" d="M299.46,133.09l.16,.97c-.31,.06-.59,.1-.83,.1-.4,0-.71-.06-.93-.19s-.37-.29-.46-.5c-.09-.21-.13-.64-.13-1.3v-3.73h-.81v-.85h.81v-1.61l1.09-.66v2.26h1.1v.85h-1.1v3.79c0,.31,.02,.51,.06,.6,.04,.09,.1,.16,.19,.21,.09,.05,.21,.08,.38,.08,.12,0,.28-.01,.48-.04Z"/><path class="e" d="M300.54,126.39v-1.26h1.1v1.26h-1.1Zm0,7.68v-6.48h1.1v6.48h-1.1Z"/><path class="e" d="M305.71,133.09l.16,.97c-.31,.06-.59,.1-.83,.1-.4,0-.71-.06-.93-.19s-.37-.29-.46-.5c-.09-.21-.13-.64-.13-1.3v-3.73h-.81v-.85h.81v-1.61l1.09-.66v2.26h1.1v.85h-1.1v3.79c0,.31,.02,.51,.06,.6,.04,.09,.1,.16,.19,.21,.09,.05,.21,.08,.38,.08,.12,0,.28-.01,.48-.04Z"/><path class="e" d="M306.79,126.39v-1.26h1.1v1.26h-1.1Zm0,7.68v-6.48h1.1v6.48h-1.1Z"/><path class="e" d="M309.15,130.83c0-1.2,.33-2.09,1-2.67,.56-.48,1.24-.72,2.04-.72,.89,0,1.62,.29,2.19,.88s.85,1.39,.85,2.42c0,.83-.13,1.49-.38,1.97-.25,.48-.61,.85-1.09,1.11s-1,.4-1.57,.4c-.91,0-1.64-.29-2.2-.87-.56-.58-.84-1.42-.84-2.51Zm1.13,0c0,.83,.18,1.45,.54,1.87s.82,.62,1.37,.62,1-.21,1.36-.62c.36-.42,.54-1.05,.54-1.9,0-.8-.18-1.41-.55-1.82-.36-.41-.82-.62-1.36-.62s-1,.21-1.37,.62-.54,1.03-.54,1.86Z"/><path class="e" d="M316.52,134.07v-6.48h.99v.92c.48-.71,1.16-1.07,2.06-1.07,.39,0,.75,.07,1.08,.21,.33,.14,.57,.33,.74,.55s.28,.5,.34,.81c.04,.2,.06,.56,.06,1.07v3.99h-1.1v-3.94c0-.45-.04-.78-.13-1-.08-.22-.24-.4-.45-.53s-.47-.2-.77-.2c-.47,0-.87,.15-1.21,.45s-.51,.86-.51,1.69v3.54h-1.1Z"/><path class="e" d="M330.77,134.07h-1.1v-7c-.26,.25-.61,.5-1.04,.76-.43,.25-.81,.44-1.16,.57v-1.06c.61-.29,1.15-.64,1.61-1.05,.46-.41,.79-.81,.98-1.2h.71v8.98Z"/></g><ellipse class="h" cx="252" cy="172.8" rx="7.2" ry="14.4"/><path class="d" d="M447.84,187.2c3.98,0,7.2-6.45,7.2-14.4s-3.22-14.4-7.2-14.4H252c3.98,0,7.2,6.45,7.2,14.4s-3.22,14.4-7.2,14.4h195.84Z"/><path class="h" d="M453.6,187.2c3.98,0,7.2-6.45,7.2-14.4s-3.22-14.4-7.2-14.4h-5.76c3.98,0,7.2,6.45,7.2,14.4s-3.22,14.4-7.2,14.4h5.76Z"/><g><path class="e" d="M277.75,177.28v-8.95h3.38c.59,0,1.05,.03,1.36,.09,.44,.07,.81,.21,1.1,.42,.3,.21,.54,.49,.72,.86s.27,.78,.27,1.22c0,.76-.24,1.41-.73,1.93-.48,.53-1.36,.79-2.62,.79h-2.29v3.64h-1.18Zm1.18-4.69h2.31c.76,0,1.31-.14,1.63-.43s.48-.69,.48-1.2c0-.38-.09-.7-.28-.96-.19-.27-.44-.44-.75-.53-.2-.05-.57-.08-1.1-.08h-2.29v3.2Z"/><path class="e" d="M290.18,176.48c-.41,.35-.8,.59-1.17,.73-.38,.14-.78,.21-1.21,.21-.71,0-1.26-.17-1.64-.52-.38-.35-.57-.79-.57-1.33,0-.32,.07-.61,.22-.87,.14-.26,.33-.47,.57-.63,.23-.16,.5-.28,.79-.36,.22-.06,.54-.11,.98-.17,.89-.11,1.54-.23,1.96-.38,0-.15,0-.25,0-.29,0-.45-.1-.76-.31-.95-.28-.25-.7-.37-1.25-.37-.52,0-.9,.09-1.14,.27-.25,.18-.43,.5-.55,.96l-1.07-.15c.1-.46,.26-.83,.48-1.11,.22-.28,.55-.5,.97-.65,.42-.15,.91-.23,1.47-.23s1,.07,1.35,.2c.35,.13,.6,.29,.76,.49,.16,.2,.28,.45,.34,.75,.04,.19,.06,.53,.06,1.01v1.46c0,1.02,.02,1.67,.07,1.94s.14,.53,.28,.78h-1.15c-.11-.23-.19-.49-.22-.8Zm-.09-2.45c-.4,.16-1,.3-1.79,.42-.45,.06-.77,.14-.96,.22-.19,.08-.33,.2-.43,.36-.1,.16-.15,.33-.15,.52,0,.29,.11,.54,.33,.73s.55,.29,.97,.29,.8-.09,1.13-.28c.33-.18,.57-.44,.73-.76,.12-.25,.18-.61,.18-1.1v-.4Z"/><path class="e" d="M292.89,177.28v-6.48h.99v.98c.25-.46,.48-.76,.7-.91,.21-.15,.45-.22,.7-.22,.37,0,.75,.12,1.13,.35l-.38,1.02c-.27-.16-.54-.24-.81-.24-.24,0-.46,.07-.65,.22s-.33,.34-.41,.6c-.12,.39-.18,.82-.18,1.28v3.39h-1.1Z"/><path class="e" d="M299.46,176.29l.16,.97c-.31,.07-.59,.1-.83,.1-.4,0-.71-.06-.93-.19-.22-.13-.37-.29-.46-.5-.09-.21-.13-.64-.13-1.3v-3.73h-.81v-.85h.81v-1.6l1.09-.66v2.26h1.1v.85h-1.1v3.79c0,.31,.02,.51,.06,.6,.04,.09,.1,.16,.19,.21,.09,.05,.21,.08,.38,.08,.12,0,.28-.01,.48-.04Z"/><path class="e" d="M300.54,169.59v-1.26h1.1v1.26h-1.1Zm0,7.68v-6.48h1.1v6.48h-1.1Z"/><path class="e" d="M305.71,176.29l.16,.97c-.31,.07-.59,.1-.83,.1-.4,0-.71-.06-.93-.19-.22-.13-.37-.29-.46-.5-.09-.21-.13-.64-.13-1.3v-3.73h-.81v-.85h.81v-1.6l1.09-.66v2.26h1.1v.85h-1.1v3.79c0,.31,.02,.51,.06,.6,.04,.09,.1,.16,.19,.21,.09,.05,.21,.08,.38,.08,.12,0,.28-.01,.48-.04Z"/><path class="e" d="M306.79,169.59v-1.26h1.1v1.26h-1.1Zm0,7.68v-6.48h1.1v6.48h-1.1Z"/><path class="e" d="M309.15,174.03c0-1.2,.33-2.09,1-2.67,.56-.48,1.24-.72,2.04-.72,.89,0,1.62,.29,2.19,.88s.85,1.39,.85,2.42c0,.83-.13,1.49-.38,1.97-.25,.48-.61,.85-1.09,1.11-.48,.26-1,.4-1.57,.4-.91,0-1.64-.29-2.2-.87-.56-.58-.84-1.42-.84-2.51Zm1.13,0c0,.83,.18,1.45,.54,1.86,.36,.41,.82,.62,1.37,.62s1-.21,1.36-.62c.36-.42,.54-1.05,.54-1.9,0-.8-.18-1.41-.55-1.82s-.82-.62-1.36-.62-1,.21-1.37,.62-.54,1.03-.54,1.86Z"/><path class="e" d="M316.52,177.28v-6.48h.99v.92c.48-.71,1.16-1.07,2.06-1.07,.39,0,.75,.07,1.08,.21,.33,.14,.57,.32,.74,.55,.16,.23,.28,.5,.34,.81,.04,.2,.06,.56,.06,1.07v3.99h-1.1v-3.94c0-.45-.04-.78-.13-1-.08-.22-.24-.4-.45-.53-.22-.13-.47-.2-.77-.2-.47,0-.87,.15-1.21,.45-.34,.3-.51,.86-.51,1.69v3.54h-1.1Z"/><path class="e" d="M332.41,176.22v1.06h-5.91c0-.26,.03-.52,.13-.76,.15-.4,.39-.8,.72-1.19,.33-.39,.81-.84,1.44-1.36,.97-.8,1.63-1.43,1.97-1.89s.51-.91,.51-1.32c0-.44-.16-.8-.47-1.1-.31-.3-.72-.45-1.22-.45-.53,0-.95,.16-1.27,.48s-.48,.76-.48,1.32l-1.13-.12c.08-.84,.37-1.48,.87-1.93,.5-.44,1.18-.66,2.03-.66s1.54,.24,2.04,.71c.5,.48,.75,1.07,.75,1.77,0,.36-.07,.71-.22,1.06s-.39,.71-.73,1.09c-.34,.38-.9,.91-1.69,1.57-.66,.55-1.08,.93-1.27,1.13s-.34,.4-.46,.6h4.39Z"/></g><ellipse class="h" cx="248.4" cy="259.2" rx="7.2" ry="14.4"/><path class="d" d="M404.35,273.6c3.98,0,7.2-6.45,7.2-14.4s-3.22-14.4-7.2-14.4H248.4c3.98,0,7.2,6.45,7.2,14.4s-3.22,14.4-7.2,14.4h155.95Z"/><path class="h" d="M410.11,273.6c3.98,0,7.2-6.45,7.2-14.4s-3.22-14.4-7.2-14.4h-5.76c3.98,0,7.2,6.45,7.2,14.4s-3.22,14.4-7.2,14.4h5.76Z"/><g><path class="e" d="M274.15,263.67v-8.95h3.38c.59,0,1.05,.03,1.36,.09,.44,.07,.81,.21,1.11,.42,.3,.21,.54,.49,.72,.86,.18,.37,.27,.78,.27,1.22,0,.76-.24,1.41-.73,1.93-.48,.53-1.36,.79-2.62,.79h-2.29v3.64h-1.18Zm1.18-4.69h2.31c.76,0,1.31-.14,1.63-.43s.48-.69,.48-1.2c0-.38-.09-.7-.28-.96-.19-.27-.44-.44-.75-.53-.2-.05-.57-.08-1.1-.08h-2.29v3.2Z"/><path class="e" d="M286.58,262.87c-.41,.35-.8,.59-1.17,.73s-.78,.21-1.21,.21c-.71,0-1.26-.17-1.64-.52-.38-.35-.57-.79-.57-1.33,0-.32,.07-.61,.22-.87,.14-.26,.33-.47,.57-.63,.23-.16,.5-.28,.79-.36,.22-.06,.54-.11,.98-.17,.89-.11,1.54-.23,1.96-.38,0-.15,0-.25,0-.29,0-.45-.1-.76-.31-.95-.28-.25-.7-.37-1.25-.37-.52,0-.9,.09-1.14,.27-.25,.18-.43,.5-.55,.96l-1.07-.15c.1-.46,.26-.83,.48-1.11,.22-.28,.55-.5,.97-.65,.42-.15,.91-.23,1.47-.23s1,.07,1.35,.2c.35,.13,.6,.29,.76,.49,.16,.2,.28,.45,.34,.75,.04,.19,.05,.53,.05,1.01v1.46c0,1.02,.02,1.67,.07,1.94s.14,.53,.28,.78h-1.15c-.11-.23-.19-.49-.22-.8Zm-.09-2.45c-.4,.16-1,.3-1.79,.42-.45,.06-.77,.14-.96,.22-.19,.08-.33,.2-.43,.36-.1,.16-.15,.33-.15,.52,0,.29,.11,.54,.33,.73s.55,.29,.97,.29,.8-.09,1.13-.28c.33-.18,.57-.44,.73-.76,.12-.25,.18-.61,.18-1.1v-.4Z"/><path class="e" d="M289.29,263.67v-6.48h.99v.98c.25-.46,.48-.76,.7-.91s.45-.22,.71-.22c.37,0,.75,.12,1.13,.35l-.38,1.02c-.27-.16-.54-.24-.81-.24-.24,0-.46,.07-.65,.22s-.33,.34-.41,.6c-.12,.39-.18,.82-.18,1.28v3.39h-1.1Z"/><path class="e" d="M295.86,262.69l.16,.97c-.31,.07-.59,.1-.83,.1-.4,0-.71-.06-.93-.19-.22-.13-.38-.29-.46-.5-.09-.21-.13-.64-.13-1.3v-3.73h-.81v-.85h.81v-1.6l1.09-.66v2.26h1.1v.85h-1.1v3.79c0,.31,.02,.51,.06,.6,.04,.09,.1,.16,.19,.21s.21,.08,.38,.08c.12,0,.28-.01,.48-.04Z"/><path class="e" d="M296.94,255.99v-1.26h1.1v1.26h-1.1Zm0,7.68v-6.48h1.1v6.48h-1.1Z"/><path class="e" d="M302.11,262.69l.16,.97c-.31,.07-.59,.1-.83,.1-.4,0-.71-.06-.93-.19-.22-.13-.37-.29-.46-.5-.09-.21-.13-.64-.13-1.3v-3.73h-.81v-.85h.81v-1.6l1.09-.66v2.26h1.1v.85h-1.1v3.79c0,.31,.02,.51,.06,.6,.04,.09,.1,.16,.19,.21,.09,.05,.21,.08,.38,.08,.12,0,.28-.01,.48-.04Z"/><path class="e" d="M303.19,255.99v-1.26h1.1v1.26h-1.1Zm0,7.68v-6.48h1.1v6.48h-1.1Z"/><path class="e" d="M305.55,260.43c0-1.2,.33-2.09,1-2.67,.56-.48,1.24-.72,2.04-.72,.89,0,1.62,.29,2.19,.88s.85,1.39,.85,2.42c0,.83-.13,1.49-.38,1.97s-.61,.85-1.09,1.11c-.48,.26-1,.4-1.57,.4-.91,0-1.64-.29-2.2-.87s-.84-1.42-.84-2.51Zm1.13,0c0,.83,.18,1.45,.54,1.86,.36,.41,.82,.62,1.37,.62s1-.21,1.36-.62,.54-1.05,.54-1.9c0-.8-.18-1.41-.55-1.82s-.82-.62-1.36-.62-1,.21-1.37,.62-.54,1.03-.54,1.86Z"/><path class="e" d="M312.91,263.67v-6.48h.99v.92c.48-.71,1.16-1.07,2.06-1.07,.39,0,.75,.07,1.08,.21,.33,.14,.57,.32,.74,.55,.16,.23,.28,.5,.34,.81,.04,.2,.06,.56,.06,1.07v3.99h-1.1v-3.94c0-.45-.04-.78-.13-1-.08-.22-.24-.4-.46-.53-.22-.13-.47-.2-.77-.2-.47,0-.87,.15-1.21,.45-.34,.3-.51,.86-.51,1.69v3.54h-1.1Z"/><path class="e" d="M323.04,261.31l1.1-.15c.13,.62,.34,1.07,.64,1.35,.3,.27,.67,.41,1.11,.41,.52,0,.95-.18,1.31-.54,.36-.36,.53-.8,.53-1.33s-.17-.92-.5-1.25c-.33-.33-.75-.49-1.26-.49-.21,0-.47,.04-.78,.12l.12-.96c.07,0,.13,.01,.18,.01,.47,0,.89-.12,1.26-.37s.56-.62,.56-1.13c0-.4-.14-.74-.41-1s-.62-.4-1.06-.4-.78,.13-1.07,.4c-.28,.27-.47,.67-.55,1.21l-1.1-.2c.13-.74,.44-1.31,.92-1.71,.48-.41,1.07-.61,1.78-.61,.49,0,.94,.1,1.35,.31,.41,.21,.73,.5,.94,.86s.33,.75,.33,1.15-.1,.74-.31,1.06c-.21,.32-.52,.57-.92,.76,.53,.12,.94,.38,1.23,.76,.29,.38,.44,.87,.44,1.44,0,.78-.28,1.44-.85,1.99-.57,.54-1.29,.81-2.16,.81-.79,0-1.44-.23-1.96-.7-.52-.47-.82-1.07-.89-1.82Z"/></g><ellipse class="h" cx="248.4" cy="302.4" rx="7.2" ry="14.4"/><path class="d" d="M456.17,316.8c3.98,0,7.2-6.45,7.2-14.4s-3.22-14.4-7.2-14.4H248.4c3.98,0,7.2,6.45,7.2,14.4s-3.22,14.4-7.2,14.4h207.77Z"/><path class="h" d="M461.93,316.8c3.98,0,7.2-6.45,7.2-14.4s-3.22-14.4-7.2-14.4h-5.76c3.98,0,7.2,6.45,7.2,14.4s-3.22,14.4-7.2,14.4h5.76Z"/><g><path class="e" d="M274.15,306.87v-8.95h3.38c.59,0,1.05,.03,1.36,.09,.44,.07,.81,.21,1.11,.42,.3,.21,.54,.49,.72,.86,.18,.37,.27,.78,.27,1.22,0,.76-.24,1.41-.73,1.93-.48,.53-1.36,.79-2.62,.79h-2.29v3.64h-1.18Zm1.18-4.69h2.31c.76,0,1.31-.14,1.63-.43s.48-.69,.48-1.2c0-.38-.09-.7-.28-.96-.19-.27-.44-.44-.75-.53-.2-.05-.57-.08-1.1-.08h-2.29v3.2Z"/><path class="e" d="M286.58,306.07c-.41,.35-.8,.59-1.17,.73s-.78,.21-1.21,.21c-.71,0-1.26-.17-1.64-.52-.38-.35-.57-.79-.57-1.33,0-.32,.07-.61,.22-.87,.14-.26,.33-.47,.57-.63,.23-.16,.5-.28,.79-.36,.22-.06,.54-.11,.98-.17,.89-.11,1.54-.23,1.96-.38,0-.15,0-.25,0-.29,0-.45-.1-.76-.31-.95-.28-.25-.7-.37-1.25-.37-.52,0-.9,.09-1.14,.27-.25,.18-.43,.5-.55,.96l-1.07-.15c.1-.46,.26-.83,.48-1.11,.22-.28,.55-.5,.97-.65,.42-.15,.91-.23,1.47-.23s1,.07,1.35,.2c.35,.13,.6,.29,.76,.49,.16,.2,.28,.45,.34,.75,.04,.19,.05,.53,.05,1.01v1.46c0,1.02,.02,1.67,.07,1.94s.14,.53,.28,.78h-1.15c-.11-.23-.19-.49-.22-.8Zm-.09-2.45c-.4,.16-1,.3-1.79,.42-.45,.06-.77,.14-.96,.22-.19,.08-.33,.2-.43,.36-.1,.16-.15,.33-.15,.52,0,.29,.11,.54,.33,.73s.55,.29,.97,.29,.8-.09,1.13-.28c.33-.18,.57-.44,.73-.76,.12-.25,.18-.61,.18-1.1v-.4Z"/><path class="e" d="M289.29,306.87v-6.48h.99v.98c.25-.46,.48-.76,.7-.91s.45-.22,.71-.22c.37,0,.75,.12,1.13,.35l-.38,1.02c-.27-.16-.54-.24-.81-.24-.24,0-.46,.07-.65,.22s-.33,.34-.41,.6c-.12,.39-.18,.82-.18,1.28v3.39h-1.1Z"/><path class="e" d="M295.86,305.89l.16,.97c-.31,.07-.59,.1-.83,.1-.4,0-.71-.06-.93-.19-.22-.13-.38-.29-.46-.5-.09-.21-.13-.64-.13-1.3v-3.73h-.81v-.85h.81v-1.6l1.09-.66v2.26h1.1v.85h-1.1v3.79c0,.31,.02,.51,.06,.6,.04,.09,.1,.16,.19,.21s.21,.08,.38,.08c.12,0,.28-.01,.48-.04Z"/><path class="e" d="M296.94,299.19v-1.26h1.1v1.26h-1.1Zm0,7.68v-6.48h1.1v6.48h-1.1Z"/><path class="e" d="M302.11,305.89l.16,.97c-.31,.07-.59,.1-.83,.1-.4,0-.71-.06-.93-.19-.22-.13-.37-.29-.46-.5-.09-.21-.13-.64-.13-1.3v-3.73h-.81v-.85h.81v-1.6l1.09-.66v2.26h1.1v.85h-1.1v3.79c0,.31,.02,.51,.06,.6,.04,.09,.1,.16,.19,.21,.09,.05,.21,.08,.38,.08,.12,0,.28-.01,.48-.04Z"/><path class="e" d="M303.19,299.19v-1.26h1.1v1.26h-1.1Zm0,7.68v-6.48h1.1v6.48h-1.1Z"/><path class="e" d="M305.55,303.63c0-1.2,.33-2.09,1-2.67,.56-.48,1.24-.72,2.04-.72,.89,0,1.62,.29,2.19,.88s.85,1.39,.85,2.42c0,.83-.13,1.49-.38,1.97s-.61,.85-1.09,1.11c-.48,.26-1,.4-1.57,.4-.91,0-1.64-.29-2.2-.87s-.84-1.42-.84-2.51Zm1.13,0c0,.83,.18,1.45,.54,1.86,.36,.41,.82,.62,1.37,.62s1-.21,1.36-.62,.54-1.05,.54-1.9c0-.8-.18-1.41-.55-1.82s-.82-.62-1.36-.62-1,.21-1.37,.62-.54,1.03-.54,1.86Z"/><path class="e" d="M312.91,306.87v-6.48h.99v.92c.48-.71,1.16-1.07,2.06-1.07,.39,0,.75,.07,1.08,.21,.33,.14,.57,.32,.74,.55,.16,.23,.28,.5,.34,.81,.04,.2,.06,.56,.06,1.07v3.99h-1.1v-3.94c0-.45-.04-.78-.13-1-.08-.22-.24-.4-.46-.53-.22-.13-.47-.2-.77-.2-.47,0-.87,.15-1.21,.45-.34,.3-.51,.86-.51,1.69v3.54h-1.1Z"/><path class="e" d="M326.56,306.87v-2.14h-3.88v-1.01l4.08-5.8h.9v5.8h1.21v1.01h-1.21v2.14h-1.1Zm0-3.15v-4.03l-2.8,4.03h2.8Z"/></g><ellipse class="h" cx="248.4" cy="345.6" rx="7.2" ry="14.4"/><path class="d" d="M494.64,360c3.98,0,7.2-6.45,7.2-14.4s-3.22-14.4-7.2-14.4H248.4c3.98,0,7.2,6.45,7.2,14.4s-3.22,14.4-7.2,14.4h246.24Z"/><path class="h" d="M500.4,360c3.98,0,7.2-6.45,7.2-14.4s-3.22-14.4-7.2-14.4h-5.76c3.98,0,7.2,6.45,7.2,14.4s-3.22,14.4-7.2,14.4h5.76Z"/><g><path class="e" d="M274.15,350.07v-8.95h3.38c.59,0,1.05,.03,1.36,.08,.44,.07,.81,.21,1.11,.42,.3,.21,.54,.49,.72,.86,.18,.37,.27,.78,.27,1.22,0,.76-.24,1.4-.73,1.93s-1.36,.79-2.62,.79h-2.29v3.64h-1.18Zm1.18-4.69h2.31c.76,0,1.31-.14,1.63-.43,.32-.28,.48-.69,.48-1.2,0-.37-.09-.69-.28-.96-.19-.27-.44-.44-.75-.53-.2-.05-.57-.08-1.1-.08h-2.29v3.2Z"/><path class="e" d="M286.58,349.27c-.41,.35-.8,.59-1.17,.73-.38,.14-.78,.21-1.21,.21-.71,0-1.26-.17-1.64-.52-.38-.35-.57-.79-.57-1.33,0-.32,.07-.61,.22-.87,.14-.26,.33-.47,.57-.63,.23-.16,.5-.28,.79-.36,.22-.06,.54-.11,.98-.17,.89-.11,1.54-.23,1.96-.38,0-.15,0-.25,0-.29,0-.45-.1-.76-.31-.95-.28-.25-.7-.37-1.25-.37-.52,0-.9,.09-1.14,.27-.25,.18-.43,.5-.55,.96l-1.07-.15c.1-.46,.26-.83,.48-1.11s.55-.5,.97-.65,.91-.23,1.47-.23,1,.06,1.35,.2c.35,.13,.6,.29,.76,.49,.16,.2,.28,.45,.34,.75,.04,.19,.05,.53,.05,1.01v1.46c0,1.02,.02,1.67,.07,1.94,.05,.27,.14,.53,.28,.78h-1.15c-.11-.23-.19-.49-.22-.8Zm-.09-2.45c-.4,.16-1,.3-1.79,.42-.45,.07-.77,.14-.96,.22-.19,.08-.33,.2-.43,.36-.1,.16-.15,.33-.15,.52,0,.29,.11,.54,.33,.73s.55,.29,.97,.29,.8-.09,1.13-.28c.33-.19,.57-.44,.73-.76,.12-.25,.18-.61,.18-1.1v-.4Z"/><path class="e" d="M289.29,350.07v-6.48h.99v.98c.25-.46,.48-.76,.7-.91s.45-.22,.71-.22c.37,0,.75,.12,1.13,.35l-.38,1.02c-.27-.16-.54-.24-.81-.24-.24,0-.46,.07-.65,.22s-.33,.34-.41,.6c-.12,.39-.18,.82-.18,1.28v3.39h-1.1Z"/><path class="e" d="M295.86,349.09l.16,.97c-.31,.06-.59,.1-.83,.1-.4,0-.71-.06-.93-.19s-.38-.29-.46-.5c-.09-.21-.13-.64-.13-1.3v-3.73h-.81v-.85h.81v-1.61l1.09-.66v2.26h1.1v.85h-1.1v3.79c0,.31,.02,.51,.06,.6,.04,.09,.1,.16,.19,.21,.09,.05,.21,.08,.38,.08,.12,0,.28-.01,.48-.04Z"/><path class="e" d="M296.94,342.39v-1.26h1.1v1.26h-1.1Zm0,7.68v-6.48h1.1v6.48h-1.1Z"/><path class="e" d="M302.11,349.09l.16,.97c-.31,.06-.59,.1-.83,.1-.4,0-.71-.06-.93-.19s-.37-.29-.46-.5c-.09-.21-.13-.64-.13-1.3v-3.73h-.81v-.85h.81v-1.61l1.09-.66v2.26h1.1v.85h-1.1v3.79c0,.31,.02,.51,.06,.6,.04,.09,.1,.16,.19,.21,.09,.05,.21,.08,.38,.08,.12,0,.28-.01,.48-.04Z"/><path class="e" d="M303.19,342.39v-1.26h1.1v1.26h-1.1Zm0,7.68v-6.48h1.1v6.48h-1.1Z"/><path class="e" d="M305.55,346.83c0-1.2,.33-2.09,1-2.67,.56-.48,1.24-.72,2.04-.72,.89,0,1.62,.29,2.19,.88s.85,1.39,.85,2.42c0,.83-.13,1.49-.38,1.97-.25,.48-.61,.85-1.09,1.11-.48,.26-1,.4-1.57,.4-.91,0-1.64-.29-2.2-.87-.56-.58-.84-1.42-.84-2.51Zm1.13,0c0,.83,.18,1.45,.54,1.87s.82,.62,1.37,.62,1-.21,1.36-.62,.54-1.05,.54-1.9c0-.8-.18-1.41-.55-1.82-.36-.41-.82-.62-1.36-.62s-1,.21-1.37,.62-.54,1.03-.54,1.86Z"/><path class="e" d="M312.91,350.07v-6.48h.99v.92c.48-.71,1.16-1.07,2.06-1.07,.39,0,.75,.07,1.08,.21,.33,.14,.57,.33,.74,.55,.16,.23,.28,.5,.34,.81,.04,.2,.06,.56,.06,1.07v3.99h-1.1v-3.94c0-.45-.04-.78-.13-1-.08-.22-.24-.4-.46-.53s-.47-.2-.77-.2c-.47,0-.87,.15-1.21,.45s-.51,.86-.51,1.69v3.54h-1.1Z"/><path class="e" d="M323.03,347.73l1.15-.1c.09,.56,.28,.98,.6,1.27,.31,.28,.69,.42,1.13,.42,.53,0,.98-.2,1.34-.6s.55-.93,.55-1.59-.18-1.12-.53-1.48c-.35-.36-.81-.54-1.38-.54-.35,0-.67,.08-.96,.24-.29,.16-.51,.37-.67,.62l-1.03-.13,.87-4.6h4.45v1.05h-3.57l-.48,2.4c.54-.37,1.1-.56,1.69-.56,.78,0,1.44,.27,1.98,.81,.54,.54,.81,1.24,.81,2.09s-.24,1.51-.71,2.1c-.57,.72-1.36,1.09-2.35,1.09-.81,0-1.48-.23-1.99-.68-.51-.46-.81-1.06-.88-1.81Z"/></g><g><path class="i" d="M72,100.8h66.4c11,0,20,9,20,20v118.4c0,11,9,20,20,20h47.73"/><polygon points="223.07 269.67 241.2 259.2 223.07 248.73 223.07 269.67"/></g><g><rect class="k" x="1" y="1" width="84.4" height="55.6"/><path d="M84.4,2V55.6H2V2H84.4m2-2H0V57.6H86.4V0h0Z"/></g><g><rect class="m" x="15.4" y="15.4" width="55.6" height="26.8"/><path d="M70,16.4v24.8H16.4V16.4h53.6m2-2H14.4v28.8h57.6V14.4h0Z"/></g><g><path class="i" d="M72,28.8h109.6c11,0,20,9,20,20v60.8c0,11,9,20,20,20h8.13"/><polygon points="226.67 140.07 244.8 129.6 226.67 119.13 226.67 140.07"/></g><g><rect class="k" x="1" y="145" width="84.4" height="55.6"/><path d="M84.4,146v53.6H2v-53.6H84.4m2-2H0v57.6H86.4v-57.6h0Z"/></g><g><rect class="m" x="15.4" y="159.4" width="55.6" height="26.8"/><path d="M70,160.4v24.8H16.4v-24.8h53.6m2-2H14.4v28.8h57.6v-28.8h0Z"/></g><g><line class="i" x1="72" y1="172.8" x2="229.73" y2="172.8"/><polygon points="226.67 183.27 244.8 172.8 226.67 162.33 226.67 183.27"/></g><g><rect class="k" x="1" y="217" width="84.4" height="55.6"/><path d="M84.4,218v53.6H2v-53.6H84.4m2-2H0v57.6H86.4v-57.6h0Z"/></g><g><rect class="m" x="15.4" y="231.4" width="55.6" height="26.8"/><path d="M70,232.4v24.8H16.4v-24.8h53.6m2-2H14.4v28.8h57.6v-28.8h0Z"/></g><g><path class="i" d="M72,244.8h52c11,0,23.24,3.24,27.2,7.2,3.96,3.96,16.2,7.2,27.2,7.2h47.73"/><polygon points="223.07 269.67 241.2 259.2 223.07 248.73 223.07 269.67"/></g><g><rect class="k" x="1" y="289" width="84.4" height="55.6"/><path d="M84.4,290v53.6H2v-53.6H84.4m2-2H0v57.6H86.4v-57.6h0Z"/></g><g><rect class="m" x="15.4" y="303.4" width="55.6" height="26.8"/><path d="M70,304.4v24.8H16.4v-24.8h53.6m2-2H14.4v28.8h57.6v-28.8h0Z"/></g><g><path class="i" d="M72,316.8h23.2c11,0,20-3.24,20-7.2,0-3.96,9-7.2,20-7.2h90.93"/><polygon points="223.07 312.87 241.2 302.4 223.07 291.93 223.07 312.87"/></g><g><rect class="k" x="1" y="361" width="84.4" height="55.6"/><path d="M84.4,362v53.6H2v-53.6H84.4m2-2H0v57.6H86.4v-57.6h0Z"/></g><g><rect class="m" x="15.4" y="375.4" width="55.6" height="26.8"/><path d="M70,376.4v24.8H16.4v-24.8h53.6m2-2H14.4v28.8h57.6v-28.8h0Z"/></g><g><path class="i" d="M72,388.8h52c11,0,20-9,20-20v-3.2c0-11,9-20,20-20h62.13"/><polygon points="223.07 356.07 241.2 345.6 223.07 335.13 223.07 356.07"/></g><g><path class="i" d="M449.71,129.6h178.29c11,0,23.24,3.24,27.2,7.2,3.96,3.96,16.2,7.2,27.2,7.2h51.33"/><polygon points="730.67 154.47 748.8 144 730.67 133.53 730.67 154.47"/></g><g><path class="i" d="M417.31,259.2h239.49c11,0,20,6.48,20,14.4s9,14.4,20,14.4h36.93"/><polygon points="730.67 298.47 748.8 288 730.67 277.53 730.67 298.47"/></g><g><path class="i" d="M460.8,172.8h181.6c11,0,29,0,40,0h51.33"/><polygon points="730.67 183.27 748.8 172.8 730.67 162.33 730.67 183.27"/></g><g><path class="i" d="M469.13,302.4h187.67c11,0,20,3.24,20,7.2s9,7.2,20,7.2h36.93"/><polygon points="730.67 327.27 748.8 316.8 730.67 306.33 730.67 327.27"/></g><g><line class="i" x1="507.6" y1="345.6" x2="733.73" y2="345.6"/><polygon points="730.67 356.07 748.8 345.6 730.67 335.13 730.67 356.07"/></g><g><path class="i" d="M864,158.4h52c11,0,20,9,20,20v17.6c0,11,9,20,20,20h8.13"/><polygon points="961.07 226.47 979.2 216 961.07 205.53 961.07 226.47"/></g><g><path class="i" d="M835.2,316.8h80.8c11,0,20-9,20-20v-17.6c0-11,9-20,20-20h8.13"/><polygon points="961.07 269.67 979.2 259.2 961.07 248.73 961.07 269.67"/></g></g></svg>