<?xml version="1.0" encoding="UTF-8"?><svg id="a" xmlns="http://www.w3.org/2000/svg" viewBox="0 0 3733.74 708.1"><defs><style>.b,.c,.d{fill:#fff;}.e{fill:#c18b2a;}.f{fill:#107c10;}.c,.g,.h,.i,.d{font-family:ArialMT, Arial;}.c,.i{font-size:57px;}.j{fill:#d83b01;}.k{fill:#8faad9;}.k,.l,.m{stroke:#000;}.k,.m{stroke-miterlimit:10;stroke-width:3px;}.g{font-size:38px;}.n{fill:#ffb900;}.o{fill:#ed7d31;}.h{font-size:50px;}.l{fill:none;stroke-miterlimit:8;stroke-width:5px;}.m{fill:#4472c4;}.d{font-size:67px;}.p{letter-spacing:-.06em;}</style></defs><g><polygon class="n" points="1558.16 561.14 1558.16 77.46 2905.86 77.46 2909.95 561.14 1558.16 561.14"/><path d="M2902.93,80.42l4.04,477.75H1561.12V80.42h1341.8m5.87-5.92H1555.2v489.6h1357.74l-4.14-489.6h0Z"/></g><g><polygon class="f" points="3055.8 301.9 3055.8 91.9 3730.68 91.9 3726.66 301.9 3055.8 301.9"/><path d="M3727.62,94.9l-3.91,204h-664.91V94.9h668.82m6.12-6h-680.94v216h676.8l4.14-216h0Z"/></g><ellipse class="k" cx="954.54" cy="549.7" rx="72" ry="144"/><path class="m" d="M1343.34,693.7c39.76,0,72-64.47,72-144s-32.24-144-72-144h-388.8c39.76,0,72,64.47,72,144s-32.24,144-72,144h388.8Z"/><path class="k" d="M1400.94,693.7c39.76,0,72-64.47,72-144s-32.24-144-72-144h-57.6c39.76,0,72,64.47,72,144s-32.24,144-72,144h57.6Z"/><g><rect class="e" x="2407.8" y="135.1" width="426" height="138"/><path d="M2830.8,138.1v132h-420V138.1h420m6-6h-432v144h432V132.1h0Z"/></g><g><rect class="e" x="1947" y="207.1" width="314.94" height="224.4"/><path d="M2258.94,210.1v218.4h-308.94V210.1h308.94m6-6h-320.94v230.4h320.94V204.1h0Z"/></g><g><path class="l" d="M2264.94,304.9h37.86c16.57,0,30-13.43,30-30v-12c0-16.57,13.43-30,30-30h16.88"/><polygon points="2374.58 250.35 2404.8 232.9 2374.58 215.45 2374.58 250.35"/></g><g><rect class="e" x="1615.8" y="207.1" width="253.2" height="224.4"/><path d="M1866,210.1v218.4h-247.2V210.1h247.2m6-6h-259.2v230.4h259.2V204.1h0Z"/></g><g><line class="l" x1="1867.86" y1="319.3" x2="1918.88" y2="319.3"/><polygon points="1913.78 336.75 1944 319.3 1913.78 301.85 1913.78 336.75"/></g><g><line class="l" x1="2836.8" y1="232.9" x2="3027.68" y2="232.9"/><polygon points="3022.58 250.35 3052.8 232.9 3022.58 215.45 3022.58 250.35"/></g><g><path class="l" d="M1296,405.7v-56.4c0-16.57,13.43-30,30-30h261.68"/><polygon points="1582.58 336.75 1612.8 319.3 1582.58 301.85 1582.58 336.75"/></g><g><rect class="j" x="3" y="466.3" width="714" height="238.8"/><path d="M714,469.3v232.8H6v-232.8H714m6-6H0v244.8H720v-244.8h0Z"/></g><g><g><rect class="o" x="463.8" y="509.5" width="210" height="138"/><path d="M670.8,512.5v132h-204v-132h204m6-6h-216v144h216v-144h0Z"/></g><text class="d" transform="translate(499.56 607.3)"><tspan x="0" y="0">SDK</tspan></text></g><text class="h" transform="translate(1678.47 307.2)"><tspan x="0" y="0">Event</tspan><tspan x="-18.07" y="60">Reader</tspan></text><text class="i" transform="translate(1586.99 145.31)"><tspan x="0" y="0">Aggregator</tspan></text><text class="h" transform="translate(2000.96 307.2)"><tspan x="0" y="0">Business</tspan><tspan x="41.67" y="60">Logic</tspan></text><text class="h" transform="translate(2541.63 222)"><tspan x="0" y="0">Emitter</tspan></text><text class="c" transform="translate(3152.7 183.11)"><tspan x="0" y="0">Azure Marketplace</tspan><tspan x="73.78" y="68.4">Metering</tspan><tspan class="p" x="295.55" y="68.4"> </tspan><tspan x="308.24" y="68.4">API</tspan></text><text class="c" transform="translate(39 571.91)"><tspan x="0" y="0">Sending</tspan><tspan x="0" y="68.4">application</tspan></text><text class="c" transform="translate(1040.67 663.71)"><tspan x="0" y="0">Event Hubs</tspan></text><g><polygon class="b" points="1152.24 275.1 951.4 275.1 951.4 205.1 1266.2 205.1 1266.2 275.1 1221.59 275.1 1290.94 344.45 1152.24 275.1"/><path d="M1265.2,206.1v68h-46.03l3.41,3.41,63.29,63.29-132.98-66.49-.42-.21h-200.07v-68h312.8m2-2h-316.8v72h201.6l144,72-72-72h43.2v-72h0Z"/></g><text class="g" transform="translate(993.7 253.7)"><tspan x="0" y="0">Event Stream</tspan></text><g><polygon class="b" points="3025 606.3 3025 507.5 3068.74 507.5 2959.14 260.9 3109.84 507.5 3339.8 507.5 3339.8 606.3 3025 606.3"/><path d="M2966.28,274.5l142.42,233.05,.58,.96h229.52v96.8h-312.8v-96.8h44.28l-1.25-2.81-102.75-231.19m-14.28-27.2l115.2,259.2h-43.2v100.8h316.8v-100.8h-230.4l-158.4-259.2h0Z"/></g><text class="g" transform="translate(3066.23 570.5)"><tspan x="0" y="0">API Requests</tspan></text><g><path class="l" d="M2707.2,132.1V27.5c0-13.81-11.19-25-25-25H813.6c-11.93,0-21.6,9.67-21.6,21.6V484.9c0,11.93,9.67,21.6,21.6,21.6h39.68"/><polygon points="848.18 523.95 878.4 506.5 848.18 489.05 848.18 523.95"/></g><g><line class="l" x1="676.8" y1="578.5" x2="857.42" y2="578.5"/><polygon points="852.32 595.95 882.54 578.5 852.32 561.05 852.32 595.95"/></g><g><g><polygon class="b" points="951.57 159.73 951.57 90.07 1009.88 90.07 1063.49 21.49 1049.78 90.07 1381.23 90.07 1381.23 159.73 951.57 159.73"/><path d="M1061.38,26.09l-12.47,62.35-.56,2.79h331.71v67.33h-427.33V91.24h57.71l.7-.9,50.23-64.25m4.22-9.19l-56.29,72h-58.91v72h432V88.9h-331.2l14.4-72h0Z"/></g><text class="g" transform="translate(981.58 138.5)"><tspan x="0" y="0">API Response Events</tspan></text></g><line class="l" x1="2404.8" y1="232.9" x2="2836.8" y2="232.9"/><g><path class="l" d="M3052.8,232.9h20.2c12.7,0,23-10.3,23-23v-26.8c0-12.26-9.94-22.2-22.2-22.2h-211.88"/><polygon points="2867.02 143.45 2836.8 160.9 2867.02 178.35 2867.02 143.45"/></g><path class="l" d="M2836.8,160.9h-113.9c-8.67,0-15.7-7.03-15.7-15.7v-13.1"/><g><path class="l" d="M878.4,506.5h387.6c16.57,0,30-13.43,30-30v-39.79"/><polygon points="1306.17 443.64 1296 405.7 1285.83 443.64 1306.17 443.64"/></g><g><path class="l" d="M878.4,578.5h387.6c16.57,0,30-13.43,30-30v-111.79"/><polygon points="1306.17 443.64 1296 405.7 1285.83 443.64 1306.17 443.64"/></g></svg>