<?xml version="1.0" encoding="UTF-8"?><svg id="Layer_1" xmlns="http://www.w3.org/2000/svg" viewBox="0 0 614.77 686.77"><defs><style>.cls-1,.cls-2{fill:#fff;}.cls-3{stroke-dasharray:0 0 10.49 10.49;}.cls-3,.cls-4,.cls-5,.cls-6,.cls-7,.cls-8,.cls-9,.cls-10,.cls-2,.cls-11,.cls-12{stroke-miterlimit:10;}.cls-3,.cls-4,.cls-5,.cls-6,.cls-7,.cls-8,.cls-9,.cls-10,.cls-11,.cls-12{fill:none;}.cls-3,.cls-5,.cls-2,.cls-11{stroke:#000;stroke-width:3px;}.cls-3,.cls-2,.cls-11{stroke-linecap:round;}.cls-4,.cls-6,.cls-7,.cls-8,.cls-9,.cls-10,.cls-12{stroke:gray;stroke-width:4px;}.cls-13{fill:#e6e6e6;}.cls-6{stroke-dasharray:0 0 12.49 12.49;}.cls-7{stroke-dasharray:0 0 12.3 12.3;}.cls-8{stroke-dasharray:0 0 11.5 11.5;}.cls-9{stroke-dasharray:0 0 11.82 11.82;}.cls-10{stroke-dasharray:0 0 11.75 11.75;}.cls-2{stroke-dasharray:0 0 12 18;}.cls-12{stroke-dasharray:0 0 12.07 12.07;}</style></defs><rect class="cls-1" width="614.77" height="686.77"/><g><rect class="cls-13" x="16.62" y="77.54" width="199.38" height="188.31"/><g><polyline class="cls-4" points="216 83.54 216 77.54 210 77.54"/><line class="cls-6" x1="197.51" y1="77.54" x2="28.86" y2="77.54"/><polyline class="cls-4" points="22.62 77.54 16.62 77.54 16.62 83.54"/><line class="cls-10" x1="16.62" y1="95.29" x2="16.62" y2="253.97"/><polyline class="cls-4" points="16.62 259.85 16.62 265.85 22.62 265.85"/><line class="cls-6" x1="35.11" y1="265.85" x2="203.75" y2="265.85"/><polyline class="cls-4" points="210 265.85 216 265.85 216 259.85"/><line class="cls-10" x1="216" y1="248.09" x2="216" y2="89.42"/></g></g><g><rect class="cls-13" x="337.85" y="77.54" width="260.31" height="138.46"/><g><polyline class="cls-4" points="598.15 83.54 598.15 77.54 592.15 77.54"/><line class="cls-9" x1="580.33" y1="77.54" x2="349.76" y2="77.54"/><polyline class="cls-4" points="343.85 77.54 337.85 77.54 337.85 83.54"/><line class="cls-8" x1="337.85" y1="95.03" x2="337.85" y2="204.25"/><polyline class="cls-4" points="337.85 210 337.85 216 343.85 216"/><line class="cls-9" x1="355.67" y1="216" x2="586.24" y2="216"/><polyline class="cls-4" points="592.15 216 598.15 216 598.15 210"/><line class="cls-8" x1="598.15" y1="198.5" x2="598.15" y2="89.29"/></g></g><g><rect class="cls-13" x="16.62" y="282.46" width="199.38" height="188.31"/><g><polyline class="cls-4" points="216 288.46 216 282.46 210 282.46"/><line class="cls-6" x1="197.51" y1="282.46" x2="28.86" y2="282.46"/><polyline class="cls-4" points="22.62 282.46 16.62 282.46 16.62 288.46"/><line class="cls-10" x1="16.62" y1="300.22" x2="16.62" y2="458.89"/><polyline class="cls-4" points="16.62 464.77 16.62 470.77 22.62 470.77"/><line class="cls-6" x1="35.11" y1="470.77" x2="203.75" y2="470.77"/><polyline class="cls-4" points="210 470.77 216 470.77 216 464.77"/><line class="cls-10" x1="216" y1="453.02" x2="216" y2="294.34"/></g></g><g><rect class="cls-13" x="260.31" y="265.85" width="337.85" height="393.23"/><g><polyline class="cls-4" points="598.15 271.85 598.15 265.85 592.15 265.85"/><line class="cls-12" x1="580.09" y1="265.85" x2="272.34" y2="265.85"/><polyline class="cls-4" points="266.31 265.85 260.31 265.85 260.31 271.85"/><line class="cls-7" x1="260.31" y1="284.14" x2="260.31" y2="646.93"/><polyline class="cls-4" points="260.31 653.08 260.31 659.08 266.31 659.08"/><line class="cls-12" x1="278.38" y1="659.08" x2="586.12" y2="659.08"/><polyline class="cls-4" points="592.15 659.08 598.15 659.08 598.15 653.08"/><line class="cls-7" x1="598.15" y1="640.78" x2="598.15" y2="278"/></g></g><g><rect class="cls-13" x="16.62" y="487.38" width="199.38" height="188.31"/><g><polyline class="cls-4" points="216 493.38 216 487.38 210 487.38"/><line class="cls-6" x1="197.51" y1="487.38" x2="28.86" y2="487.38"/><polyline class="cls-4" points="22.62 487.38 16.62 487.38 16.62 493.38"/><line class="cls-10" x1="16.62" y1="505.14" x2="16.62" y2="663.82"/><polyline class="cls-4" points="16.62 669.69 16.62 675.69 22.62 675.69"/><line class="cls-6" x1="35.11" y1="675.69" x2="203.75" y2="675.69"/><polyline class="cls-4" points="210 675.69 216 675.69 216 669.69"/><line class="cls-10" x1="216" y1="657.94" x2="216" y2="499.26"/></g></g><g><rect class="cls-1" x="355.96" y="367.04" width="179.77" height="85.62"/><path d="m534.23,368.54v82.62h-176.77v-82.62h176.77m3-3h-182.77v88.62h182.77v-88.62h0Z"/></g><g><path d="m419.3,398.48c-.1-1.97-.23-4.35-.21-6.11h-.06c-.48,1.66-1.07,3.42-1.79,5.38l-2.5,6.87h-1.39l-2.29-6.74c-.67-2-1.24-3.82-1.64-5.5h-.04c-.04,1.76-.15,4.14-.27,6.26l-.38,6.07h-1.74l.99-14.15h2.33l2.42,6.84c.59,1.74,1.07,3.3,1.43,4.77h.06c.36-1.43.86-2.98,1.49-4.77l2.52-6.84h2.33l.88,14.15h-1.79l-.36-6.21Z"/><path d="m425.35,399.95c.04,2.5,1.64,3.53,3.49,3.53,1.32,0,2.12-.23,2.81-.52l.31,1.32c-.65.29-1.76.63-3.38.63-3.13,0-5-2.06-5-5.12s1.81-5.48,4.77-5.48c3.32,0,4.2,2.92,4.2,4.79,0,.38-.04.67-.06.86h-7.14Zm5.42-1.32c.02-1.18-.48-3-2.56-3-1.87,0-2.69,1.72-2.83,3h5.4Z"/><path d="m437.07,391.62v2.92h2.65v1.41h-2.65v5.48c0,1.26.36,1.97,1.39,1.97.48,0,.84-.06,1.07-.13l.08,1.39c-.36.15-.92.25-1.64.25-.86,0-1.55-.27-2-.78-.52-.55-.71-1.45-.71-2.65v-5.54h-1.57v-1.41h1.57v-2.44l1.81-.48Z"/><path d="m442.69,399.95c.04,2.5,1.64,3.53,3.49,3.53,1.32,0,2.12-.23,2.81-.52l.31,1.32c-.65.29-1.76.63-3.38.63-3.13,0-5-2.06-5-5.12s1.81-5.48,4.77-5.48c3.32,0,4.2,2.92,4.2,4.79,0,.38-.04.67-.06.86h-7.14Zm5.42-1.32c.02-1.18-.48-3-2.56-3-1.87,0-2.69,1.72-2.83,3h5.4Z"/><path d="m452.19,397.71c0-1.2-.02-2.23-.08-3.17h1.62l.06,2h.08c.46-1.37,1.57-2.23,2.81-2.23.21,0,.36.02.52.06v1.74c-.19-.04-.38-.06-.63-.06-1.3,0-2.23.99-2.48,2.37-.04.25-.08.55-.08.86v5.42h-1.83v-6.99Z"/><path d="m461.19,391.68c.02.63-.44,1.13-1.18,1.13-.65,0-1.11-.5-1.11-1.13s.48-1.15,1.16-1.15,1.13.5,1.13,1.15Zm-2.06,13.02v-10.16h1.85v10.16h-1.85Z"/><path d="m464.05,397.29c0-1.05-.02-1.91-.08-2.75h1.64l.11,1.68h.04c.5-.97,1.68-1.91,3.36-1.91,1.41,0,3.59.84,3.59,4.33v6.07h-1.85v-5.86c0-1.64-.61-3-2.35-3-1.22,0-2.16.86-2.48,1.89-.08.23-.12.55-.12.86v6.11h-1.85v-7.41Z"/><path d="m484.46,394.54c-.04.74-.08,1.55-.08,2.79v5.9c0,2.33-.46,3.76-1.45,4.64-.99.92-2.41,1.22-3.7,1.22s-2.56-.29-3.38-.84l.46-1.41c.67.42,1.72.8,2.98.8,1.89,0,3.28-.99,3.28-3.55v-1.13h-.04c-.57.94-1.66,1.7-3.23,1.7-2.52,0-4.32-2.14-4.32-4.96,0-3.44,2.25-5.4,4.58-5.4,1.76,0,2.73.92,3.17,1.76h.04l.08-1.53h1.62Zm-1.91,4.01c0-.32-.02-.59-.1-.84-.34-1.07-1.24-1.95-2.58-1.95-1.76,0-3.02,1.49-3.02,3.84,0,1.99,1.01,3.65,3,3.65,1.13,0,2.16-.71,2.56-1.89.11-.32.15-.67.15-.99v-1.83Z"/><path d="m399.67,425.45l-1.47,4.45h-1.89l4.81-14.15h2.2l4.83,14.15h-1.95l-1.51-4.45h-5.02Zm4.64-1.43l-1.39-4.07c-.31-.92-.52-1.76-.73-2.58h-.04c-.21.84-.44,1.7-.71,2.56l-1.39,4.09h4.26Z"/><path d="m418.67,419.74c-.04.74-.08,1.55-.08,2.79v5.9c0,2.33-.46,3.76-1.45,4.64-.99.92-2.41,1.22-3.7,1.22s-2.56-.29-3.38-.84l.46-1.41c.67.42,1.72.8,2.98.8,1.89,0,3.28-.99,3.28-3.55v-1.13h-.04c-.57.94-1.66,1.7-3.23,1.7-2.52,0-4.33-2.14-4.33-4.96,0-3.44,2.25-5.4,4.58-5.4,1.76,0,2.73.92,3.17,1.76h.04l.08-1.53h1.62Zm-1.91,4.01c0-.32-.02-.59-.11-.84-.34-1.07-1.24-1.95-2.58-1.95-1.76,0-3.02,1.49-3.02,3.84,0,1.99,1.01,3.65,3,3.65,1.13,0,2.16-.71,2.56-1.89.1-.32.15-.67.15-.99v-1.83Z"/><path d="m430.41,419.74c-.04.74-.08,1.55-.08,2.79v5.9c0,2.33-.46,3.76-1.45,4.64-.99.92-2.42,1.22-3.7,1.22s-2.56-.29-3.38-.84l.46-1.41c.67.42,1.72.8,2.98.8,1.89,0,3.28-.99,3.28-3.55v-1.13h-.04c-.57.94-1.66,1.7-3.23,1.7-2.52,0-4.33-2.14-4.33-4.96,0-3.44,2.25-5.4,4.58-5.4,1.76,0,2.73.92,3.17,1.76h.04l.08-1.53h1.62Zm-1.91,4.01c0-.32-.02-.59-.11-.84-.34-1.07-1.24-1.95-2.58-1.95-1.76,0-3.02,1.49-3.02,3.84,0,1.99,1.01,3.65,3,3.65,1.13,0,2.16-.71,2.56-1.89.1-.32.15-.67.15-.99v-1.83Z"/><path d="m433.27,422.91c0-1.2-.02-2.23-.08-3.17h1.62l.06,2h.08c.46-1.37,1.58-2.23,2.81-2.23.21,0,.36.02.52.06v1.74c-.19-.04-.38-.06-.63-.06-1.3,0-2.23.99-2.48,2.37-.04.25-.08.55-.08.86v5.42h-1.83v-6.99Z"/><path d="m440.95,425.15c.04,2.5,1.64,3.53,3.49,3.53,1.32,0,2.12-.23,2.81-.52l.32,1.32c-.65.29-1.76.63-3.38.63-3.13,0-5-2.06-5-5.12s1.81-5.48,4.77-5.48c3.32,0,4.2,2.92,4.2,4.79,0,.38-.04.67-.06.86h-7.14Zm5.42-1.32c.02-1.18-.48-3-2.56-3-1.87,0-2.69,1.72-2.83,3h5.4Z"/><path d="m459.2,419.74c-.04.74-.08,1.55-.08,2.79v5.9c0,2.33-.46,3.76-1.45,4.64-.99.92-2.41,1.22-3.7,1.22s-2.56-.29-3.38-.84l.46-1.41c.67.42,1.72.8,2.98.8,1.89,0,3.28-.99,3.28-3.55v-1.13h-.04c-.57.94-1.66,1.7-3.23,1.7-2.52,0-4.33-2.14-4.33-4.96,0-3.44,2.25-5.4,4.58-5.4,1.76,0,2.73.92,3.17,1.76h.04l.08-1.53h1.62Zm-1.91,4.01c0-.32-.02-.59-.11-.84-.34-1.07-1.24-1.95-2.58-1.95-1.76,0-3.02,1.49-3.02,3.84,0,1.99,1.01,3.65,3,3.65,1.13,0,2.16-.71,2.56-1.89.1-.32.15-.67.15-.99v-1.83Z"/><path d="m467.81,429.9l-.15-1.28h-.06c-.57.8-1.66,1.51-3.11,1.51-2.06,0-3.11-1.45-3.11-2.92,0-2.46,2.18-3.8,6.11-3.78v-.21c0-.84-.23-2.35-2.31-2.35-.95,0-1.93.29-2.65.76l-.42-1.22c.84-.55,2.06-.9,3.34-.9,3.11,0,3.86,2.12,3.86,4.16v3.8c0,.88.04,1.74.17,2.44h-1.68Zm-.27-5.19c-2.02-.04-4.3.31-4.3,2.29,0,1.2.8,1.76,1.74,1.76,1.32,0,2.16-.84,2.46-1.7.06-.19.11-.4.11-.59v-1.76Z"/><path d="m474.45,416.82v2.92h2.64v1.41h-2.64v5.48c0,1.26.36,1.97,1.38,1.97.48,0,.84-.06,1.07-.13l.08,1.39c-.36.15-.92.25-1.64.25-.86,0-1.55-.27-1.99-.78-.53-.55-.71-1.45-.71-2.65v-5.54h-1.57v-1.41h1.57v-2.44l1.81-.48Z"/><path d="m488.24,424.73c0,3.76-2.6,5.4-5.06,5.4-2.75,0-4.87-2.02-4.87-5.23,0-3.4,2.23-5.4,5.04-5.4s4.89,2.12,4.89,5.23Zm-8.06.11c0,2.23,1.28,3.91,3.09,3.91s3.09-1.66,3.09-3.95c0-1.72-.86-3.91-3.04-3.91s-3.13,2.02-3.13,3.95Z"/><path d="m490.57,422.91c0-1.2-.02-2.23-.08-3.17h1.62l.06,2h.08c.46-1.37,1.58-2.23,2.81-2.23.21,0,.36.02.52.06v1.74c-.19-.04-.38-.06-.63-.06-1.3,0-2.23.99-2.48,2.37-.04.25-.08.55-.08.86v5.42h-1.83v-6.99Z"/></g><g><path class="cls-5" d="m537.23,409.85h19.38c10.66,0,19.38-9,19.38-20v-199.55"/><polygon points="582.1 194.46 576 171.69 569.9 194.46 582.1 194.46"/></g><g><path d="m387.8,284.93v14.15h-1.83v-14.15h1.83Z"/><path d="m390.74,296.85c.82.5,2.02.92,3.28.92,1.87,0,2.96-.99,2.96-2.42,0-1.32-.76-2.08-2.67-2.81-2.31-.82-3.74-2.02-3.74-4.01,0-2.21,1.83-3.84,4.58-3.84,1.45,0,2.5.34,3.13.69l-.5,1.49c-.46-.25-1.41-.67-2.69-.67-1.93,0-2.67,1.16-2.67,2.12,0,1.32.86,1.97,2.81,2.73,2.39.92,3.61,2.08,3.61,4.16,0,2.18-1.62,4.07-4.96,4.07-1.37,0-2.86-.4-3.61-.9l.46-1.53Z"/><path d="m404.45,299.08l-4.62-14.15h1.97l2.2,6.97c.61,1.91,1.13,3.63,1.51,5.29h.04c.4-1.64.99-3.42,1.62-5.27l2.39-6.99h1.95l-5.06,14.15h-2.02Z"/><path d="m417.52,285.11c.8-.17,2.06-.29,3.34-.29,1.83,0,3,.32,3.88,1.03.73.55,1.18,1.39,1.18,2.5,0,1.37-.9,2.56-2.39,3.11v.04c1.34.34,2.92,1.45,2.92,3.55,0,1.22-.48,2.14-1.2,2.83-.99.9-2.58,1.32-4.89,1.32-1.26,0-2.23-.08-2.83-.17v-13.92Zm1.83,5.79h1.66c1.93,0,3.07-1.01,3.07-2.37,0-1.66-1.26-2.31-3.11-2.31-.84,0-1.32.06-1.62.13v4.56Zm0,6.78c.36.06.88.08,1.53.08,1.89,0,3.63-.69,3.63-2.75,0-1.93-1.66-2.73-3.65-2.73h-1.51v5.4Z"/><path d="m434.46,299.08l-.15-1.28h-.06c-.57.8-1.66,1.51-3.11,1.51-2.06,0-3.11-1.45-3.11-2.92,0-2.46,2.18-3.8,6.11-3.78v-.21c0-.84-.23-2.35-2.31-2.35-.94,0-1.93.29-2.64.76l-.42-1.22c.84-.55,2.06-.9,3.34-.9,3.11,0,3.86,2.12,3.86,4.16v3.8c0,.88.04,1.74.17,2.44h-1.68Zm-.27-5.19c-2.02-.04-4.3.32-4.3,2.29,0,1.2.8,1.76,1.74,1.76,1.32,0,2.16-.84,2.46-1.7.06-.19.1-.4.1-.59v-1.76Z"/><path d="m446.2,298.7c-.48.25-1.55.59-2.92.59-3.07,0-5.06-2.08-5.06-5.19s2.14-5.4,5.46-5.4c1.09,0,2.06.27,2.56.52l-.42,1.43c-.44-.25-1.13-.48-2.14-.48-2.33,0-3.59,1.72-3.59,3.84,0,2.35,1.51,3.8,3.53,3.8,1.05,0,1.74-.27,2.27-.5l.31,1.39Z"/><path d="m450.19,293.58h.04c.25-.36.61-.8.9-1.16l2.98-3.51h2.22l-3.93,4.18,4.47,5.98h-2.25l-3.51-4.87-.94,1.05v3.82h-1.83v-14.91h1.83v9.41Z"/><path d="m459.24,294.33c.04,2.5,1.64,3.53,3.48,3.53,1.32,0,2.12-.23,2.81-.53l.31,1.32c-.65.29-1.76.63-3.38.63-3.13,0-5-2.06-5-5.12s1.8-5.48,4.77-5.48c3.32,0,4.2,2.92,4.2,4.79,0,.38-.04.67-.06.86h-7.14Zm5.42-1.32c.02-1.18-.48-3-2.56-3-1.87,0-2.69,1.72-2.83,3h5.4Z"/><path d="m468.73,291.66c0-1.05-.02-1.91-.08-2.75h1.64l.11,1.68h.04c.5-.97,1.68-1.91,3.36-1.91,1.41,0,3.59.84,3.59,4.33v6.07h-1.85v-5.86c0-1.64-.61-3-2.35-3-1.22,0-2.16.86-2.48,1.89-.08.23-.12.55-.12.86v6.11h-1.85v-7.41Z"/><path d="m489.16,284.17v12.28c0,.9.02,1.93.08,2.62h-1.66l-.08-1.76h-.04c-.57,1.13-1.81,1.99-3.46,1.99-2.46,0-4.35-2.08-4.35-5.17-.02-3.38,2.08-5.46,4.56-5.46,1.55,0,2.6.74,3.07,1.55h.04v-6.07h1.85Zm-1.85,8.88c0-.23-.02-.55-.08-.78-.27-1.18-1.28-2.14-2.67-2.14-1.91,0-3.04,1.68-3.04,3.93,0,2.06,1.01,3.76,3,3.76,1.24,0,2.37-.82,2.71-2.21.06-.25.08-.5.08-.8v-1.76Z"/></g><g><rect class="cls-1" x="355.96" y="128.88" width="141" height="63.46"/><path d="m495.46,130.38v60.46h-138v-60.46h138m3-3h-144v66.46h144v-66.46h0Z"/></g><g><path d="m374.27,151.04c0-.8-.02-1.46-.06-2.1h1.23l.06,1.25h.05c.43-.74,1.15-1.42,2.43-1.42,1.06,0,1.86.64,2.19,1.55h.03c.24-.43.54-.77.86-1.01.46-.35.98-.54,1.71-.54,1.02,0,2.54.67,2.54,3.36v4.56h-1.38v-4.39c0-1.49-.54-2.38-1.68-2.38-.8,0-1.42.59-1.67,1.28-.06.19-.11.45-.11.7v4.79h-1.38v-4.64c0-1.23-.54-2.13-1.62-2.13-.88,0-1.52.7-1.75,1.41-.08.21-.11.45-.11.69v4.67h-1.38v-5.65Z"/><path d="m391.9,156.69l-.11-.98h-.05c-.43.61-1.26,1.15-2.37,1.15-1.57,0-2.37-1.1-2.37-2.23,0-1.87,1.67-2.9,4.66-2.88v-.16c0-.64-.18-1.79-1.76-1.79-.72,0-1.47.22-2.02.58l-.32-.93c.64-.42,1.57-.69,2.54-.69,2.37,0,2.95,1.62,2.95,3.17v2.9c0,.67.03,1.33.13,1.86h-1.28Zm-.21-3.95c-1.54-.03-3.28.24-3.28,1.74,0,.91.61,1.34,1.33,1.34,1.01,0,1.65-.64,1.87-1.3.05-.14.08-.3.08-.45v-1.34Z"/><path d="m395.32,151.36c0-.91-.02-1.7-.06-2.42h1.23l.05,1.52h.06c.35-1.04,1.2-1.7,2.14-1.7.16,0,.27.02.4.05v1.33c-.14-.03-.29-.05-.48-.05-.99,0-1.7.75-1.89,1.81-.03.19-.06.42-.06.66v4.13h-1.39v-5.33Z"/><path d="m402.01,152.5h.03c.19-.27.46-.61.69-.88l2.27-2.67h1.7l-2.99,3.19,3.41,4.56h-1.71l-2.67-3.71-.72.8v2.91h-1.39v-11.36h1.39v7.17Z"/><path d="m408.91,153.08c.03,1.9,1.25,2.69,2.66,2.69,1.01,0,1.62-.18,2.14-.4l.24,1.01c-.5.22-1.34.48-2.58.48-2.38,0-3.81-1.57-3.81-3.91s1.38-4.18,3.63-4.18c2.53,0,3.2,2.23,3.2,3.65,0,.29-.03.51-.05.66h-5.44Zm4.13-1.01c.02-.9-.37-2.29-1.95-2.29-1.42,0-2.05,1.31-2.16,2.29h4.11Z"/><path d="m417.84,146.72v2.23h2.02v1.07h-2.02v4.18c0,.96.27,1.5,1.06,1.5.37,0,.64-.05.82-.1l.06,1.06c-.27.11-.7.19-1.25.19-.66,0-1.18-.21-1.52-.59-.4-.42-.54-1.1-.54-2.02v-4.23h-1.2v-1.07h1.2v-1.86l1.38-.37Z"/><path d="m421.44,151.47c0-.99-.03-1.79-.06-2.53h1.26l.06,1.33h.03c.58-.94,1.49-1.5,2.75-1.5,1.87,0,3.28,1.58,3.28,3.94,0,2.79-1.7,4.16-3.52,4.16-1.02,0-1.92-.45-2.38-1.22h-.03v4.21h-1.39v-8.39Zm1.39,2.06c0,.21.03.4.06.58.26.98,1.1,1.65,2.11,1.65,1.49,0,2.35-1.22,2.35-2.99,0-1.55-.82-2.88-2.3-2.88-.96,0-1.86.69-2.13,1.74-.05.18-.1.38-.1.58v1.33Z"/><path d="m430.54,145.33h1.41v11.36h-1.41v-11.36Z"/><path d="m438.6,156.69l-.11-.98h-.05c-.43.61-1.26,1.15-2.37,1.15-1.57,0-2.37-1.1-2.37-2.23,0-1.87,1.67-2.9,4.66-2.88v-.16c0-.64-.18-1.79-1.76-1.79-.72,0-1.47.22-2.02.58l-.32-.93c.64-.42,1.57-.69,2.54-.69,2.37,0,2.95,1.62,2.95,3.17v2.9c0,.67.03,1.33.13,1.86h-1.28Zm-.21-3.95c-1.54-.03-3.28.24-3.28,1.74,0,.91.61,1.34,1.33,1.34,1.01,0,1.65-.64,1.87-1.3.05-.14.08-.3.08-.45v-1.34Z"/><path d="m447.55,156.4c-.37.19-1.18.45-2.23.45-2.34,0-3.86-1.58-3.86-3.95s1.63-4.11,4.16-4.11c.83,0,1.57.21,1.95.4l-.32,1.09c-.34-.19-.86-.37-1.63-.37-1.78,0-2.74,1.31-2.74,2.93,0,1.79,1.15,2.9,2.69,2.9.8,0,1.33-.21,1.73-.38l.24,1.06Z"/><path d="m449.88,153.08c.03,1.9,1.25,2.69,2.66,2.69,1.01,0,1.62-.18,2.14-.4l.24,1.01c-.5.22-1.34.48-2.58.48-2.38,0-3.81-1.57-3.81-3.91s1.38-4.18,3.63-4.18c2.53,0,3.2,2.23,3.2,3.65,0,.29-.03.51-.05.66h-5.44Zm4.13-1.01c.02-.9-.37-2.29-1.95-2.29-1.42,0-2.05,1.31-2.16,2.29h4.11Z"/><path d="m461.4,156.69l-.11-.98h-.05c-.43.61-1.26,1.15-2.37,1.15-1.57,0-2.37-1.1-2.37-2.23,0-1.87,1.67-2.9,4.66-2.88v-.16c0-.64-.18-1.79-1.76-1.79-.72,0-1.47.22-2.02.58l-.32-.93c.64-.42,1.57-.69,2.54-.69,2.37,0,2.95,1.62,2.95,3.17v2.9c0,.67.03,1.33.13,1.86h-1.28Zm-.21-3.95c-1.54-.03-3.28.24-3.28,1.74,0,.91.61,1.34,1.33,1.34,1.01,0,1.65-.64,1.87-1.3.05-.14.08-.3.08-.45v-1.34Z"/><path d="m464.83,151.47c0-.99-.03-1.79-.06-2.53h1.26l.06,1.33h.03c.58-.94,1.49-1.5,2.75-1.5,1.87,0,3.28,1.58,3.28,3.94,0,2.79-1.7,4.16-3.52,4.16-1.02,0-1.92-.45-2.38-1.22h-.03v4.21h-1.39v-8.39Zm1.39,2.06c0,.21.03.4.06.58.26.98,1.1,1.65,2.11,1.65,1.49,0,2.35-1.22,2.35-2.99,0-1.55-.82-2.88-2.3-2.88-.96,0-1.86.69-2.13,1.74-.05.18-.1.38-.1.58v1.33Z"/><path d="m475.5,146.77c.02.48-.34.86-.9.86-.5,0-.85-.38-.85-.86s.37-.88.88-.88.86.38.86.88Zm-1.57,9.92v-7.75h1.41v7.75h-1.41Z"/><path d="m477.34,155.86c0-.59.4-1.01.96-1.01s.94.42.94,1.01-.37,1.01-.96,1.01c-.56,0-.94-.43-.94-1.01Z"/><path d="m379.71,170.24c0-.8-.02-1.46-.06-2.1h1.23l.06,1.25h.05c.43-.74,1.15-1.42,2.43-1.42,1.06,0,1.86.64,2.19,1.55h.03c.24-.43.54-.77.86-1.01.46-.35.98-.54,1.71-.54,1.02,0,2.54.67,2.54,3.36v4.56h-1.38v-4.39c0-1.49-.54-2.38-1.68-2.38-.8,0-1.42.59-1.67,1.28-.06.19-.11.45-.11.7v4.79h-1.38v-4.64c0-1.23-.54-2.13-1.62-2.13-.88,0-1.52.7-1.74,1.41-.08.21-.11.45-.11.69v4.67h-1.38v-5.65Z"/><path d="m394.62,165.97c.02.48-.34.86-.9.86-.5,0-.85-.38-.85-.86s.37-.88.88-.88.86.38.86.88Zm-1.57,9.92v-7.75h1.41v7.75h-1.41Z"/><path d="m402.32,175.6c-.37.19-1.18.45-2.23.45-2.34,0-3.86-1.58-3.86-3.95s1.63-4.11,4.16-4.11c.83,0,1.57.21,1.95.4l-.32,1.09c-.34-.19-.86-.37-1.63-.37-1.78,0-2.74,1.31-2.74,2.93,0,1.79,1.15,2.9,2.69,2.9.8,0,1.33-.21,1.73-.38l.24,1.06Z"/><path d="m403.97,170.56c0-.91-.02-1.7-.06-2.42h1.23l.05,1.52h.06c.35-1.04,1.2-1.7,2.14-1.7.16,0,.27.02.4.05v1.33c-.14-.03-.29-.05-.48-.05-.99,0-1.7.75-1.89,1.81-.03.19-.06.42-.06.66v4.13h-1.39v-5.33Z"/><path d="m416.05,171.96c0,2.87-1.99,4.11-3.86,4.11-2.1,0-3.71-1.54-3.71-3.99,0-2.59,1.7-4.11,3.84-4.11s3.73,1.62,3.73,3.99Zm-6.15.08c0,1.7.98,2.98,2.35,2.98s2.35-1.26,2.35-3.01c0-1.31-.66-2.98-2.32-2.98s-2.38,1.54-2.38,3.01Z"/><path d="m417.63,174.45c.42.27,1.15.56,1.86.56,1.02,0,1.5-.51,1.5-1.15,0-.67-.4-1.04-1.44-1.42-1.39-.5-2.05-1.26-2.05-2.19,0-1.25,1.01-2.27,2.67-2.27.78,0,1.47.22,1.91.48l-.35,1.02c-.3-.19-.86-.45-1.58-.45-.83,0-1.3.48-1.3,1.06,0,.64.46.93,1.47,1.31,1.34.51,2.03,1.18,2.03,2.34,0,1.36-1.06,2.32-2.9,2.32-.85,0-1.63-.21-2.18-.53l.35-1.07Z"/><path d="m431.17,171.96c0,2.87-1.99,4.11-3.86,4.11-2.1,0-3.71-1.54-3.71-3.99,0-2.59,1.7-4.11,3.84-4.11s3.73,1.62,3.73,3.99Zm-6.15.08c0,1.7.98,2.98,2.35,2.98s2.35-1.26,2.35-3.01c0-1.31-.66-2.98-2.32-2.98s-2.38,1.54-2.38,3.01Z"/><path d="m433.08,175.89v-6.67h-1.09v-1.07h1.09v-.37c0-1.09.24-2.08.9-2.71.53-.51,1.23-.72,1.89-.72.5,0,.93.11,1.2.22l-.19,1.09c-.21-.1-.5-.18-.9-.18-1.2,0-1.5,1.06-1.5,2.24v.42h1.87v1.07h-1.87v6.67h-1.39Z"/><path d="m439.48,165.92v2.23h2.02v1.07h-2.02v4.18c0,.96.27,1.5,1.06,1.5.37,0,.64-.05.82-.1l.06,1.06c-.27.11-.7.19-1.25.19-.66,0-1.18-.21-1.52-.59-.4-.42-.54-1.1-.54-2.02v-4.23h-1.2v-1.07h1.2v-1.86l1.38-.37Z"/><path d="m442.7,175.06c0-.59.4-1.01.96-1.01s.94.42.94,1.01-.37,1.01-.96,1.01c-.56,0-.94-.43-.94-1.01Z"/><path d="m451.87,175.6c-.37.19-1.18.45-2.23.45-2.34,0-3.86-1.58-3.86-3.95s1.63-4.11,4.16-4.11c.83,0,1.57.21,1.95.4l-.32,1.09c-.34-.19-.86-.37-1.63-.37-1.78,0-2.74,1.31-2.74,2.93,0,1.79,1.15,2.9,2.69,2.9.8,0,1.33-.21,1.73-.38l.24,1.06Z"/><path d="m460.43,171.96c0,2.87-1.99,4.11-3.86,4.11-2.1,0-3.71-1.54-3.71-3.99,0-2.59,1.7-4.11,3.84-4.11s3.73,1.62,3.73,3.99Zm-6.15.08c0,1.7.98,2.98,2.35,2.98s2.35-1.26,2.35-3.01c0-1.31-.66-2.98-2.32-2.98s-2.38,1.54-2.38,3.01Z"/><path d="m462.2,170.24c0-.8-.02-1.46-.06-2.1h1.23l.06,1.25h.05c.43-.74,1.15-1.42,2.43-1.42,1.06,0,1.86.64,2.19,1.55h.03c.24-.43.54-.77.86-1.01.46-.35.98-.54,1.71-.54,1.02,0,2.54.67,2.54,3.36v4.56h-1.38v-4.39c0-1.49-.54-2.38-1.68-2.38-.8,0-1.42.59-1.67,1.28-.06.19-.11.45-.11.7v4.79h-1.38v-4.64c0-1.23-.54-2.13-1.62-2.13-.88,0-1.52.7-1.75,1.41-.08.21-.11.45-.11.69v4.67h-1.38v-5.65Z"/></g><g><line class="cls-5" x1="576.36" y1="160.62" x2="498.46" y2="160.62"/><path d="m575.8,149.34c6.23,0,11.28,5.05,11.28,11.28s-5.05,11.28-11.28,11.28c-6.23,0-11.28-5.05-11.28-11.28s5.05-11.28,11.28-11.28Z"/></g><g><line class="cls-5" x1="309.79" y1="415.38" x2="354.46" y2="415.38"/><path d="m310.36,426.66c-6.23,0-11.28-5.05-11.28-11.28s5.05-11.28,11.28-11.28,11.28,5.05,11.28,11.28-5.05,11.28-11.28,11.28Z"/></g><g><path d="m35.2,509.08c-.67.34-2.02.67-3.74.67-3.99,0-6.99-2.52-6.99-7.16s3-7.43,7.39-7.43c1.76,0,2.88.38,3.36.63l-.44,1.49c-.69-.34-1.68-.59-2.86-.59-3.32,0-5.52,2.12-5.52,5.84,0,3.46,1.99,5.69,5.44,5.69,1.11,0,2.25-.23,2.98-.59l.38,1.45Z"/><path d="m45.68,506.77c0,1.05.02,1.97.08,2.77h-1.64l-.11-1.66h-.04c-.48.82-1.55,1.89-3.36,1.89-1.6,0-3.51-.88-3.51-4.45v-5.94h1.85v5.63c0,1.93.59,3.23,2.27,3.23,1.24,0,2.1-.86,2.44-1.68.11-.27.17-.61.17-.95v-6.24h1.85v7.39Z"/><path d="m48.5,507.65c.54.36,1.51.73,2.44.73,1.34,0,1.97-.67,1.97-1.51,0-.88-.52-1.36-1.89-1.87-1.83-.65-2.69-1.66-2.69-2.88,0-1.64,1.32-2.98,3.51-2.98,1.03,0,1.93.29,2.5.63l-.46,1.34c-.4-.25-1.13-.59-2.08-.59-1.09,0-1.7.63-1.7,1.39,0,.84.61,1.22,1.93,1.72,1.76.67,2.67,1.55,2.67,3.07,0,1.79-1.39,3.04-3.8,3.04-1.11,0-2.14-.27-2.86-.69l.46-1.41Z"/><path d="m59.29,496.46v2.92h2.65v1.41h-2.65v5.48c0,1.26.36,1.97,1.39,1.97.48,0,.84-.06,1.07-.13l.08,1.39c-.36.15-.92.25-1.64.25-.86,0-1.55-.27-1.99-.78-.53-.55-.71-1.45-.71-2.65v-5.54h-1.58v-1.41h1.58v-2.44l1.81-.48Z"/><path d="m73.09,504.37c0,3.76-2.6,5.4-5.06,5.4-2.75,0-4.87-2.02-4.87-5.23,0-3.4,2.22-5.4,5.04-5.4s4.89,2.12,4.89,5.23Zm-8.06.1c0,2.23,1.28,3.91,3.09,3.91s3.09-1.66,3.09-3.95c0-1.72-.86-3.91-3.04-3.91s-3.13,2.02-3.13,3.95Z"/><path d="m75.42,502.13c0-1.05-.02-1.91-.08-2.75h1.62l.08,1.64h.06c.57-.97,1.51-1.87,3.19-1.87,1.38,0,2.44.84,2.88,2.04h.04c.31-.57.71-1.01,1.13-1.32.61-.46,1.28-.71,2.25-.71,1.34,0,3.34.88,3.34,4.41v5.98h-1.81v-5.75c0-1.95-.71-3.13-2.2-3.13-1.05,0-1.87.78-2.18,1.68-.08.25-.15.59-.15.92v6.28h-1.81v-6.09c0-1.62-.71-2.79-2.12-2.79-1.15,0-1.99.92-2.29,1.85-.1.27-.15.59-.15.9v6.13h-1.8v-7.41Z"/><path d="m93.96,504.79c.04,2.5,1.64,3.53,3.48,3.53,1.32,0,2.12-.23,2.81-.53l.31,1.32c-.65.29-1.76.63-3.38.63-3.13,0-5-2.06-5-5.12s1.8-5.48,4.77-5.48c3.32,0,4.2,2.92,4.2,4.79,0,.38-.04.67-.06.86h-7.14Zm5.42-1.32c.02-1.18-.48-3-2.56-3-1.87,0-2.69,1.72-2.83,3h5.4Z"/><path d="m103.45,502.55c0-1.2-.02-2.23-.08-3.17h1.62l.06,1.99h.08c.46-1.36,1.58-2.23,2.81-2.23.21,0,.36.02.53.06v1.74c-.19-.04-.38-.06-.63-.06-1.3,0-2.22.99-2.48,2.37-.04.25-.08.55-.08.86v5.42h-1.83v-6.99Z"/><path d="m114.63,507.42c.52.34,1.74.86,3.02.86,2.37,0,3.11-1.51,3.09-2.65-.02-1.91-1.74-2.73-3.53-2.73h-1.03v-1.39h1.03c1.34,0,3.04-.69,3.04-2.31,0-1.09-.69-2.06-2.39-2.06-1.09,0-2.14.48-2.73.9l-.48-1.34c.71-.52,2.1-1.05,3.57-1.05,2.69,0,3.9,1.6,3.9,3.25,0,1.41-.84,2.6-2.52,3.21v.04c1.68.34,3.04,1.6,3.04,3.51,0,2.18-1.7,4.09-4.98,4.09-1.53,0-2.88-.48-3.55-.92l.5-1.43Z"/></g><g><rect class="cls-1" x="25.22" y="522.12" width="163.15" height="146.54"/><path d="m186.87,523.62v143.54H26.72v-143.54h160.15m3-3H23.72v149.54h166.15v-149.54h0Z"/></g><g><path d="m78.81,536.95c-.1-1.97-.23-4.35-.21-6.11h-.06c-.48,1.66-1.07,3.42-1.79,5.38l-2.5,6.87h-1.39l-2.29-6.74c-.67-1.99-1.24-3.82-1.64-5.5h-.04c-.04,1.76-.15,4.14-.27,6.26l-.38,6.07h-1.74l.99-14.15h2.33l2.42,6.84c.59,1.74,1.07,3.3,1.43,4.77h.06c.36-1.43.86-2.98,1.49-4.77l2.52-6.84h2.33l.88,14.15h-1.79l-.36-6.21Z"/><path d="m89.46,543.16l-.15-1.28h-.06c-.57.8-1.66,1.51-3.11,1.51-2.06,0-3.11-1.45-3.11-2.92,0-2.46,2.18-3.8,6.11-3.78v-.21c0-.84-.23-2.35-2.31-2.35-.94,0-1.93.29-2.65.76l-.42-1.22c.84-.55,2.06-.9,3.34-.9,3.11,0,3.86,2.12,3.86,4.16v3.8c0,.88.04,1.74.17,2.44h-1.68Zm-.27-5.19c-2.02-.04-4.3.32-4.3,2.29,0,1.2.8,1.76,1.74,1.76,1.32,0,2.16-.84,2.46-1.7.06-.19.1-.4.1-.59v-1.76Z"/><path d="m93.95,535.75c0-1.05-.02-1.91-.08-2.75h1.64l.11,1.68h.04c.5-.97,1.68-1.91,3.36-1.91,1.41,0,3.59.84,3.59,4.33v6.07h-1.85v-5.86c0-1.64-.61-3-2.35-3-1.22,0-2.16.86-2.48,1.89-.08.23-.12.55-.12.86v6.11h-1.85v-7.41Z"/><path d="m111.24,543.16l-.15-1.28h-.06c-.57.8-1.66,1.51-3.11,1.51-2.06,0-3.11-1.45-3.11-2.92,0-2.46,2.18-3.8,6.11-3.78v-.21c0-.84-.23-2.35-2.31-2.35-.94,0-1.93.29-2.64.76l-.42-1.22c.84-.55,2.06-.9,3.34-.9,3.11,0,3.86,2.12,3.86,4.16v3.8c0,.88.04,1.74.17,2.44h-1.68Zm-.27-5.19c-2.02-.04-4.3.32-4.3,2.29,0,1.2.8,1.76,1.74,1.76,1.32,0,2.16-.84,2.46-1.7.06-.19.1-.4.1-.59v-1.76Z"/><path d="m124.49,533c-.04.73-.08,1.55-.08,2.79v5.9c0,2.33-.46,3.76-1.45,4.64-.99.92-2.42,1.22-3.7,1.22s-2.56-.29-3.38-.84l.46-1.41c.67.42,1.72.8,2.98.8,1.89,0,3.28-.99,3.28-3.55v-1.13h-.04c-.57.95-1.66,1.7-3.23,1.7-2.52,0-4.33-2.14-4.33-4.96,0-3.44,2.25-5.4,4.58-5.4,1.76,0,2.73.92,3.17,1.76h.04l.08-1.53h1.62Zm-1.91,4.01c0-.31-.02-.59-.11-.84-.34-1.07-1.24-1.95-2.58-1.95-1.76,0-3.02,1.49-3.02,3.84,0,2,1.01,3.65,3,3.65,1.13,0,2.16-.71,2.56-1.89.1-.31.15-.67.15-.99v-1.83Z"/><path d="m128.5,538.42c.04,2.5,1.64,3.53,3.49,3.53,1.32,0,2.12-.23,2.81-.53l.32,1.32c-.65.29-1.76.63-3.38.63-3.13,0-5-2.06-5-5.12s1.81-5.48,4.77-5.48c3.32,0,4.2,2.92,4.2,4.79,0,.38-.04.67-.06.86h-7.14Zm5.42-1.32c.02-1.18-.48-3-2.56-3-1.87,0-2.69,1.72-2.83,3h5.4Z"/><path d="m146.77,528.26v12.28c0,.9.02,1.93.08,2.62h-1.66l-.08-1.76h-.04c-.57,1.13-1.8,1.99-3.46,1.99-2.46,0-4.35-2.08-4.35-5.17-.02-3.38,2.08-5.46,4.56-5.46,1.55,0,2.6.74,3.07,1.55h.04v-6.07h1.85Zm-1.85,8.88c0-.23-.02-.55-.08-.78-.27-1.18-1.28-2.14-2.67-2.14-1.91,0-3.04,1.68-3.04,3.93,0,2.06,1.01,3.76,3,3.76,1.24,0,2.37-.82,2.71-2.21.06-.25.08-.5.08-.8v-1.76Z"/><path d="m60.15,563.91l-1.47,4.45h-1.89l4.81-14.15h2.21l4.83,14.15h-1.95l-1.51-4.45h-5.02Zm4.64-1.43l-1.39-4.07c-.32-.92-.52-1.76-.74-2.58h-.04c-.21.84-.44,1.7-.71,2.56l-1.38,4.09h4.26Z"/><path d="m70.59,561.52c0-1.3-.04-2.35-.08-3.32h1.66l.08,1.74h.04c.76-1.24,1.95-1.97,3.61-1.97,2.46,0,4.3,2.08,4.3,5.17,0,3.65-2.23,5.46-4.62,5.46-1.34,0-2.52-.59-3.13-1.6h-.04v5.52h-1.83v-11Zm1.83,2.71c0,.27.04.52.08.76.34,1.28,1.45,2.16,2.77,2.16,1.95,0,3.09-1.6,3.09-3.93,0-2.04-1.07-3.78-3.02-3.78-1.26,0-2.44.9-2.79,2.29-.06.23-.13.5-.13.76v1.74Z"/><path d="m82.54,561.52c0-1.3-.04-2.35-.08-3.32h1.66l.08,1.74h.04c.76-1.24,1.95-1.97,3.61-1.97,2.46,0,4.3,2.08,4.3,5.17,0,3.65-2.23,5.46-4.62,5.46-1.34,0-2.52-.59-3.13-1.6h-.04v5.52h-1.83v-11Zm1.83,2.71c0,.27.04.52.08.76.34,1.28,1.45,2.16,2.77,2.16,1.95,0,3.09-1.6,3.09-3.93,0-2.04-1.07-3.78-3.02-3.78-1.26,0-2.44.9-2.79,2.29-.06.23-.13.5-.13.76v1.74Z"/><path d="m94.49,553.46h1.85v14.91h-1.85v-14.91Z"/><path d="m101.5,555.34c.02.63-.44,1.13-1.18,1.13-.65,0-1.11-.5-1.11-1.13s.48-1.15,1.15-1.15,1.13.5,1.13,1.15Zm-2.06,13.02v-10.16h1.85v10.16h-1.85Z"/><path d="m111.6,567.98c-.48.25-1.55.59-2.92.59-3.07,0-5.06-2.08-5.06-5.19s2.14-5.4,5.46-5.4c1.09,0,2.06.27,2.56.53l-.42,1.43c-.44-.25-1.13-.48-2.14-.48-2.33,0-3.59,1.72-3.59,3.84,0,2.35,1.51,3.8,3.53,3.8,1.05,0,1.74-.27,2.27-.5l.31,1.39Z"/><path d="m119.39,568.36l-.15-1.28h-.06c-.57.8-1.66,1.51-3.11,1.51-2.06,0-3.11-1.45-3.11-2.92,0-2.46,2.18-3.8,6.11-3.78v-.21c0-.84-.23-2.35-2.31-2.35-.94,0-1.93.29-2.64.76l-.42-1.22c.84-.55,2.06-.9,3.34-.9,3.11,0,3.86,2.12,3.86,4.16v3.8c0,.88.04,1.74.17,2.44h-1.68Zm-.27-5.19c-2.02-.04-4.3.31-4.3,2.29,0,1.2.8,1.76,1.74,1.76,1.32,0,2.16-.84,2.46-1.7.06-.19.1-.4.1-.59v-1.76Z"/><path d="m126.03,555.28v2.92h2.65v1.41h-2.65v5.48c0,1.26.36,1.97,1.39,1.97.48,0,.84-.06,1.07-.13l.08,1.39c-.36.15-.92.25-1.64.25-.86,0-1.55-.27-1.99-.78-.53-.55-.71-1.45-.71-2.65v-5.54h-1.58v-1.41h1.58v-2.44l1.81-.48Z"/><path d="m132.81,555.34c.02.63-.44,1.13-1.18,1.13-.65,0-1.11-.5-1.11-1.13s.48-1.15,1.15-1.15,1.13.5,1.13,1.15Zm-2.06,13.02v-10.16h1.85v10.16h-1.85Z"/><path d="m144.87,563.2c0,3.76-2.6,5.4-5.06,5.4-2.75,0-4.87-2.02-4.87-5.23,0-3.4,2.23-5.4,5.04-5.4s4.89,2.12,4.89,5.23Zm-8.06.11c0,2.23,1.28,3.91,3.09,3.91s3.09-1.66,3.09-3.95c0-1.72-.86-3.91-3.04-3.91s-3.13,2.02-3.13,3.95Z"/><path d="m147.2,560.95c0-1.05-.02-1.91-.08-2.75h1.64l.1,1.68h.04c.5-.97,1.68-1.91,3.36-1.91,1.41,0,3.59.84,3.59,4.33v6.07h-1.85v-5.86c0-1.64-.61-3-2.35-3-1.22,0-2.16.86-2.48,1.89-.08.23-.13.55-.13.86v6.11h-1.85v-7.41Z"/></g><g><g><rect class="cls-1" x="47.37" y="583.04" width="124.38" height="69"/><path d="m170.26,584.54v66H48.87v-66h121.38m3-3H45.87v72h127.38v-72h0Z"/></g><g><path d="m62.92,620.54l-1.47,4.45h-1.89l4.81-14.15h2.21l4.83,14.15h-1.95l-1.51-4.45h-5.02Zm4.64-1.43l-1.39-4.07c-.31-.92-.52-1.76-.73-2.58h-.04c-.21.84-.44,1.7-.71,2.56l-1.39,4.09h4.26Z"/><path d="m73.36,618.15c0-1.3-.04-2.35-.08-3.32h1.66l.08,1.74h.04c.76-1.24,1.95-1.97,3.61-1.97,2.46,0,4.3,2.08,4.3,5.17,0,3.65-2.23,5.46-4.62,5.46-1.34,0-2.52-.59-3.13-1.6h-.04v5.52h-1.83v-11Zm1.83,2.71c0,.27.04.52.08.76.34,1.28,1.45,2.16,2.77,2.16,1.95,0,3.09-1.6,3.09-3.93,0-2.04-1.07-3.78-3.02-3.78-1.26,0-2.44.9-2.79,2.29-.06.23-.13.5-.13.76v1.74Z"/><path d="m85.31,618.15c0-1.3-.04-2.35-.08-3.32h1.66l.08,1.74h.04c.76-1.24,1.95-1.97,3.61-1.97,2.46,0,4.3,2.08,4.3,5.17,0,3.65-2.23,5.46-4.62,5.46-1.34,0-2.52-.59-3.13-1.6h-.04v5.52h-1.83v-11Zm1.83,2.71c0,.27.04.52.08.76.34,1.28,1.45,2.16,2.77,2.16,1.95,0,3.09-1.6,3.09-3.93,0-2.04-1.07-3.78-3.02-3.78-1.26,0-2.44.9-2.79,2.29-.06.23-.13.5-.13.76v1.74Z"/><path d="m97.26,610.09h1.85v14.91h-1.85v-14.91Z"/><path d="m104.27,611.98c.02.63-.44,1.13-1.18,1.13-.65,0-1.11-.5-1.11-1.13s.48-1.15,1.16-1.15,1.13.5,1.13,1.15Zm-2.06,13.02v-10.16h1.85v10.16h-1.85Z"/><path d="m114.37,624.62c-.48.25-1.55.59-2.92.59-3.07,0-5.06-2.08-5.06-5.19s2.14-5.4,5.46-5.4c1.09,0,2.06.27,2.56.53l-.42,1.43c-.44-.25-1.13-.48-2.14-.48-2.33,0-3.59,1.72-3.59,3.84,0,2.35,1.51,3.8,3.53,3.8,1.05,0,1.74-.27,2.27-.5l.31,1.39Z"/><path d="m122.16,624.99l-.15-1.28h-.06c-.57.8-1.66,1.51-3.11,1.51-2.06,0-3.11-1.45-3.11-2.92,0-2.46,2.18-3.8,6.11-3.78v-.21c0-.84-.23-2.35-2.31-2.35-.94,0-1.93.29-2.65.76l-.42-1.22c.84-.55,2.06-.9,3.34-.9,3.11,0,3.86,2.12,3.86,4.16v3.8c0,.88.04,1.74.17,2.44h-1.68Zm-.27-5.19c-2.02-.04-4.3.31-4.3,2.29,0,1.2.8,1.76,1.74,1.76,1.32,0,2.16-.84,2.46-1.7.06-.19.1-.4.1-.59v-1.76Z"/><path d="m128.8,611.91v2.92h2.65v1.41h-2.65v5.48c0,1.26.36,1.97,1.39,1.97.48,0,.84-.06,1.07-.13l.08,1.39c-.36.15-.92.25-1.64.25-.86,0-1.55-.27-1.99-.78-.53-.55-.71-1.45-.71-2.65v-5.54h-1.58v-1.41h1.58v-2.44l1.81-.48Z"/><path d="m135.58,611.98c.02.63-.44,1.13-1.18,1.13-.65,0-1.11-.5-1.11-1.13s.48-1.15,1.15-1.15,1.13.5,1.13,1.15Zm-2.06,13.02v-10.16h1.85v10.16h-1.85Z"/><path d="m147.64,619.83c0,3.76-2.6,5.4-5.06,5.4-2.75,0-4.87-2.02-4.87-5.23,0-3.4,2.23-5.4,5.04-5.4s4.89,2.12,4.89,5.23Zm-8.06.11c0,2.23,1.28,3.91,3.09,3.91s3.09-1.66,3.09-3.95c0-1.72-.86-3.91-3.04-3.91s-3.13,2.02-3.13,3.95Z"/><path d="m149.97,617.58c0-1.05-.02-1.91-.08-2.75h1.64l.1,1.68h.04c.5-.97,1.68-1.91,3.36-1.91,1.41,0,3.59.84,3.59,4.33v6.07h-1.85v-5.86c0-1.64-.61-3-2.35-3-1.22,0-2.16.86-2.48,1.89-.08.23-.13.55-.13.86v6.11h-1.85v-7.41Z"/></g></g><g><path d="m35.2,304.28c-.67.34-2.02.67-3.74.67-3.99,0-6.99-2.52-6.99-7.16s3-7.43,7.39-7.43c1.76,0,2.88.38,3.36.63l-.44,1.49c-.69-.34-1.68-.59-2.86-.59-3.32,0-5.52,2.12-5.52,5.84,0,3.46,1.99,5.69,5.44,5.69,1.11,0,2.25-.23,2.98-.59l.38,1.45Z"/><path d="m45.68,301.97c0,1.05.02,1.97.08,2.77h-1.64l-.11-1.66h-.04c-.48.82-1.55,1.89-3.36,1.89-1.6,0-3.51-.88-3.51-4.45v-5.94h1.85v5.63c0,1.93.59,3.23,2.27,3.23,1.24,0,2.1-.86,2.44-1.68.11-.27.17-.61.17-.95v-6.24h1.85v7.39Z"/><path d="m48.5,302.85c.54.36,1.51.73,2.44.73,1.34,0,1.97-.67,1.97-1.51,0-.88-.52-1.36-1.89-1.87-1.83-.65-2.69-1.66-2.69-2.88,0-1.64,1.32-2.98,3.51-2.98,1.03,0,1.93.29,2.5.63l-.46,1.34c-.4-.25-1.13-.59-2.08-.59-1.09,0-1.7.63-1.7,1.39,0,.84.61,1.22,1.93,1.72,1.76.67,2.67,1.55,2.67,3.07,0,1.79-1.39,3.04-3.8,3.04-1.11,0-2.14-.27-2.86-.69l.46-1.41Z"/><path d="m59.29,291.66v2.92h2.65v1.41h-2.65v5.48c0,1.26.36,1.97,1.39,1.97.48,0,.84-.06,1.07-.13l.08,1.39c-.36.15-.92.25-1.64.25-.86,0-1.55-.27-1.99-.78-.53-.55-.71-1.45-.71-2.65v-5.54h-1.58v-1.41h1.58v-2.44l1.81-.48Z"/><path d="m73.09,299.58c0,3.76-2.6,5.4-5.06,5.4-2.75,0-4.87-2.02-4.87-5.23,0-3.4,2.22-5.4,5.04-5.4s4.89,2.12,4.89,5.23Zm-8.06.1c0,2.23,1.28,3.91,3.09,3.91s3.09-1.66,3.09-3.95c0-1.72-.86-3.91-3.04-3.91s-3.13,2.02-3.13,3.95Z"/><path d="m75.42,297.33c0-1.05-.02-1.91-.08-2.75h1.62l.08,1.64h.06c.57-.97,1.51-1.87,3.19-1.87,1.38,0,2.44.84,2.88,2.04h.04c.31-.57.71-1.01,1.13-1.32.61-.46,1.28-.71,2.25-.71,1.34,0,3.34.88,3.34,4.41v5.98h-1.81v-5.75c0-1.95-.71-3.13-2.2-3.13-1.05,0-1.87.78-2.18,1.68-.08.25-.15.59-.15.92v6.28h-1.81v-6.09c0-1.62-.71-2.79-2.12-2.79-1.15,0-1.99.92-2.29,1.85-.1.27-.15.59-.15.9v6.13h-1.8v-7.41Z"/><path d="m93.96,300c.04,2.5,1.64,3.53,3.48,3.53,1.32,0,2.12-.23,2.81-.53l.31,1.32c-.65.29-1.76.63-3.38.63-3.13,0-5-2.06-5-5.12s1.8-5.48,4.77-5.48c3.32,0,4.2,2.92,4.2,4.79,0,.38-.04.67-.06.86h-7.14Zm5.42-1.32c.02-1.18-.48-3-2.56-3-1.87,0-2.69,1.72-2.83,3h5.4Z"/><path d="m103.45,297.75c0-1.2-.02-2.23-.08-3.17h1.62l.06,1.99h.08c.46-1.36,1.58-2.23,2.81-2.23.21,0,.36.02.53.06v1.74c-.19-.04-.38-.06-.63-.06-1.3,0-2.22.99-2.48,2.37-.04.25-.08.55-.08.86v5.42h-1.83v-6.99Z"/><path d="m114.18,304.74v-1.13l1.45-1.41c3.49-3.32,5.06-5.08,5.08-7.14,0-1.39-.67-2.67-2.71-2.67-1.24,0-2.27.63-2.9,1.15l-.59-1.3c.94-.8,2.29-1.39,3.86-1.39,2.94,0,4.18,2.02,4.18,3.97,0,2.52-1.83,4.56-4.7,7.33l-1.09,1.01v.04h6.13v1.53h-8.71Z"/></g><g><rect class="cls-1" x="25.22" y="317.32" width="163.15" height="146.54"/><path d="m186.87,318.82v143.54H26.72v-143.54h160.15m3-3H23.72v149.54h166.15v-149.54h0Z"/></g><g><path d="m78.81,332.15c-.1-1.97-.23-4.35-.21-6.11h-.06c-.48,1.66-1.07,3.42-1.79,5.38l-2.5,6.87h-1.39l-2.29-6.74c-.67-1.99-1.24-3.82-1.64-5.5h-.04c-.04,1.76-.15,4.14-.27,6.26l-.38,6.07h-1.74l.99-14.15h2.33l2.42,6.84c.59,1.74,1.07,3.3,1.43,4.77h.06c.36-1.43.86-2.98,1.49-4.77l2.52-6.84h2.33l.88,14.15h-1.79l-.36-6.21Z"/><path d="m89.46,338.37l-.15-1.28h-.06c-.57.8-1.66,1.51-3.11,1.51-2.06,0-3.11-1.45-3.11-2.92,0-2.46,2.18-3.8,6.11-3.78v-.21c0-.84-.23-2.35-2.31-2.35-.94,0-1.93.29-2.65.76l-.42-1.22c.84-.55,2.06-.9,3.34-.9,3.11,0,3.86,2.12,3.86,4.16v3.8c0,.88.04,1.74.17,2.44h-1.68Zm-.27-5.19c-2.02-.04-4.3.32-4.3,2.29,0,1.2.8,1.76,1.74,1.76,1.32,0,2.16-.84,2.46-1.7.06-.19.1-.4.1-.59v-1.76Z"/><path d="m93.95,330.96c0-1.05-.02-1.91-.08-2.75h1.64l.11,1.68h.04c.5-.97,1.68-1.91,3.36-1.91,1.41,0,3.59.84,3.59,4.33v6.07h-1.85v-5.86c0-1.64-.61-3-2.35-3-1.22,0-2.16.86-2.48,1.89-.08.23-.12.55-.12.86v6.11h-1.85v-7.41Z"/><path d="m111.24,338.37l-.15-1.28h-.06c-.57.8-1.66,1.51-3.11,1.51-2.06,0-3.11-1.45-3.11-2.92,0-2.46,2.18-3.8,6.11-3.78v-.21c0-.84-.23-2.35-2.31-2.35-.94,0-1.93.29-2.64.76l-.42-1.22c.84-.55,2.06-.9,3.34-.9,3.11,0,3.86,2.12,3.86,4.16v3.8c0,.88.04,1.74.17,2.44h-1.68Zm-.27-5.19c-2.02-.04-4.3.32-4.3,2.29,0,1.2.8,1.76,1.74,1.76,1.32,0,2.16-.84,2.46-1.7.06-.19.1-.4.1-.59v-1.76Z"/><path d="m124.49,328.21c-.04.73-.08,1.55-.08,2.79v5.9c0,2.33-.46,3.76-1.45,4.64-.99.92-2.42,1.22-3.7,1.22s-2.56-.29-3.38-.84l.46-1.41c.67.42,1.72.8,2.98.8,1.89,0,3.28-.99,3.28-3.55v-1.13h-.04c-.57.95-1.66,1.7-3.23,1.7-2.52,0-4.33-2.14-4.33-4.96,0-3.44,2.25-5.4,4.58-5.4,1.76,0,2.73.92,3.17,1.76h.04l.08-1.53h1.62Zm-1.91,4.01c0-.31-.02-.59-.11-.84-.34-1.07-1.24-1.95-2.58-1.95-1.76,0-3.02,1.49-3.02,3.84,0,2,1.01,3.65,3,3.65,1.13,0,2.16-.71,2.56-1.89.1-.31.15-.67.15-.99v-1.83Z"/><path d="m128.5,333.62c.04,2.5,1.64,3.53,3.49,3.53,1.32,0,2.12-.23,2.81-.53l.32,1.32c-.65.29-1.76.63-3.38.63-3.13,0-5-2.06-5-5.12s1.81-5.48,4.77-5.48c3.32,0,4.2,2.92,4.2,4.79,0,.38-.04.67-.06.86h-7.14Zm5.42-1.32c.02-1.18-.48-3-2.56-3-1.87,0-2.69,1.72-2.83,3h5.4Z"/><path d="m146.77,323.46v12.28c0,.9.02,1.93.08,2.62h-1.66l-.08-1.76h-.04c-.57,1.13-1.8,1.99-3.46,1.99-2.46,0-4.35-2.08-4.35-5.17-.02-3.38,2.08-5.46,4.56-5.46,1.55,0,2.6.74,3.07,1.55h.04v-6.07h1.85Zm-1.85,8.88c0-.23-.02-.55-.08-.78-.27-1.18-1.28-2.14-2.67-2.14-1.91,0-3.04,1.68-3.04,3.93,0,2.06,1.01,3.76,3,3.76,1.24,0,2.37-.82,2.71-2.21.06-.25.08-.5.08-.8v-1.76Z"/><path d="m60.15,359.12l-1.47,4.45h-1.89l4.81-14.15h2.21l4.83,14.15h-1.95l-1.51-4.45h-5.02Zm4.64-1.43l-1.39-4.07c-.32-.92-.52-1.76-.74-2.58h-.04c-.21.84-.44,1.7-.71,2.56l-1.38,4.09h4.26Z"/><path d="m70.59,356.72c0-1.3-.04-2.35-.08-3.32h1.66l.08,1.74h.04c.76-1.24,1.95-1.97,3.61-1.97,2.46,0,4.3,2.08,4.3,5.17,0,3.65-2.23,5.46-4.62,5.46-1.34,0-2.52-.59-3.13-1.6h-.04v5.52h-1.83v-11Zm1.83,2.71c0,.27.04.52.08.76.34,1.28,1.45,2.16,2.77,2.16,1.95,0,3.09-1.6,3.09-3.93,0-2.04-1.07-3.78-3.02-3.78-1.26,0-2.44.9-2.79,2.29-.06.23-.13.5-.13.76v1.74Z"/><path d="m82.54,356.72c0-1.3-.04-2.35-.08-3.32h1.66l.08,1.74h.04c.76-1.24,1.95-1.97,3.61-1.97,2.46,0,4.3,2.08,4.3,5.17,0,3.65-2.23,5.46-4.62,5.46-1.34,0-2.52-.59-3.13-1.6h-.04v5.52h-1.83v-11Zm1.83,2.71c0,.27.04.52.08.76.34,1.28,1.45,2.16,2.77,2.16,1.95,0,3.09-1.6,3.09-3.93,0-2.04-1.07-3.78-3.02-3.78-1.26,0-2.44.9-2.79,2.29-.06.23-.13.5-.13.76v1.74Z"/><path d="m94.49,348.66h1.85v14.91h-1.85v-14.91Z"/><path d="m101.5,350.55c.02.63-.44,1.13-1.18,1.13-.65,0-1.11-.5-1.11-1.13s.48-1.15,1.15-1.15,1.13.5,1.13,1.15Zm-2.06,13.02v-10.16h1.85v10.16h-1.85Z"/><path d="m111.6,363.19c-.48.25-1.55.59-2.92.59-3.07,0-5.06-2.08-5.06-5.19s2.14-5.4,5.46-5.4c1.09,0,2.06.27,2.56.53l-.42,1.43c-.44-.25-1.13-.48-2.14-.48-2.33,0-3.59,1.72-3.59,3.84,0,2.35,1.51,3.8,3.53,3.8,1.05,0,1.74-.27,2.27-.5l.31,1.39Z"/><path d="m119.39,363.57l-.15-1.28h-.06c-.57.8-1.66,1.51-3.11,1.51-2.06,0-3.11-1.45-3.11-2.92,0-2.46,2.18-3.8,6.11-3.78v-.21c0-.84-.23-2.35-2.31-2.35-.94,0-1.93.29-2.64.76l-.42-1.22c.84-.55,2.06-.9,3.34-.9,3.11,0,3.86,2.12,3.86,4.16v3.8c0,.88.04,1.74.17,2.44h-1.68Zm-.27-5.19c-2.02-.04-4.3.31-4.3,2.29,0,1.2.8,1.76,1.74,1.76,1.32,0,2.16-.84,2.46-1.7.06-.19.1-.4.1-.59v-1.76Z"/><path d="m126.03,350.49v2.92h2.65v1.41h-2.65v5.48c0,1.26.36,1.97,1.39,1.97.48,0,.84-.06,1.07-.13l.08,1.39c-.36.15-.92.25-1.64.25-.86,0-1.55-.27-1.99-.78-.53-.55-.71-1.45-.71-2.65v-5.54h-1.58v-1.41h1.58v-2.44l1.81-.48Z"/><path d="m132.81,350.55c.02.63-.44,1.13-1.18,1.13-.65,0-1.11-.5-1.11-1.13s.48-1.15,1.15-1.15,1.13.5,1.13,1.15Zm-2.06,13.02v-10.16h1.85v10.16h-1.85Z"/><path d="m144.87,358.4c0,3.76-2.6,5.4-5.06,5.4-2.75,0-4.87-2.02-4.87-5.23,0-3.4,2.23-5.4,5.04-5.4s4.89,2.12,4.89,5.23Zm-8.06.11c0,2.23,1.28,3.91,3.09,3.91s3.09-1.66,3.09-3.95c0-1.72-.86-3.91-3.04-3.91s-3.13,2.02-3.13,3.95Z"/><path d="m147.2,356.16c0-1.05-.02-1.91-.08-2.75h1.64l.1,1.68h.04c.5-.97,1.68-1.91,3.36-1.91,1.41,0,3.59.84,3.59,4.33v6.07h-1.85v-5.86c0-1.64-.61-3-2.35-3-1.22,0-2.16.86-2.48,1.89-.08.23-.13.55-.13.86v6.11h-1.85v-7.41Z"/></g><g><g><rect class="cls-1" x="47.37" y="378.24" width="124.38" height="69"/><path d="m170.26,379.74v66H48.87v-66h121.38m3-3H45.87v72h127.38v-72h0Z"/></g><g><path d="m62.92,415.75l-1.47,4.45h-1.89l4.81-14.15h2.21l4.83,14.15h-1.95l-1.51-4.45h-5.02Zm4.64-1.43l-1.39-4.07c-.31-.92-.52-1.76-.73-2.58h-.04c-.21.84-.44,1.7-.71,2.56l-1.39,4.09h4.26Z"/><path d="m73.36,413.35c0-1.3-.04-2.35-.08-3.32h1.66l.08,1.74h.04c.76-1.24,1.95-1.97,3.61-1.97,2.46,0,4.3,2.08,4.3,5.17,0,3.65-2.23,5.46-4.62,5.46-1.34,0-2.52-.59-3.13-1.6h-.04v5.52h-1.83v-11Zm1.83,2.71c0,.27.04.52.08.76.34,1.28,1.45,2.16,2.77,2.16,1.95,0,3.09-1.6,3.09-3.93,0-2.04-1.07-3.78-3.02-3.78-1.26,0-2.44.9-2.79,2.29-.06.23-.13.5-.13.76v1.74Z"/><path d="m85.31,413.35c0-1.3-.04-2.35-.08-3.32h1.66l.08,1.74h.04c.76-1.24,1.95-1.97,3.61-1.97,2.46,0,4.3,2.08,4.3,5.17,0,3.65-2.23,5.46-4.62,5.46-1.34,0-2.52-.59-3.13-1.6h-.04v5.52h-1.83v-11Zm1.83,2.71c0,.27.04.52.08.76.34,1.28,1.45,2.16,2.77,2.16,1.95,0,3.09-1.6,3.09-3.93,0-2.04-1.07-3.78-3.02-3.78-1.26,0-2.44.9-2.79,2.29-.06.23-.13.5-.13.76v1.74Z"/><path d="m97.26,405.29h1.85v14.91h-1.85v-14.91Z"/><path d="m104.27,407.18c.02.63-.44,1.13-1.18,1.13-.65,0-1.11-.5-1.11-1.13s.48-1.15,1.16-1.15,1.13.5,1.13,1.15Zm-2.06,13.02v-10.16h1.85v10.16h-1.85Z"/><path d="m114.37,419.82c-.48.25-1.55.59-2.92.59-3.07,0-5.06-2.08-5.06-5.19s2.14-5.4,5.46-5.4c1.09,0,2.06.27,2.56.53l-.42,1.43c-.44-.25-1.13-.48-2.14-.48-2.33,0-3.59,1.72-3.59,3.84,0,2.35,1.51,3.8,3.53,3.8,1.05,0,1.74-.27,2.27-.5l.31,1.39Z"/><path d="m122.16,420.2l-.15-1.28h-.06c-.57.8-1.66,1.51-3.11,1.51-2.06,0-3.11-1.45-3.11-2.92,0-2.46,2.18-3.8,6.11-3.78v-.21c0-.84-.23-2.35-2.31-2.35-.94,0-1.93.29-2.65.76l-.42-1.22c.84-.55,2.06-.9,3.34-.9,3.11,0,3.86,2.12,3.86,4.16v3.8c0,.88.04,1.74.17,2.44h-1.68Zm-.27-5.19c-2.02-.04-4.3.31-4.3,2.29,0,1.2.8,1.76,1.74,1.76,1.32,0,2.16-.84,2.46-1.7.06-.19.1-.4.1-.59v-1.76Z"/><path d="m128.8,407.12v2.92h2.65v1.41h-2.65v5.48c0,1.26.36,1.97,1.39,1.97.48,0,.84-.06,1.07-.13l.08,1.39c-.36.15-.92.25-1.64.25-.86,0-1.55-.27-1.99-.78-.53-.55-.71-1.45-.71-2.65v-5.54h-1.58v-1.41h1.58v-2.44l1.81-.48Z"/><path d="m135.58,407.18c.02.63-.44,1.13-1.18,1.13-.65,0-1.11-.5-1.11-1.13s.48-1.15,1.15-1.15,1.13.5,1.13,1.15Zm-2.06,13.02v-10.16h1.85v10.16h-1.85Z"/><path d="m147.64,415.03c0,3.76-2.6,5.4-5.06,5.4-2.75,0-4.87-2.02-4.87-5.23,0-3.4,2.23-5.4,5.04-5.4s4.89,2.12,4.89,5.23Zm-8.06.11c0,2.23,1.28,3.91,3.09,3.91s3.09-1.66,3.09-3.95c0-1.72-.86-3.91-3.04-3.91s-3.13,2.02-3.13,3.95Z"/><path d="m149.97,412.79c0-1.05-.02-1.91-.08-2.75h1.64l.1,1.68h.04c.5-.97,1.68-1.91,3.36-1.91,1.41,0,3.59.84,3.59,4.33v6.07h-1.85v-5.86c0-1.64-.61-3-2.35-3-1.22,0-2.16.86-2.48,1.89-.08.23-.13.55-.13.86v6.11h-1.85v-7.41Z"/></g></g><g><path d="m35.2,99.36c-.67.34-2.02.67-3.74.67-3.99,0-6.99-2.52-6.99-7.16s3-7.43,7.39-7.43c1.76,0,2.88.38,3.36.63l-.44,1.49c-.69-.34-1.68-.59-2.86-.59-3.32,0-5.52,2.12-5.52,5.84,0,3.46,1.99,5.69,5.44,5.69,1.11,0,2.25-.23,2.98-.59l.38,1.45Z"/><path d="m45.68,97.05c0,1.05.02,1.97.08,2.77h-1.64l-.11-1.66h-.04c-.48.82-1.55,1.89-3.36,1.89-1.6,0-3.51-.88-3.51-4.45v-5.94h1.85v5.63c0,1.93.59,3.23,2.27,3.23,1.24,0,2.1-.86,2.44-1.68.11-.27.17-.61.17-.94v-6.24h1.85v7.39Z"/><path d="m48.5,97.93c.54.36,1.51.73,2.44.73,1.34,0,1.97-.67,1.97-1.51,0-.88-.52-1.36-1.89-1.87-1.83-.65-2.69-1.66-2.69-2.88,0-1.64,1.32-2.98,3.51-2.98,1.03,0,1.93.29,2.5.63l-.46,1.34c-.4-.25-1.13-.59-2.08-.59-1.09,0-1.7.63-1.7,1.39,0,.84.61,1.22,1.93,1.72,1.76.67,2.67,1.55,2.67,3.07,0,1.78-1.39,3.04-3.8,3.04-1.11,0-2.14-.27-2.86-.69l.46-1.41Z"/><path d="m59.29,86.74v2.92h2.65v1.41h-2.65v5.48c0,1.26.36,1.97,1.39,1.97.48,0,.84-.06,1.07-.13l.08,1.39c-.36.15-.92.25-1.64.25-.86,0-1.55-.27-1.99-.78-.53-.55-.71-1.45-.71-2.65v-5.54h-1.58v-1.41h1.58v-2.44l1.81-.48Z"/><path d="m73.09,94.66c0,3.76-2.6,5.4-5.06,5.4-2.75,0-4.87-2.02-4.87-5.23,0-3.4,2.22-5.4,5.04-5.4s4.89,2.12,4.89,5.23Zm-8.06.1c0,2.23,1.28,3.91,3.09,3.91s3.09-1.66,3.09-3.95c0-1.72-.86-3.91-3.04-3.91s-3.13,2.02-3.13,3.95Z"/><path d="m75.42,92.41c0-1.05-.02-1.91-.08-2.75h1.62l.08,1.64h.06c.57-.97,1.51-1.87,3.19-1.87,1.38,0,2.44.84,2.88,2.04h.04c.31-.57.71-1.01,1.13-1.32.61-.46,1.28-.71,2.25-.71,1.34,0,3.34.88,3.34,4.41v5.98h-1.81v-5.75c0-1.95-.71-3.13-2.2-3.13-1.05,0-1.87.78-2.18,1.68-.08.25-.15.59-.15.92v6.28h-1.81v-6.09c0-1.62-.71-2.79-2.12-2.79-1.15,0-1.99.92-2.29,1.85-.1.27-.15.59-.15.9v6.13h-1.8v-7.41Z"/><path d="m93.96,95.08c.04,2.5,1.64,3.53,3.48,3.53,1.32,0,2.12-.23,2.81-.52l.31,1.32c-.65.29-1.76.63-3.38.63-3.13,0-5-2.06-5-5.12s1.8-5.48,4.77-5.48c3.32,0,4.2,2.92,4.2,4.79,0,.38-.04.67-.06.86h-7.14Zm5.42-1.32c.02-1.18-.48-3-2.56-3-1.87,0-2.69,1.72-2.83,3h5.4Z"/><path d="m103.45,92.83c0-1.2-.02-2.23-.08-3.17h1.62l.06,1.99h.08c.46-1.36,1.58-2.23,2.81-2.23.21,0,.36.02.53.06v1.74c-.19-.04-.38-.06-.63-.06-1.3,0-2.22.99-2.48,2.37-.04.25-.08.55-.08.86v5.42h-1.83v-6.99Z"/><path d="m118.19,87.89h-.04l-2.37,1.28-.36-1.41,2.98-1.6h1.58v13.65h-1.79v-11.93Z"/></g><g><rect class="cls-1" x="25.22" y="112.4" width="161.59" height="146.54"/><path d="m185.31,113.9v143.54H26.72V113.9h158.59m3-3H23.72v149.54h164.59V110.9h0Z"/></g><g><path d="m78.81,127.23c-.1-1.97-.23-4.35-.21-6.11h-.06c-.48,1.66-1.07,3.42-1.79,5.38l-2.5,6.87h-1.39l-2.29-6.74c-.67-1.99-1.24-3.82-1.64-5.5h-.04c-.04,1.76-.15,4.14-.27,6.26l-.38,6.07h-1.74l.99-14.15h2.33l2.42,6.84c.59,1.74,1.07,3.3,1.43,4.77h.06c.36-1.43.86-2.98,1.49-4.77l2.52-6.84h2.33l.88,14.15h-1.79l-.36-6.21Z"/><path d="m89.46,133.44l-.15-1.28h-.06c-.57.8-1.66,1.51-3.11,1.51-2.06,0-3.11-1.45-3.11-2.92,0-2.46,2.18-3.8,6.11-3.78v-.21c0-.84-.23-2.35-2.31-2.35-.94,0-1.93.29-2.65.76l-.42-1.22c.84-.55,2.06-.9,3.34-.9,3.11,0,3.86,2.12,3.86,4.16v3.8c0,.88.04,1.74.17,2.44h-1.68Zm-.27-5.19c-2.02-.04-4.3.31-4.3,2.29,0,1.2.8,1.76,1.74,1.76,1.32,0,2.16-.84,2.46-1.7.06-.19.1-.4.1-.59v-1.76Z"/><path d="m93.95,126.03c0-1.05-.02-1.91-.08-2.75h1.64l.11,1.68h.04c.5-.97,1.68-1.91,3.36-1.91,1.41,0,3.59.84,3.59,4.33v6.07h-1.85v-5.86c0-1.64-.61-3-2.35-3-1.22,0-2.16.86-2.48,1.89-.08.23-.12.55-.12.86v6.11h-1.85v-7.41Z"/><path d="m111.24,133.44l-.15-1.28h-.06c-.57.8-1.66,1.51-3.11,1.51-2.06,0-3.11-1.45-3.11-2.92,0-2.46,2.18-3.8,6.11-3.78v-.21c0-.84-.23-2.35-2.31-2.35-.94,0-1.93.29-2.64.76l-.42-1.22c.84-.55,2.06-.9,3.34-.9,3.11,0,3.86,2.12,3.86,4.16v3.8c0,.88.04,1.74.17,2.44h-1.68Zm-.27-5.19c-2.02-.04-4.3.31-4.3,2.29,0,1.2.8,1.76,1.74,1.76,1.32,0,2.16-.84,2.46-1.7.06-.19.1-.4.1-.59v-1.76Z"/><path d="m124.49,123.28c-.04.73-.08,1.55-.08,2.79v5.9c0,2.33-.46,3.76-1.45,4.64-.99.92-2.42,1.22-3.7,1.22s-2.56-.29-3.38-.84l.46-1.41c.67.42,1.72.8,2.98.8,1.89,0,3.28-.99,3.28-3.55v-1.13h-.04c-.57.94-1.66,1.7-3.23,1.7-2.52,0-4.33-2.14-4.33-4.96,0-3.44,2.25-5.4,4.58-5.4,1.76,0,2.73.92,3.17,1.76h.04l.08-1.53h1.62Zm-1.91,4.01c0-.31-.02-.59-.11-.84-.34-1.07-1.24-1.95-2.58-1.95-1.76,0-3.02,1.49-3.02,3.84,0,1.99,1.01,3.65,3,3.65,1.13,0,2.16-.71,2.56-1.89.1-.31.15-.67.15-.99v-1.83Z"/><path d="m128.5,128.7c.04,2.5,1.64,3.53,3.49,3.53,1.32,0,2.12-.23,2.81-.52l.32,1.32c-.65.29-1.76.63-3.38.63-3.13,0-5-2.06-5-5.12s1.81-5.48,4.77-5.48c3.32,0,4.2,2.92,4.2,4.79,0,.38-.04.67-.06.86h-7.14Zm5.42-1.32c.02-1.18-.48-3-2.56-3-1.87,0-2.69,1.72-2.83,3h5.4Z"/><path d="m146.77,118.54v12.28c0,.9.02,1.93.08,2.62h-1.66l-.08-1.76h-.04c-.57,1.13-1.8,1.99-3.46,1.99-2.46,0-4.35-2.08-4.35-5.17-.02-3.38,2.08-5.46,4.56-5.46,1.55,0,2.6.73,3.07,1.55h.04v-6.07h1.85Zm-1.85,8.88c0-.23-.02-.55-.08-.78-.27-1.18-1.28-2.14-2.67-2.14-1.91,0-3.04,1.68-3.04,3.93,0,2.06,1.01,3.76,3,3.76,1.24,0,2.37-.82,2.71-2.2.06-.25.08-.5.08-.8v-1.76Z"/><path d="m60.15,154.19l-1.47,4.45h-1.89l4.81-14.15h2.21l4.83,14.15h-1.95l-1.51-4.45h-5.02Zm4.64-1.43l-1.39-4.07c-.32-.92-.52-1.76-.74-2.58h-.04c-.21.84-.44,1.7-.71,2.56l-1.38,4.09h4.26Z"/><path d="m70.59,151.8c0-1.3-.04-2.35-.08-3.32h1.66l.08,1.74h.04c.76-1.24,1.95-1.97,3.61-1.97,2.46,0,4.3,2.08,4.3,5.17,0,3.65-2.23,5.46-4.62,5.46-1.34,0-2.52-.59-3.13-1.6h-.04v5.52h-1.83v-11Zm1.83,2.71c0,.27.04.52.08.76.34,1.28,1.45,2.16,2.77,2.16,1.95,0,3.09-1.6,3.09-3.93,0-2.04-1.07-3.78-3.02-3.78-1.26,0-2.44.9-2.79,2.29-.06.23-.13.5-.13.76v1.74Z"/><path d="m82.54,151.8c0-1.3-.04-2.35-.08-3.32h1.66l.08,1.74h.04c.76-1.24,1.95-1.97,3.61-1.97,2.46,0,4.3,2.08,4.3,5.17,0,3.65-2.23,5.46-4.62,5.46-1.34,0-2.52-.59-3.13-1.6h-.04v5.52h-1.83v-11Zm1.83,2.71c0,.27.04.52.08.76.34,1.28,1.45,2.16,2.77,2.16,1.95,0,3.09-1.6,3.09-3.93,0-2.04-1.07-3.78-3.02-3.78-1.26,0-2.44.9-2.79,2.29-.06.23-.13.5-.13.76v1.74Z"/><path d="m94.49,143.74h1.85v14.91h-1.85v-14.91Z"/><path d="m101.5,145.63c.02.63-.44,1.13-1.18,1.13-.65,0-1.11-.5-1.11-1.13s.48-1.15,1.15-1.15,1.13.5,1.13,1.15Zm-2.06,13.02v-10.16h1.85v10.16h-1.85Z"/><path d="m111.6,158.27c-.48.25-1.55.59-2.92.59-3.07,0-5.06-2.08-5.06-5.19s2.14-5.4,5.46-5.4c1.09,0,2.06.27,2.56.52l-.42,1.43c-.44-.25-1.13-.48-2.14-.48-2.33,0-3.59,1.72-3.59,3.84,0,2.35,1.51,3.8,3.53,3.8,1.05,0,1.74-.27,2.27-.5l.31,1.39Z"/><path d="m119.39,158.64l-.15-1.28h-.06c-.57.8-1.66,1.51-3.11,1.51-2.06,0-3.11-1.45-3.11-2.92,0-2.46,2.18-3.8,6.11-3.78v-.21c0-.84-.23-2.35-2.31-2.35-.94,0-1.93.29-2.64.76l-.42-1.22c.84-.55,2.06-.9,3.34-.9,3.11,0,3.86,2.12,3.86,4.16v3.8c0,.88.04,1.74.17,2.44h-1.68Zm-.27-5.19c-2.02-.04-4.3.31-4.3,2.29,0,1.2.8,1.76,1.74,1.76,1.32,0,2.16-.84,2.46-1.7.06-.19.1-.4.1-.59v-1.76Z"/><path d="m126.03,145.56v2.92h2.65v1.41h-2.65v5.48c0,1.26.36,1.97,1.39,1.97.48,0,.84-.06,1.07-.13l.08,1.39c-.36.15-.92.25-1.64.25-.86,0-1.55-.27-1.99-.78-.53-.55-.71-1.45-.71-2.65v-5.54h-1.58v-1.41h1.58v-2.44l1.81-.48Z"/><path d="m132.81,145.63c.02.63-.44,1.13-1.18,1.13-.65,0-1.11-.5-1.11-1.13s.48-1.15,1.15-1.15,1.13.5,1.13,1.15Zm-2.06,13.02v-10.16h1.85v10.16h-1.85Z"/><path d="m144.87,153.48c0,3.76-2.6,5.4-5.06,5.4-2.75,0-4.87-2.02-4.87-5.23,0-3.4,2.23-5.4,5.04-5.4s4.89,2.12,4.89,5.23Zm-8.06.1c0,2.23,1.28,3.91,3.09,3.91s3.09-1.66,3.09-3.95c0-1.72-.86-3.91-3.04-3.91s-3.13,2.02-3.13,3.95Z"/><path d="m147.2,151.23c0-1.05-.02-1.91-.08-2.75h1.64l.1,1.68h.04c.5-.97,1.68-1.91,3.36-1.91,1.41,0,3.59.84,3.59,4.33v6.07h-1.85v-5.86c0-1.64-.61-3-2.35-3-1.22,0-2.16.86-2.48,1.89-.08.23-.13.55-.13.86v6.11h-1.85v-7.41Z"/></g><g><g><rect class="cls-1" x="47.37" y="173.32" width="124.38" height="69"/><path d="m170.26,174.82v66H48.87v-66h121.38m3-3H45.87v72h127.38v-72h0Z"/></g><g><path d="m62.92,210.82l-1.47,4.45h-1.89l4.81-14.15h2.21l4.83,14.15h-1.95l-1.51-4.45h-5.02Zm4.64-1.43l-1.39-4.07c-.31-.92-.52-1.76-.73-2.58h-.04c-.21.84-.44,1.7-.71,2.56l-1.39,4.09h4.26Z"/><path d="m73.36,208.43c0-1.3-.04-2.35-.08-3.32h1.66l.08,1.74h.04c.76-1.24,1.95-1.97,3.61-1.97,2.46,0,4.3,2.08,4.3,5.17,0,3.65-2.23,5.46-4.62,5.46-1.34,0-2.52-.59-3.13-1.6h-.04v5.52h-1.83v-11Zm1.83,2.71c0,.27.04.52.08.76.34,1.28,1.45,2.16,2.77,2.16,1.95,0,3.09-1.6,3.09-3.93,0-2.04-1.07-3.78-3.02-3.78-1.26,0-2.44.9-2.79,2.29-.06.23-.13.5-.13.76v1.74Z"/><path d="m85.31,208.43c0-1.3-.04-2.35-.08-3.32h1.66l.08,1.74h.04c.76-1.24,1.95-1.97,3.61-1.97,2.46,0,4.3,2.08,4.3,5.17,0,3.65-2.23,5.46-4.62,5.46-1.34,0-2.52-.59-3.13-1.6h-.04v5.52h-1.83v-11Zm1.83,2.71c0,.27.04.52.08.76.34,1.28,1.45,2.16,2.77,2.16,1.95,0,3.09-1.6,3.09-3.93,0-2.04-1.07-3.78-3.02-3.78-1.26,0-2.44.9-2.79,2.29-.06.23-.13.5-.13.76v1.74Z"/><path d="m97.26,200.37h1.85v14.91h-1.85v-14.91Z"/><path d="m104.27,202.26c.02.63-.44,1.13-1.18,1.13-.65,0-1.11-.5-1.11-1.13s.48-1.15,1.16-1.15,1.13.5,1.13,1.15Zm-2.06,13.02v-10.16h1.85v10.16h-1.85Z"/><path d="m114.37,214.9c-.48.25-1.55.59-2.92.59-3.07,0-5.06-2.08-5.06-5.19s2.14-5.4,5.46-5.4c1.09,0,2.06.27,2.56.52l-.42,1.43c-.44-.25-1.13-.48-2.14-.48-2.33,0-3.59,1.72-3.59,3.84,0,2.35,1.51,3.8,3.53,3.8,1.05,0,1.74-.27,2.27-.5l.31,1.39Z"/><path d="m122.16,215.28l-.15-1.28h-.06c-.57.8-1.66,1.51-3.11,1.51-2.06,0-3.11-1.45-3.11-2.92,0-2.46,2.18-3.8,6.11-3.78v-.21c0-.84-.23-2.35-2.31-2.35-.94,0-1.93.29-2.65.76l-.42-1.22c.84-.55,2.06-.9,3.34-.9,3.11,0,3.86,2.12,3.86,4.16v3.8c0,.88.04,1.74.17,2.44h-1.68Zm-.27-5.19c-2.02-.04-4.3.31-4.3,2.29,0,1.2.8,1.76,1.74,1.76,1.32,0,2.16-.84,2.46-1.7.06-.19.1-.4.1-.59v-1.76Z"/><path d="m128.8,202.19v2.92h2.65v1.41h-2.65v5.48c0,1.26.36,1.97,1.39,1.97.48,0,.84-.06,1.07-.13l.08,1.39c-.36.15-.92.25-1.64.25-.86,0-1.55-.27-1.99-.78-.53-.55-.71-1.45-.71-2.65v-5.54h-1.58v-1.41h1.58v-2.44l1.81-.48Z"/><path d="m135.58,202.26c.02.63-.44,1.13-1.18,1.13-.65,0-1.11-.5-1.11-1.13s.48-1.15,1.15-1.15,1.13.5,1.13,1.15Zm-2.06,13.02v-10.16h1.85v10.16h-1.85Z"/><path d="m147.64,210.11c0,3.76-2.6,5.4-5.06,5.4-2.75,0-4.87-2.02-4.87-5.23,0-3.4,2.23-5.4,5.04-5.4s4.89,2.12,4.89,5.23Zm-8.06.1c0,2.23,1.28,3.91,3.09,3.91s3.09-1.66,3.09-3.95c0-1.72-.86-3.91-3.04-3.91s-3.13,2.02-3.13,3.95Z"/><path d="m149.97,207.86c0-1.05-.02-1.91-.08-2.75h1.64l.1,1.68h.04c.5-.97,1.68-1.91,3.36-1.91,1.41,0,3.59.84,3.59,4.33v6.07h-1.85v-5.86c0-1.64-.61-3-2.35-3-1.22,0-2.16.86-2.48,1.89-.08.23-.13.55-.13.86v6.11h-1.85v-7.41Z"/></g></g><ellipse class="cls-2" cx="448.62" cy="559.8" rx="88.62" ry="20.35"/><path class="cls-2" d="m537.23,559.8c0,11.24-39.67,20.35-88.62,20.35s-88.62-9.11-88.62-20.35v67.85c0,11.24,39.67,20.35,88.62,20.35s88.62-9.11,88.62-20.35v-67.85Z"/><g><path d="m391.11,596.79v14.15h-1.83v-14.15h1.83Z"/><path d="m394.05,608.71c.82.5,2.02.92,3.28.92,1.87,0,2.96-.99,2.96-2.41,0-1.32-.76-2.08-2.67-2.81-2.31-.82-3.74-2.02-3.74-4.01,0-2.21,1.83-3.84,4.58-3.84,1.45,0,2.5.34,3.13.69l-.5,1.49c-.46-.25-1.41-.67-2.69-.67-1.93,0-2.67,1.15-2.67,2.12,0,1.32.86,1.97,2.81,2.73,2.39.92,3.61,2.08,3.61,4.16,0,2.18-1.62,4.07-4.96,4.07-1.36,0-2.86-.4-3.61-.9l.46-1.53Z"/><path d="m407.76,610.94l-4.62-14.15h1.97l2.21,6.97c.61,1.91,1.13,3.63,1.51,5.29h.04c.4-1.64.99-3.42,1.62-5.27l2.39-6.99h1.95l-5.06,14.15h-2.02Z"/><path d="m420.82,596.98c1.11-.17,2.44-.29,3.88-.29,2.62,0,4.49.61,5.73,1.76,1.26,1.16,1.99,2.79,1.99,5.08s-.71,4.2-2.04,5.5c-1.32,1.32-3.51,2.04-6.26,2.04-1.3,0-2.39-.06-3.32-.17v-13.92Zm1.83,12.51c.46.08,1.13.1,1.85.1,3.9,0,6.03-2.18,6.03-6,.02-3.34-1.87-5.46-5.73-5.46-.94,0-1.66.08-2.14.19v11.17Z"/><path d="m440.37,610.94l-.15-1.28h-.06c-.57.8-1.66,1.51-3.11,1.51-2.06,0-3.11-1.45-3.11-2.92,0-2.46,2.18-3.8,6.11-3.78v-.21c0-.84-.23-2.35-2.31-2.35-.95,0-1.93.29-2.65.76l-.42-1.22c.84-.55,2.06-.9,3.34-.9,3.11,0,3.86,2.12,3.86,4.16v3.8c0,.88.04,1.74.17,2.44h-1.68Zm-.27-5.19c-2.02-.04-4.3.32-4.3,2.29,0,1.2.8,1.76,1.74,1.76,1.32,0,2.16-.84,2.46-1.7.06-.19.11-.4.11-.59v-1.76Z"/><path d="m447.01,597.86v2.92h2.64v1.41h-2.64v5.48c0,1.26.36,1.97,1.38,1.97.48,0,.84-.06,1.07-.13l.08,1.39c-.36.15-.92.25-1.64.25-.86,0-1.55-.27-1.99-.78-.53-.54-.71-1.45-.71-2.64v-5.54h-1.57v-1.41h1.57v-2.44l1.81-.48Z"/><path d="m457.36,610.94l-.15-1.28h-.06c-.57.8-1.66,1.51-3.11,1.51-2.06,0-3.11-1.45-3.11-2.92,0-2.46,2.18-3.8,6.11-3.78v-.21c0-.84-.23-2.35-2.31-2.35-.94,0-1.93.29-2.65.76l-.42-1.22c.84-.55,2.06-.9,3.34-.9,3.11,0,3.86,2.12,3.86,4.16v3.8c0,.88.04,1.74.17,2.44h-1.68Zm-.27-5.19c-2.02-.04-4.3.32-4.3,2.29,0,1.2.8,1.76,1.74,1.76,1.32,0,2.16-.84,2.46-1.7.06-.19.1-.4.1-.59v-1.76Z"/><path d="m461.77,610.94c.04-.69.08-1.72.08-2.62v-12.28h1.83v6.38h.04c.65-1.13,1.83-1.87,3.46-1.87,2.52,0,4.3,2.1,4.28,5.19,0,3.63-2.29,5.44-4.56,5.44-1.47,0-2.65-.57-3.4-1.91h-.06l-.08,1.68h-1.6Zm1.91-4.07c0,.23.04.46.08.67.36,1.28,1.43,2.16,2.77,2.16,1.93,0,3.09-1.57,3.09-3.9,0-2.04-1.05-3.78-3.02-3.78-1.26,0-2.44.86-2.81,2.27-.04.21-.11.46-.11.76v1.83Z"/><path d="m479.43,610.94l-.15-1.28h-.06c-.57.8-1.66,1.51-3.11,1.51-2.06,0-3.11-1.45-3.11-2.92,0-2.46,2.18-3.8,6.11-3.78v-.21c0-.84-.23-2.35-2.31-2.35-.94,0-1.93.29-2.65.76l-.42-1.22c.84-.55,2.06-.9,3.34-.9,3.11,0,3.86,2.12,3.86,4.16v3.8c0,.88.04,1.74.17,2.44h-1.68Zm-.27-5.19c-2.02-.04-4.3.32-4.3,2.29,0,1.2.8,1.76,1.74,1.76,1.32,0,2.16-.84,2.46-1.7.06-.19.1-.4.1-.59v-1.76Z"/><path d="m483.67,609.05c.54.36,1.51.73,2.44.73,1.34,0,1.97-.67,1.97-1.51,0-.88-.52-1.36-1.89-1.87-1.83-.65-2.69-1.66-2.69-2.88,0-1.64,1.32-2.98,3.51-2.98,1.03,0,1.93.29,2.5.63l-.46,1.34c-.4-.25-1.13-.59-2.08-.59-1.09,0-1.7.63-1.7,1.38,0,.84.61,1.22,1.93,1.72,1.76.67,2.67,1.55,2.67,3.06,0,1.79-1.39,3.04-3.8,3.04-1.11,0-2.14-.27-2.86-.69l.46-1.41Z"/><path d="m493.27,606.19c.04,2.5,1.64,3.53,3.49,3.53,1.32,0,2.12-.23,2.81-.53l.32,1.32c-.65.29-1.76.63-3.38.63-3.13,0-5-2.06-5-5.12s1.81-5.48,4.77-5.48c3.32,0,4.2,2.92,4.2,4.79,0,.38-.04.67-.06.86h-7.14Zm5.42-1.32c.02-1.18-.48-3-2.56-3-1.87,0-2.69,1.72-2.83,3h5.4Z"/><path d="m502.51,609.05c.55.36,1.51.73,2.44.73,1.34,0,1.97-.67,1.97-1.51,0-.88-.53-1.36-1.89-1.87-1.83-.65-2.69-1.66-2.69-2.88,0-1.64,1.32-2.98,3.51-2.98,1.03,0,1.93.29,2.5.63l-.46,1.34c-.4-.25-1.13-.59-2.08-.59-1.09,0-1.7.63-1.7,1.38,0,.84.61,1.22,1.93,1.72,1.76.67,2.67,1.55,2.67,3.06,0,1.79-1.39,3.04-3.8,3.04-1.11,0-2.14-.27-2.86-.69l.46-1.41Z"/></g><g><line class="cls-11" x1="448.62" y1="454.15" x2="448.62" y2="460.15"/><line class="cls-3" x1="448.62" y1="470.65" x2="448.62" y2="507.38"/><line class="cls-11" x1="448.62" y1="512.63" x2="448.62" y2="518.63"/><polygon points="442.51 514.47 448.62 537.23 454.72 514.47 442.51 514.47"/></g><g><path class="cls-5" d="m171.69,204.92h118.46c11,0,20,9,20,20v160.78"/><polygon points="304.05 381.54 310.15 404.31 316.26 381.54 304.05 381.54"/></g><g><path class="cls-5" d="m171.69,614.77h118.46c11,0,20-9,20-20v-149.7"/><polygon points="316.26 449.23 310.15 426.46 304.05 449.23 316.26 449.23"/></g><g><line class="cls-5" x1="171.69" y1="415.38" x2="280.47" y2="415.38"/><polygon points="276.31 421.49 299.08 415.38 276.31 409.28 276.31 421.49"/></g><g><path d="m59.01,34.24c-.17-3.2-.37-7.04-.34-9.89h-.1c-.78,2.69-1.73,5.54-2.89,8.7l-4.04,11.12h-2.24l-3.71-10.91c-1.09-3.23-2-6.19-2.65-8.91h-.07c-.07,2.86-.24,6.7-.44,10.13l-.61,9.83h-2.82l1.6-22.91h3.77l3.91,11.08c.95,2.82,1.73,5.34,2.31,7.72h.1c.58-2.31,1.39-4.83,2.41-7.72l4.08-11.08h3.77l1.43,22.91h-2.89l-.58-10.06Z"/><path d="m76.25,44.31l-.24-2.07h-.1c-.92,1.29-2.69,2.45-5.03,2.45-3.33,0-5.03-2.35-5.03-4.73,0-3.98,3.54-6.15,9.89-6.12v-.34c0-1.36-.37-3.81-3.74-3.81-1.53,0-3.13.48-4.28,1.22l-.68-1.97c1.36-.88,3.33-1.46,5.41-1.46,5.03,0,6.26,3.43,6.26,6.73v6.15c0,1.43.07,2.82.27,3.94h-2.72Zm-.44-8.4c-3.26-.07-6.97.51-6.97,3.71,0,1.94,1.29,2.86,2.82,2.86,2.14,0,3.5-1.36,3.98-2.75.1-.31.17-.65.17-.95v-2.86Z"/><path d="m83.53,32.31c0-1.7-.03-3.09-.14-4.45h2.65l.17,2.72h.07c.82-1.56,2.72-3.09,5.44-3.09,2.28,0,5.81,1.36,5.81,7v9.83h-2.99v-9.48c0-2.65-.99-4.86-3.81-4.86-1.97,0-3.5,1.39-4.01,3.06-.14.37-.2.88-.2,1.39v9.89h-2.99v-12Z"/><path d="m111.51,44.31l-.24-2.07h-.1c-.92,1.29-2.69,2.45-5.03,2.45-3.33,0-5.03-2.35-5.03-4.73,0-3.98,3.54-6.15,9.89-6.12v-.34c0-1.36-.37-3.81-3.74-3.81-1.53,0-3.13.48-4.28,1.22l-.68-1.97c1.36-.88,3.33-1.46,5.41-1.46,5.03,0,6.25,3.43,6.25,6.73v6.15c0,1.43.07,2.82.27,3.94h-2.72Zm-.44-8.4c-3.26-.07-6.97.51-6.97,3.71,0,1.94,1.29,2.86,2.82,2.86,2.14,0,3.5-1.36,3.98-2.75.1-.31.17-.65.17-.95v-2.86Z"/><path d="m132.96,27.85c-.07,1.19-.14,2.52-.14,4.52v9.55c0,3.77-.75,6.09-2.35,7.51-1.6,1.5-3.91,1.97-5.98,1.97s-4.15-.48-5.47-1.36l.75-2.28c1.09.68,2.79,1.29,4.83,1.29,3.06,0,5.3-1.6,5.3-5.75v-1.84h-.07c-.92,1.53-2.69,2.75-5.24,2.75-4.08,0-7-3.47-7-8.02,0-5.58,3.64-8.74,7.41-8.74,2.86,0,4.42,1.5,5.13,2.86h.07l.14-2.48h2.62Zm-3.09,6.49c0-.51-.03-.95-.17-1.36-.54-1.73-2.01-3.16-4.18-3.16-2.86,0-4.9,2.41-4.9,6.22,0,3.23,1.63,5.92,4.86,5.92,1.84,0,3.5-1.16,4.15-3.06.17-.51.24-1.09.24-1.6v-2.96Z"/><path d="m139.46,36.62c.07,4.05,2.65,5.71,5.64,5.71,2.14,0,3.43-.37,4.56-.85l.51,2.14c-1.05.48-2.86,1.02-5.47,1.02-5.07,0-8.09-3.33-8.09-8.29s2.92-8.87,7.72-8.87c5.37,0,6.8,4.73,6.8,7.75,0,.61-.07,1.09-.1,1.39h-11.56Zm8.77-2.14c.03-1.9-.78-4.86-4.15-4.86-3.03,0-4.35,2.79-4.59,4.86h8.74Z"/><path d="m169.03,20.17v19.89c0,1.46.03,3.13.14,4.25h-2.69l-.14-2.86h-.07c-.92,1.84-2.92,3.23-5.61,3.23-3.98,0-7.04-3.37-7.04-8.36-.03-5.47,3.37-8.84,7.38-8.84,2.52,0,4.22,1.19,4.96,2.52h.07v-9.83h2.99Zm-2.99,14.38c0-.37-.03-.88-.14-1.26-.44-1.9-2.07-3.47-4.32-3.47-3.09,0-4.93,2.72-4.93,6.36,0,3.33,1.63,6.09,4.86,6.09,2.01,0,3.84-1.33,4.38-3.57.1-.41.14-.82.14-1.29v-2.86Z"/><path d="m185.02,37.1l-2.38,7.21h-3.06l7.79-22.91h3.57l7.82,22.91h-3.16l-2.45-7.21h-8.12Zm7.51-2.31l-2.24-6.6c-.51-1.5-.85-2.86-1.19-4.18h-.07c-.34,1.36-.71,2.75-1.16,4.15l-2.24,6.63h6.9Z"/><path d="m201.91,33.22c0-2.11-.07-3.81-.14-5.37h2.69l.14,2.82h.07c1.22-2.01,3.16-3.2,5.85-3.2,3.98,0,6.97,3.37,6.97,8.36,0,5.92-3.6,8.84-7.48,8.84-2.18,0-4.08-.95-5.07-2.58h-.07v8.94h-2.96v-17.81Zm2.96,4.39c0,.44.07.85.14,1.22.54,2.07,2.35,3.5,4.49,3.5,3.16,0,5-2.58,5-6.36,0-3.3-1.73-6.12-4.9-6.12-2.04,0-3.94,1.46-4.52,3.71-.1.37-.2.82-.2,1.22v2.82Z"/><path d="m221.26,33.22c0-2.11-.07-3.81-.14-5.37h2.69l.14,2.82h.07c1.22-2.01,3.16-3.2,5.85-3.2,3.98,0,6.97,3.37,6.97,8.36,0,5.92-3.6,8.84-7.48,8.84-2.18,0-4.08-.95-5.07-2.58h-.07v8.94h-2.96v-17.81Zm2.96,4.39c0,.44.07.85.14,1.22.54,2.07,2.35,3.5,4.49,3.5,3.16,0,5-2.58,5-6.36,0-3.3-1.73-6.12-4.9-6.12-2.04,0-3.94,1.46-4.52,3.71-.1.37-.2.82-.2,1.22v2.82Z"/><path d="m249,27.85l2.18,8.36c.48,1.84.92,3.54,1.22,5.24h.1c.37-1.67.92-3.43,1.46-5.2l2.69-8.4h2.52l2.55,8.23c.61,1.97,1.09,3.71,1.46,5.37h.1c.27-1.67.71-3.4,1.26-5.34l2.35-8.26h2.96l-5.3,16.45h-2.72l-2.52-7.85c-.58-1.84-1.05-3.47-1.46-5.41h-.07c-.41,1.97-.92,3.67-1.5,5.44l-2.65,7.82h-2.72l-4.96-16.45h3.06Z"/><path d="m276.17,23.23c.03,1.02-.71,1.84-1.9,1.84-1.05,0-1.8-.82-1.8-1.84s.78-1.87,1.87-1.87,1.84.82,1.84,1.87Zm-3.33,21.08v-16.45h2.99v16.45h-2.99Z"/><path d="m284.39,23.13v4.73h4.28v2.28h-4.28v8.87c0,2.04.58,3.2,2.24,3.2.78,0,1.36-.1,1.73-.2l.14,2.24c-.58.24-1.5.41-2.65.41-1.39,0-2.52-.44-3.23-1.26-.85-.88-1.16-2.35-1.16-4.28v-8.98h-2.55v-2.28h2.55v-3.94l2.92-.78Z"/><path d="m292.05,20.17h2.99v10.27h.07c.48-.85,1.22-1.6,2.14-2.11.88-.51,1.94-.85,3.06-.85,2.21,0,5.75,1.36,5.75,7.04v9.79h-2.99v-9.45c0-2.65-.99-4.9-3.81-4.9-1.94,0-3.47,1.36-4.01,2.99-.17.41-.2.85-.2,1.43v9.93h-2.99v-24.14Z"/><path d="m329.85,43.7c-.78.41-2.52.95-4.73.95-4.96,0-8.19-3.37-8.19-8.4s3.47-8.74,8.84-8.74c1.77,0,3.33.44,4.15.85l-.68,2.31c-.71-.41-1.84-.78-3.47-.78-3.77,0-5.81,2.79-5.81,6.22,0,3.81,2.45,6.15,5.71,6.15,1.7,0,2.82-.44,3.67-.82l.51,2.24Z"/><path d="m334.82,36.62c.07,4.05,2.65,5.71,5.64,5.71,2.14,0,3.43-.37,4.56-.85l.51,2.14c-1.05.48-2.86,1.02-5.47,1.02-5.07,0-8.09-3.33-8.09-8.29s2.92-8.87,7.72-8.87c5.37,0,6.8,4.73,6.8,7.75,0,.61-.07,1.09-.1,1.39h-11.56Zm8.77-2.14c.03-1.9-.78-4.86-4.15-4.86-3.03,0-4.35,2.79-4.59,4.86h8.74Z"/><path d="m350.18,32.31c0-1.7-.03-3.09-.14-4.45h2.65l.17,2.72h.07c.82-1.56,2.72-3.09,5.44-3.09,2.28,0,5.81,1.36,5.81,7v9.83h-2.99v-9.48c0-2.65-.99-4.86-3.81-4.86-1.97,0-3.5,1.39-4.01,3.06-.14.37-.2.88-.2,1.39v9.89h-2.99v-12Z"/><path d="m372.52,23.13v4.73h4.28v2.28h-4.28v8.87c0,2.04.58,3.2,2.24,3.2.78,0,1.36-.1,1.73-.2l.14,2.24c-.58.24-1.5.41-2.65.41-1.39,0-2.52-.44-3.23-1.26-.85-.88-1.16-2.35-1.16-4.28v-8.98h-2.55v-2.28h2.55v-3.94l2.92-.78Z"/><path d="m380.17,32.99c0-1.94-.03-3.6-.14-5.13h2.62l.1,3.23h.14c.75-2.21,2.55-3.6,4.55-3.6.34,0,.58.03.85.1v2.82c-.31-.07-.61-.1-1.02-.1-2.11,0-3.6,1.6-4.01,3.84-.07.41-.14.88-.14,1.39v8.77h-2.96v-11.32Z"/><path d="m400.23,44.31l-.24-2.07h-.1c-.92,1.29-2.69,2.45-5.03,2.45-3.33,0-5.03-2.35-5.03-4.73,0-3.98,3.54-6.15,9.89-6.12v-.34c0-1.36-.37-3.81-3.74-3.81-1.53,0-3.13.48-4.28,1.22l-.68-1.97c1.36-.88,3.33-1.46,5.41-1.46,5.03,0,6.26,3.43,6.26,6.73v6.15c0,1.43.07,2.82.27,3.94h-2.72Zm-.44-8.4c-3.26-.07-6.97.51-6.97,3.71,0,1.94,1.29,2.86,2.82,2.86,2.14,0,3.5-1.36,3.98-2.75.1-.31.17-.65.17-.95v-2.86Z"/><path d="m407.51,20.17h2.99v24.14h-2.99v-24.14Z"/><path d="m431.85,44.31l-.24-2.07h-.1c-.92,1.29-2.69,2.45-5.03,2.45-3.33,0-5.03-2.35-5.03-4.73,0-3.98,3.54-6.15,9.89-6.12v-.34c0-1.36-.37-3.81-3.74-3.81-1.53,0-3.13.48-4.28,1.22l-.68-1.97c1.36-.88,3.33-1.46,5.41-1.46,5.03,0,6.26,3.43,6.26,6.73v6.15c0,1.43.07,2.82.27,3.94h-2.72Zm-.44-8.4c-3.26-.07-6.97.51-6.97,3.71,0,1.94,1.29,2.86,2.82,2.86,2.14,0,3.5-1.36,3.98-2.75.1-.31.17-.65.17-.95v-2.86Z"/><path d="m453.3,27.85c-.07,1.19-.14,2.52-.14,4.52v9.55c0,3.77-.75,6.09-2.35,7.51-1.6,1.5-3.91,1.97-5.98,1.97s-4.15-.48-5.47-1.36l.75-2.28c1.09.68,2.79,1.29,4.83,1.29,3.06,0,5.3-1.6,5.3-5.75v-1.84h-.07c-.92,1.53-2.69,2.75-5.24,2.75-4.08,0-7-3.47-7-8.02,0-5.58,3.64-8.74,7.41-8.74,2.86,0,4.42,1.5,5.13,2.86h.07l.14-2.48h2.62Zm-3.09,6.49c0-.51-.03-.95-.17-1.36-.54-1.73-2.01-3.16-4.18-3.16-2.86,0-4.9,2.41-4.9,6.22,0,3.23,1.63,5.92,4.86,5.92,1.83,0,3.5-1.16,4.15-3.06.17-.51.24-1.09.24-1.6v-2.96Z"/><path d="m472.31,27.85c-.07,1.19-.14,2.52-.14,4.52v9.55c0,3.77-.75,6.09-2.35,7.51-1.6,1.5-3.91,1.97-5.98,1.97s-4.15-.48-5.47-1.36l.75-2.28c1.09.68,2.79,1.29,4.83,1.29,3.06,0,5.3-1.6,5.3-5.75v-1.84h-.07c-.92,1.53-2.69,2.75-5.24,2.75-4.08,0-7-3.47-7-8.02,0-5.58,3.64-8.74,7.41-8.74,2.86,0,4.42,1.5,5.13,2.86h.07l.14-2.48h2.62Zm-3.09,6.49c0-.51-.03-.95-.17-1.36-.54-1.73-2.01-3.16-4.18-3.16-2.86,0-4.9,2.41-4.9,6.22,0,3.23,1.63,5.92,4.86,5.92,1.83,0,3.5-1.16,4.15-3.06.17-.51.24-1.09.24-1.6v-2.96Z"/><path d="m476.93,32.99c0-1.94-.03-3.6-.14-5.13h2.62l.1,3.23h.14c.75-2.21,2.55-3.6,4.55-3.6.34,0,.58.03.85.1v2.82c-.31-.07-.61-.1-1.02-.1-2.11,0-3.6,1.6-4.01,3.84-.07.41-.14.88-.14,1.39v8.77h-2.96v-11.32Z"/><path d="m489.38,36.62c.07,4.05,2.65,5.71,5.64,5.71,2.14,0,3.43-.37,4.56-.85l.51,2.14c-1.05.48-2.86,1.02-5.47,1.02-5.07,0-8.09-3.33-8.09-8.29s2.92-8.87,7.72-8.87c5.37,0,6.8,4.73,6.8,7.75,0,.61-.07,1.09-.1,1.39h-11.56Zm8.77-2.14c.03-1.9-.78-4.86-4.15-4.86-3.03,0-4.35,2.79-4.59,4.86h8.74Z"/><path d="m518.92,27.85c-.07,1.19-.14,2.52-.14,4.52v9.55c0,3.77-.75,6.09-2.35,7.51-1.6,1.5-3.91,1.97-5.98,1.97s-4.15-.48-5.47-1.36l.75-2.28c1.09.68,2.79,1.29,4.83,1.29,3.06,0,5.3-1.6,5.3-5.75v-1.84h-.07c-.92,1.53-2.69,2.75-5.24,2.75-4.08,0-7-3.47-7-8.02,0-5.58,3.64-8.74,7.41-8.74,2.86,0,4.42,1.5,5.13,2.86h.07l.14-2.48h2.62Zm-3.09,6.49c0-.51-.03-.95-.17-1.36-.54-1.73-2.01-3.16-4.18-3.16-2.86,0-4.9,2.41-4.9,6.22,0,3.23,1.63,5.92,4.86,5.92,1.84,0,3.5-1.16,4.15-3.06.17-.51.24-1.09.24-1.6v-2.96Z"/><path d="m532.86,44.31l-.24-2.07h-.1c-.92,1.29-2.69,2.45-5.03,2.45-3.33,0-5.03-2.35-5.03-4.73,0-3.98,3.54-6.15,9.89-6.12v-.34c0-1.36-.37-3.81-3.74-3.81-1.53,0-3.13.48-4.28,1.22l-.68-1.97c1.36-.88,3.33-1.46,5.41-1.46,5.03,0,6.26,3.43,6.26,6.73v6.15c0,1.43.07,2.82.27,3.94h-2.72Zm-.44-8.4c-3.26-.07-6.97.51-6.97,3.71,0,1.94,1.29,2.86,2.82,2.86,2.14,0,3.5-1.36,3.98-2.75.1-.31.17-.65.17-.95v-2.86Z"/><path d="m543.61,23.13v4.73h4.28v2.28h-4.28v8.87c0,2.04.58,3.2,2.24,3.2.78,0,1.36-.1,1.73-.2l.14,2.24c-.58.24-1.5.41-2.65.41-1.39,0-2.52-.44-3.23-1.26-.85-.88-1.16-2.35-1.16-4.28v-8.98h-2.55v-2.28h2.55v-3.94l2.92-.78Z"/><path d="m554.59,23.23c.03,1.02-.71,1.84-1.9,1.84-1.05,0-1.8-.82-1.8-1.84s.78-1.87,1.87-1.87,1.84.82,1.84,1.87Zm-3.33,21.08v-16.45h2.99v16.45h-2.99Z"/><path d="m574.1,35.94c0,6.09-4.22,8.74-8.19,8.74-4.45,0-7.89-3.26-7.89-8.47,0-5.51,3.6-8.74,8.16-8.74s7.92,3.43,7.92,8.46Zm-13.05.17c0,3.6,2.07,6.32,5,6.32s5-2.69,5-6.39c0-2.79-1.39-6.32-4.93-6.32s-5.07,3.26-5.07,6.39Z"/><path d="m577.88,32.31c0-1.7-.03-3.09-.14-4.45h2.65l.17,2.72h.07c.82-1.56,2.72-3.09,5.44-3.09,2.28,0,5.81,1.36,5.81,7v9.83h-2.99v-9.48c0-2.65-.99-4.86-3.81-4.86-1.97,0-3.5,1.39-4.01,3.06-.14.37-.2.88-.2,1.39v9.89h-2.99v-12Z"/></g><g><path d="m355.06,100.78l-1.47,4.45h-1.89l4.81-14.15h2.2l4.83,14.15h-1.95l-1.51-4.45h-5.02Zm4.64-1.43l-1.39-4.07c-.31-.92-.52-1.76-.73-2.58h-.04c-.21.84-.44,1.7-.71,2.56l-1.39,4.09h4.26Z"/><path d="m364.7,104.16l4.6-5.98c.44-.55.86-1.03,1.32-1.57v-.04h-5.5v-1.49h7.75l-.02,1.15-4.54,5.9c-.42.57-.84,1.07-1.3,1.6v.04h5.94v1.47h-8.25v-1.07Z"/><path d="m383.34,102.46c0,1.05.02,1.97.08,2.77h-1.64l-.11-1.66h-.04c-.48.82-1.55,1.89-3.36,1.89-1.6,0-3.51-.88-3.51-4.45v-5.94h1.85v5.63c0,1.93.59,3.23,2.27,3.23,1.24,0,2.1-.86,2.44-1.68.11-.27.17-.61.17-.94v-6.24h1.85v7.39Z"/><path d="m386.41,98.24c0-1.2-.02-2.23-.08-3.17h1.62l.06,1.99h.08c.46-1.36,1.57-2.23,2.81-2.23.21,0,.36.02.53.06v1.74c-.19-.04-.38-.06-.63-.06-1.3,0-2.23.99-2.48,2.37-.04.25-.08.55-.08.86v5.42h-1.83v-6.99Z"/><path d="m394.1,100.49c.04,2.5,1.64,3.53,3.49,3.53,1.32,0,2.12-.23,2.81-.52l.31,1.32c-.65.29-1.76.63-3.38.63-3.13,0-5-2.06-5-5.12s1.81-5.48,4.77-5.48c3.32,0,4.2,2.92,4.2,4.79,0,.38-.04.67-.06.86h-7.14Zm5.42-1.32c.02-1.18-.48-3-2.56-3-1.87,0-2.69,1.72-2.83,3h5.4Z"/></g></svg>